InterThaiLoopless-Roman.glyphspackage
{
color = 11;
glyphname = quotedbl;
kernLeft = quotedbl;
kernRight = quotedbl;
layers = (
{
layerId = "C698F293-3EC0-4A5A-A3A0-0FDB1F5CF265";
shapes = (
{
closed = 1;
nodes = (
(382,923,l),
(404,1490,l),
(210,1490,l),
(232,923,l)
);
},
{
closed = 1;
nodes = (
(722,923,l),
(744,1490,l),
(550,1490,l),
(572,923,l)
);
}
);
width = 954;
},
{
layerId = "5C20EF92-B63D-42A8-8878-93C2863E0093";
shapes = (
{
closed = 1;
nodes = (
(529,824,l),
(566,1490,l),
(196,1490,l),
(233,824,l)
);
},
{
closed = 1;
nodes = (
(1046,824,l),
(1083,1490,l),
(713,1490,l),
(750,824,l)
);
}
);
width = 1279;
},
{
layerId = "B1F27B51-9973-4381-9301-4FE46FE1CA59";
shapes = (
{
closed = 1;
nodes = (
(302,1040,l),
(307,1490,l),
(256,1490,l),
(261,1040,l)
);
},
{
closed = 1;
nodes = (
(533,1040,l),
(538,1490,l),
(487,1490,l),
(492,1040,l)
);
}
);
width = 794;
}
);
note = "space in between:
100 D: 2.5x
100 T: 3.25x
400: 1x
900: 0.5x";
unicode = 34;
userData = {
interface.gridadjust.original = "{'width': 1152, 'leftMargin': 256, 'rightMargin': 256}";
"interface.width-adjustments" = (
-16
);
};
}
{
glyphname = "koKai-thai";
layers = (
{
anchors = (
{
name = bottom;
pos = (1016,0);
},
{
name = top;
pos = (1000,1202);
}
);
layerId = "B1F27B51-9973-4381-9301-4FE46FE1CA59";
shapes = (
{
closed = 1;
nodes = (
(272,0,l),
(272,518,ls),
(272,686,o),
(346,762,o),
(496,746,cs),
(536,742,l),
(536,784,l),
(200,822,l),
(222,786,l),
(222,814,ls),
(222,1034,o),
(366,1174,o),
(594,1174,cs),
(824,1174,o),
(968,1034,o),
(968,814,cs),
(968,0,l),
(1016,0,l),
(1016,814,ls),
(1016,1058,o),
(848,1218,o),
(594,1218,cs),
(340,1218,o),
(174,1058,o),
(174,814,cs),
(174,780,l),
(350,762,l),
(350,756,l),
(264,722,o),
(226,646,o),
(226,514,cs),
(226,0,l)
);
}
);
width = 1226;
},
{
anchors = (
{
name = bottom;
pos = (1128,0);
},
{
name = top;
pos = (1112,1202);
}
);
layerId = "C698F293-3EC0-4A5A-A3A0-0FDB1F5CF265";
shapes = (
{
closed = 1;
nodes = (
(352,0,l),
(352,440,ls),
(352,586,o),
(412,670,o),
(504,656,cs),
(568,648,l),
(568,786,l),
(260,832,l),
(306,718,l),
(306,760,ls),
(306,952,o),
(434,1072,o),
(634,1072,cs),
(828,1072,o),
(952,960,o),
(952,784,cs),
(952,0,l),
(1128,0,l),
(1128,798,ls),
(1128,1060,o),
(936,1226,o),
(634,1226,cs),
(328,1226,o),
(134,1050,o),
(134,774,cs),
(134,718,l),
(336,688,l),
(336,676,l),
(234,646,o),
(176,556,o),
(176,420,cs),
(176,0,l)
);
}
);
width = 1292;
},
{
anchors = (
{
name = bottom;
pos = (1244,0);
},
{
name = top;
pos = (1230,1202);
}
);
layerId = "5C20EF92-B63D-42A8-8878-93C2863E0093";
shapes = (
{
closed = 1;
nodes = (
(504,0,l),
(504,434,ls),
(504,496,o),
(534,528,o),
(596,528,cs),
(638,528,l),
(638,746,l),
(376,746,l),
(466,676,l),
(466,734,ls),
(466,862,o),
(532,928,o),
(658,928,cs),
(776,928,o),
(840,870,o),
(840,764,cs),
(840,0,l),
(1244,0,l),
(1244,744,ls),
(1244,1056,o),
(1036,1226,o),
(664,1226,cs),
(286,1226,o),
(76,1050,o),
(76,734,cs),
(76,654,l),
(282,654,l),
(282,642,l),
(162,600,o),
(104,512,o),
(104,374,cs),
(104,0,l)
);
}
);
width = 1348;
}
);
unicode = 3585;
}
{
glyphname = "khoKhai-thai";
layers = (
{
anchors = (
{
name = bottom;
pos = (930,0);
},
{
name = top;
pos = (944,1202);
}
);
layerId = "B1F27B51-9973-4381-9301-4FE46FE1CA59";
shapes = (
{
closed = 1;
nodes = (
(796,-14,o),
(944,136,o),
(944,368,cs),
(944,1202,l),
(898,1202,l),
(898,368,ls),
(898,162,o),
(768,30,o),
(570,30,cs),
(372,30,o),
(242,162,o),
(242,368,cs),
(242,634,ls),
(242,746,o),
(310,800,o),
(376,854,cs),
(440,906,o),
(500,954,o),
(500,1054,cs),
(500,1158,o),
(434,1218,o),
(316,1218,cs),
(262,1218,o),
(214,1206,o),
(168,1180,c),
(178,1138,l),
(222,1162,o),
(268,1174,o),
(316,1174,cs),
(404,1174,o),
(454,1130,o),
(454,1054,cs),
(454,976,o),
(398,930,o),
(340,880,cs),
(270,822,o),
(196,760,o),
(196,634,cs),
(196,368,ls),
(196,136,o),
(344,-14,o),
(570,-14,cs)
);
}
);
width = 1154;
},
{
anchors = (
{
name = bottom;
pos = (968,0);
},
{
name = top;
pos = (984,1202);
}
);
layerId = "C698F293-3EC0-4A5A-A3A0-0FDB1F5CF265";
shapes = (
{
closed = 1;
nodes = (
(824,-24,o),
(984,124,o),
(984,356,cs),
(984,1202,l),
(808,1202,l),
(808,378,ls),
(808,228,o),
(716,130,o),
(570,130,cs),
(424,130,o),
(332,228,o),
(332,378,cs),
(332,504,ls),
(332,588,o),
(362,660,o),
(426,722,cs),
(508,802,o),
(546,880,o),
(546,972,cs),
(546,1124,o),
(444,1218,o),
(280,1218,cs),
(234,1218,o),
(188,1212,o),
(142,1198,c),
(174,1046,l),
(206,1056,o),
(240,1064,o),
(274,1064,cs),
(338,1064,o),
(374,1030,o),
(374,970,cs),
(374,914,o),
(344,862,o),
(288,814,cs),
(190,730,o),
(156,652,o),
(156,512,cs),
(156,356,ls),
(156,124,o),
(316,-24,o),
(570,-24,cs)
);
}
);
width = 1148;
},
{
anchors = (
{
name = bottom;
pos = (1198,0);
},
{
name = top;
pos = (1214,1202);
}
);
layerId = "5C20EF92-B63D-42A8-8878-93C2863E0093";
shapes = (
{
closed = 1;
nodes = (
(994,-22,o),
(1214,166,o),
(1214,454,cs),
(1214,1202,l),
(810,1202,l),
(810,456,ls),
(810,342,o),
(754,280,o),
(656,280,cs),
(556,280,o),
(502,342,o),
(502,456,cs),
(502,552,ls),
(502,622,o),
(524,674,o),
(588,754,cs),
(654,838,o),
(678,892,o),
(678,968,cs),
(678,1132,o),
(558,1218,o),
(332,1218,cs),
(246,1218,o),
(156,1202,o),
(92,1178,c),
(136,962,l),
(162,972,o),
(192,978,o),
(220,978,cs),
(270,978,o),
(300,956,o),
(300,918,cs),
(300,886,o),
(284,864,o),
(232,818,cs),
(138,732,o),
(104,662,o),
(104,560,cs),
(104,454,ls),
(104,166,o),
(324,-22,o),
(660,-22,cs)
);
}
);
width = 1318;
}
);
metricRight = "boBaimai-thai";
unicode = 3586;
}
{
glyphname = "khoKhuat-thai";
layers = (
{
anchors = (
{
name = bottom;
pos = (930,0);
},
{
name = top;
pos = (944,1202);
}
);
layerId = "B1F27B51-9973-4381-9301-4FE46FE1CA59";
shapes = (
{
closed = 1;
nodes = (
(796,-14,o),
(944,136,o),
(944,368,cs),
(944,1202,l),
(898,1202,l),
(898,368,ls),
(898,162,o),
(768,30,o),
(570,30,cs),
(372,30,o),
(242,162,o),
(242,368,cs),
(242,634,ls),
(242,746,o),
(310,800,o),
(376,854,cs),
(440,906,o),
(500,954,o),
(500,1070,cs),
(500,1202,l),
(454,1202,l),
(454,1174,ls),
(454,1094,o),
(394,1030,o),
(312,1030,cs),
(238,1030,o),
(188,1082,o),
(188,1160,cs),
(188,1202,l),
(142,1202,l),
(142,1160,ls),
(142,1062,o),
(212,986,o),
(306,986,cs),
(364,986,o),
(408,1014,o),
(448,1070,c),
(454,1070,l),
(454,968,o),
(402,932,o),
(340,880,cs),
(270,822,o),
(196,760,o),
(196,634,cs),
(196,368,ls),
(196,136,o),
(344,-14,o),
(570,-14,cs)
);
}
);
width = 1154;
},
{
anchors = (
{
name = bottom;
pos = (990,0);
},
{
name = top;
pos = (1006,1202);
}
);
layerId = "C698F293-3EC0-4A5A-A3A0-0FDB1F5CF265";
shapes = (
{
closed = 1;
nodes = (
(842,-24,o),
(1006,124,o),
(1006,356,cs),
(1006,1202,l),
(830,1202,l),
(830,378,ls),
(830,228,o),
(734,130,o),
(584,130,cs),
(434,130,o),
(338,228,o),
(338,378,cs),
(338,504,ls),
(338,590,o),
(372,660,o),
(440,724,cs),
(532,804,o),
(568,880,o),
(568,1000,cs),
(568,1202,l),
(410,1202,l),
(410,1182,ls),
(410,1116,o),
(364,1066,o),
(306,1066,cs),
(252,1066,o),
(216,1110,o),
(216,1172,cs),
(216,1202,l),
(54,1202,l),
(54,1146,ls),
(54,1006,o),
(118,926,o),
(228,926,cs),
(284,926,o),
(338,950,o),
(384,992,c),
(396,992,l),
(396,916,o),
(368,862,o),
(302,814,cs),
(198,728,o),
(162,654,o),
(162,512,cs),
(162,356,ls),
(162,124,o),
(326,-24,o),
(584,-24,cs)
);
}
);
width = 1170;
},
{
anchors = (
{
name = bottom;
pos = (1248,0);
},
{
name = top;
pos = (1262,1202);
}
);
layerId = "5C20EF92-B63D-42A8-8878-93C2863E0093";
shapes = (
{
closed = 1;
nodes = (
(1044,-22,o),
(1262,166,o),
(1262,454,cs),
(1262,1202,l),
(860,1202,l),
(860,456,ls),
(860,342,o),
(804,280,o),
(706,280,cs),
(606,280,o),
(552,342,o),
(552,456,cs),
(552,544,ls),
(552,626,o),
(572,678,o),
(642,754,cs),
(720,836,o),
(746,900,o),
(746,1006,cs),
(746,1202,l),
(450,1202,l),
(450,1186,ls),
(450,1140,o),
(420,1110,o),
(378,1110,cs),
(338,1110,o),
(312,1138,o),
(312,1182,cs),
(312,1202,l),
(58,1202,l),
(58,1094,ls),
(58,968,o),
(124,894,o),
(236,894,cs),
(292,894,o),
(348,914,o),
(382,950,c),
(392,950,l),
(392,906,o),
(370,874,o),
(300,818,cs),
(194,730,o),
(154,658,o),
(154,552,cs),
(154,454,ls),
(154,166,o),
(374,-22,o),
(710,-22,cs)
);
}
);
width = 1366;
}
);
metricRight = "boBaimai-thai";
unicode = 3587;
}
{
glyphname = "khoKhwai-thai";
layers = (
{
anchors = (
{
name = bottom;
pos = (1030,0);
},
{
name = top;
pos = (1016,1202);
}
);
layerId = "B1F27B51-9973-4381-9301-4FE46FE1CA59";
shapes = (
{
closed = 1;
nodes = (
(258,0,l),
(258,242,ls),
(258,458,o),
(406,620,o),
(604,620,cs),
(636,620,o),
(664,616,o),
(694,608,c),
(694,654,l),
(664,662,o),
(634,666,o),
(600,666,cs),
(446,666,o),
(318,576,o),
(264,430,c),
(258,430,l),
(258,824,ls),
(258,1034,o),
(402,1174,o),
(620,1174,cs),
(838,1174,o),
(984,1034,o),
(984,824,cs),
(984,0,l),
(1030,0,l),
(1030,824,ls),
(1030,1062,o),
(866,1218,o),
(620,1218,cs),
(374,1218,o),
(210,1062,o),
(210,824,cs),
(210,0,l)
);
}
);
width = 1240;
},
{
anchors = (
{
name = bottom;
pos = (1132,0);
},
{
name = top;
pos = (1118,1202);
}
);
layerId = "C698F293-3EC0-4A5A-A3A0-0FDB1F5CF265";
shapes = (
{
closed = 1;
nodes = (
(340,0,l),
(340,220,ls),
(340,372,o),
(466,486,o),
(634,486,cs),
(666,486,o),
(702,482,o),
(728,474,c),
(728,644,l),
(710,650,o),
(680,654,o),
(648,654,cs),
(510,654,o),
(390,578,o),
(346,462,c),
(334,462,l),
(334,760,ls),
(334,950,o),
(454,1072,o),
(644,1072,cs),
(834,1072,o),
(956,950,o),
(956,760,cs),
(956,0,l),
(1132,0,l),
(1132,778,ls),
(1132,1052,o),
(942,1226,o),
(644,1226,cs),
(350,1226,o),
(164,1052,o),
(164,778,cs),
(164,0,l)
);
}
);
width = 1296;
},
{
anchors = (
{
name = bottom;
pos = (1306,0);
},
{
name = top;
pos = (1292,1202);
}
);
layerId = "5C20EF92-B63D-42A8-8878-93C2863E0093";
shapes = (
{
closed = 1;
nodes = (
(496,0,l),
(496,146,ls),
(496,276,o),
(576,358,o),
(706,358,cs),
(744,358,o),
(788,352,o),
(822,338,c),
(822,680,l),
(790,690,o),
(760,696,o),
(730,696,cs),
(612,696,o),
(530,616,o),
(494,468,c),
(482,468,l),
(482,712,ls),
(482,858,o),
(552,928,o),
(696,928,cs),
(840,928,o),
(908,858,o),
(908,712,cs),
(908,0,l),
(1306,0,l),
(1306,702,ls),
(1306,1040,o),
(1092,1226,o),
(706,1226,cs),
(320,1226,o),
(104,1040,o),
(104,702,cs),
(104,0,l)
);
}
);
width = 1410;
}
);
metricRight = "=|";
unicode = 3588;
}
{
glyphname = "khoKhon-thai";
layers = (
{
anchors = (
{
name = bottom;
pos = (1048,0);
},
{
name = top;
pos = (1032,1202);
}
);
layerId = "B1F27B51-9973-4381-9301-4FE46FE1CA59";
shapes = (
{
closed = 1;
nodes = (
(260,0,l),
(260,242,ls),
(260,458,o),
(408,620,o),
(606,620,cs),
(638,620,o),
(666,616,o),
(696,608,c),
(696,654,l),
(666,662,o),
(636,666,o),
(602,666,cs),
(448,666,o),
(320,576,o),
(266,430,c),
(260,430,l),
(260,900,ls),
(260,1048,o),
(326,1144,o),
(446,1166,c),
(624,1022,l),
(636,1022,l),
(816,1166,l),
(936,1144,o),
(1000,1048,o),
(1000,900,cs),
(1000,0,l),
(1048,0,l),
(1048,900,ls),
(1048,1074,o),
(962,1188,o),
(810,1218,c),
(634,1076,l),
(626,1076,l),
(452,1218,l),
(300,1188,o),
(214,1074,o),
(214,900,cs),
(214,0,l)
);
}
);
width = 1262;
},
{
anchors = (
{
name = bottom;
pos = (1148,0);
},
{
name = top;
pos = (1134,1202);
}
);
layerId = "C698F293-3EC0-4A5A-A3A0-0FDB1F5CF265";
shapes = (
{
closed = 1;
nodes = (
(342,0,l),
(342,208,ls),
(342,360,o),
(468,474,o),
(636,474,cs),
(668,474,o),
(702,470,o),
(728,462,c),
(728,632,l),
(710,638,o),
(682,642,o),
(650,642,cs),
(512,642,o),
(392,566,o),
(348,450,c),
(336,450,l),
(336,856,ls),
(336,962,o),
(376,1024,o),
(460,1046,c),
(634,926,l),
(680,926,l),
(854,1046,l),
(934,1026,o),
(972,964,o),
(972,856,cs),
(972,0,l),
(1148,0,l),
(1148,828,ls),
(1148,1044,o),
(1046,1184,o),
(864,1218,c),
(662,1072,l),
(650,1072,l),
(448,1218,l),
(266,1184,o),
(166,1044,o),
(166,828,cs),
(166,0,l)
);
}
);
width = 1314;
},
{
anchors = (
{
name = bottom;
pos = (1308,0);
},
{
name = top;
pos = (1294,1202);
}
);
layerId = "5C20EF92-B63D-42A8-8878-93C2863E0093";
shapes = (
{
closed = 1;
nodes = (
(496,0,l),
(496,124,ls),
(496,254,o),
(576,336,o),
(706,336,cs),
(746,336,o),
(788,330,o),
(822,316,c),
(822,658,l),
(790,668,o),
(760,674,o),
(730,674,cs),
(612,674,o),
(530,594,o),
(494,446,c),
(482,446,l),
(482,784,ls),
(482,842,o),
(500,878,o),
(542,894,c),
(686,800,l),
(704,800,l),
(848,894,l),
(890,878,o),
(910,842,o),
(910,784,cs),
(910,0,l),
(1308,0,l),
(1308,802,ls),
(1308,1050,o),
(1182,1188,o),
(920,1226,c),
(714,1080,l),
(698,1080,l),
(492,1226,l),
(230,1188,o),
(104,1050,o),
(104,802,cs),
(104,0,l)
);
}
);
width = 1412;
}
);
metricRight = "=|";
unicode = 3589;
}
{
glyphname = "khoRakhang-thai";
layers = (
{
anchors = (
{
name = bottom;
pos = (994,0);
},
{
name = top;
pos = (1008,1202);
}
);
layerId = "B1F27B51-9973-4381-9301-4FE46FE1CA59";
shapes = (
{
closed = 1;
nodes = (
(852,-14,o),
(1008,146,o),
(1008,380,cs),
(1008,1202,l),
(962,1202,l),
(962,380,ls),
(962,170,o),
(824,30,o),
(618,30,cs),
(412,30,o),
(264,174,o),
(264,376,cs),
(264,634,ls),
(264,746,o),
(330,800,o),
(396,854,cs),
(460,906,o),
(520,954,o),
(520,1070,cs),
(520,1202,l),
(474,1202,l),
(474,1174,ls),
(474,1094,o),
(414,1030,o),
(332,1030,cs),
(258,1030,o),
(208,1082,o),
(208,1160,cs),
(208,1202,l),
(162,1202,l),
(162,1160,ls),
(162,1062,o),
(232,986,o),
(326,986,cs),
(384,986,o),
(430,1014,o),
(470,1070,c),
(474,1070,l),
(474,968,o),
(422,932,o),
(360,880,cs),
(290,822,o),
(216,760,o),
(216,634,cs),
(216,0,l),
(264,0,l),
(264,186,l),
(270,186,l),
(328,62,o),
(462,-14,o),
(620,-14,cs)
);
}
);
width = 1218;
},
{
anchors = (
{
name = bottom;
pos = (1122,0);
},
{
name = top;
pos = (1136,1202);
}
);
layerId = "C698F293-3EC0-4A5A-A3A0-0FDB1F5CF265";
shapes = (
{
closed = 1;
nodes = (
(982,-14,o),
(1136,158,o),
(1136,438,cs),
(1136,1202,l),
(960,1202,l),
(960,450,ls),
(960,276,o),
(840,146,o),
(680,146,cs),
(496,146,o),
(354,292,o),
(354,478,cs),
(354,524,ls),
(354,596,o),
(388,666,o),
(454,728,cs),
(548,808,o),
(584,882,o),
(584,1000,cs),
(584,1202,l),
(424,1202,l),
(424,1182,ls),
(424,1116,o),
(378,1066,o),
(320,1066,cs),
(266,1066,o),
(230,1110,o),
(230,1172,cs),
(230,1202,l),
(68,1202,l),
(68,1146,ls),
(68,1006,o),
(132,926,o),
(242,926,cs),
(298,926,o),
(352,950,o),
(398,992,c),
(410,992,l),
(410,918,o),
(384,868,o),
(316,818,cs),
(214,734,o),
(178,658,o),
(178,530,cs),
(178,0,l),
(354,0,l),
(354,206,l),
(366,206,l),
(432,68,o),
(568,-14,o),
(734,-14,cs)
);
}
);
width = 1300;
},
{
anchors = (
{
name = bottom;
pos = (1292,0);
},
{
name = top;
pos = (1306,1202);
}
);
layerId = "5C20EF92-B63D-42A8-8878-93C2863E0093";
shapes = (
{
closed = 1;
nodes = (
(1140,-14,o),
(1306,168,o),
(1306,432,cs),
(1306,1202,l),
(904,1202,l),
(904,516,ls),
(904,390,o),
(836,312,o),
(728,312,cs),
(618,312,o),
(552,386,o),
(552,504,cs),
(552,544,ls),
(552,626,o),
(572,678,o),
(642,754,cs),
(718,836,o),
(746,900,o),
(746,1006,cs),
(746,1202,l),
(450,1202,l),
(450,1186,ls),
(450,1140,o),
(420,1110,o),
(378,1110,cs),
(338,1110,o),
(312,1138,o),
(312,1182,cs),
(312,1202,l),
(58,1202,l),
(58,1094,ls),
(58,968,o),
(124,894,o),
(236,894,cs),
(292,894,o),
(348,914,o),
(382,950,c),
(392,950,l),
(392,906,o),
(370,874,o),
(298,818,cs),
(188,728,o),
(148,658,o),
(148,552,cs),
(148,0,l),
(530,0,l),
(530,220,l),
(542,220,l),
(592,74,o),
(728,-14,o),
(898,-14,cs)
);
}
);
width = 1410;
}
);
metricRight = "=|noNu-thai";
unicode = 3590;
}
{
glyphname = "ngoNgu-thai";
layers = (
{
anchors = (
{
name = bottom;
pos = (856,0);
},
{
name = top;
pos = (900,1202);
}
);
layerId = "B1F27B51-9973-4381-9301-4FE46FE1CA59";
shapes = (
{
closed = 1;
nodes = (
(506,0,ls),
(756,0,o),
(922,288,o),
(922,722,cs),
(922,1042,o),
(796,1218,o),
(562,1218,cs),
(500,1218,o),
(440,1204,o),
(386,1180,c),
(396,1138,l),
(448,1162,o),
(504,1174,o),
(560,1174,cs),
(764,1174,o),
(874,1014,o),
(874,722,cs),
(874,316,o),
(726,44,o),
(504,44,cs),
(378,44,l),
(414,32,l),
(104,1202,l),
(58,1202,l),
(378,0,l)
);
}
);
width = 1054;
},
{
anchors = (
{
name = bottom;
pos = (1012,0);
},
{
name = top;
pos = (1012,1202);
}
);
layerId = "C698F293-3EC0-4A5A-A3A0-0FDB1F5CF265";
shapes = (
{
closed = 1;
nodes = (
(542,0,ls),
(872,0,o),
(1070,244,o),
(1070,650,cs),
(1070,1012,o),
(916,1218,o),
(644,1218,cs),
(584,1218,o),
(524,1206,o),
(466,1186,c),
(500,1042,l),
(544,1056,o),
(586,1064,o),
(626,1064,cs),
(800,1064,o),
(892,920,o),
(892,650,cs),
(892,336,o),
(762,152,o),
(542,152,cs),
(452,152,l),
(544,66,l),
(246,1202,l),
(66,1202,l),
(386,0,l)
);
}
);
width = 1186;
},
{
anchors = (
{
name = bottom;
pos = (1166,0);
},
{
name = top;
pos = (1196,1202);
}
);
layerId = "5C20EF92-B63D-42A8-8878-93C2863E0093";
shapes = (
{
closed = 1;
nodes = (
(644,0,ls),
(1006,0,o),
(1224,248,o),
(1224,660,cs),
(1224,1020,o),
(1056,1218,o),
(746,1218,cs),
(672,1218,o),
(590,1206,o),
(534,1186,c),
(592,898,l),
(616,908,o),
(638,912,o),
(662,912,cs),
(768,912,o),
(830,810,o),
(830,630,cs),
(830,438,o),
(760,314,o),
(656,314,cs),
(548,314,l),
(658,126,l),
(424,1202,l),
(18,1202,l),
(318,0,l)
);
}
);
width = 1290;
}
);
unicode = 3591;
}
{
glyphname = "choChan-thai";
layers = (
{
anchors = (
{
name = bottom;
pos = (894,0);
},
{
name = top;
pos = (936,1202);
}
);
layerId = "B1F27B51-9973-4381-9301-4FE46FE1CA59";
shapes = (
{
closed = 1;
nodes = (
(494,0,ls),
(774,0,o),
(958,250,o),
(958,634,cs),
(958,1002,o),
(790,1218,o),
(504,1218,cs),
(270,1218,o),
(96,1070,o),
(64,844,c),
(112,844,l),
(140,1042,o),
(296,1174,o),
(504,1174,cs),
(760,1174,o),
(910,974,o),
(910,634,cs),
(910,276,o),
(746,42,o),
(494,42,cs),
(416,42,l),
(446,12,l),
(446,624,l),
(190,624,l),
(190,580,l),
(430,580,l),
(400,612,l),
(400,0,l)
);
}
);
width = 1088;
},
{
anchors = (
{
name = bottom;
pos = (998,0);
},
{
name = top;
pos = (998,1202);
}
);
layerId = "C698F293-3EC0-4A5A-A3A0-0FDB1F5CF265";
shapes = (
{
closed = 1;
nodes = (
(574,0,ls),
(876,0,o),
(1056,236,o),
(1056,626,cs),
(1056,1010,o),
(880,1226,o),
(562,1226,cs),
(286,1226,o),
(88,1068,o),
(58,822,c),
(232,822,l),
(260,976,o),
(384,1072,o),
(552,1072,cs),
(766,1072,o),
(878,918,o),
(878,626,cs),
(878,330,o),
(764,152,o),
(574,152,cs),
(436,152,l),
(510,50,l),
(510,646,l),
(178,646,l),
(178,498,l),
(392,498,l),
(340,552,l),
(340,0,l)
);
}
);
width = 1168;
},
{
anchors = (
{
name = bottom;
pos = (1154,0);
},
{
name = top;
pos = (1154,1202);
}
);
layerId = "5C20EF92-B63D-42A8-8878-93C2863E0093";
shapes = (
{
closed = 1;
nodes = (
(594,0,ls),
(958,0,o),
(1184,236,o),
(1184,616,cs),
(1184,994,o),
(962,1226,o),
(600,1226,cs),
(280,1226,o),
(56,1048,o),
(38,778,c),
(436,778,l),
(448,862,o),
(508,914,o),
(592,914,cs),
(712,914,o),
(774,812,o),
(774,614,cs),
(774,412,o),
(706,290,o),
(596,290,cs),
(464,290,l),
(572,118,l),
(572,668,l),
(102,668,l),
(102,414,l),
(268,414,l),
(208,478,l),
(208,0,l)
);
}
);
width = 1246;
}
);
unicode = 3592;
}
{
glyphname = "choChing-thai";
layers = (
{
anchors = (
{
name = bottom;
pos = (1002,0);
},
{
name = top;
pos = (988,1202);
}
);
layerId = "B1F27B51-9973-4381-9301-4FE46FE1CA59";
shapes = (
{
closed = 1;
nodes = (
(764,-14,o),
(892,64,o),
(950,194,c),
(956,194,l),
(956,0,l),
(1002,0,l),
(1002,828,ls),
(1002,1064,o),
(834,1218,o),
(576,1218,cs),
(362,1218,o),
(200,1108,o),
(152,932,c),
(196,918,l),
(238,1076,o),
(384,1174,o),
(576,1174,cs),
(806,1174,o),
(956,1038,o),
(956,828,cs),
(956,382,ls),
(956,178,o),
(810,30,o),
(610,30,cs),
(442,30,o),
(348,128,o),
(348,306,cs),
(348,632,l),
(152,632,l),
(152,588,l),
(336,588,l),
(302,612,l),
(302,306,ls),
(302,104,o),
(416,-14,o),
(610,-14,cs)
);
}
);
width = 1220;
},
{
anchors = (
{
name = bottom;
pos = (1084,0);
},
{
name = top;
pos = (1070,1202);
}
);
layerId = "C698F293-3EC0-4A5A-A3A0-0FDB1F5CF265";
shapes = (
{
closed = 1;
nodes = (
(710,-14,o),
(834,62,o),
(896,190,c),
(908,190,l),
(908,0,l),
(1084,0,l),
(1084,786,ls),
(1084,1062,o),
(908,1226,o),
(612,1226,cs),
(370,1226,o),
(184,1114,o),
(102,920,c),
(260,862,l),
(328,1004,o),
(440,1072,o),
(606,1072,cs),
(800,1072,o),
(908,978,o),
(908,806,cs),
(908,474,ls),
(908,278,o),
(788,146,o),
(612,146,cs),
(474,146,o),
(396,228,o),
(396,376,cs),
(396,660,l),
(124,660,l),
(124,514,l),
(344,514,l),
(226,612,l),
(226,366,ls),
(226,130,o),
(354,-14,o),
(562,-14,cs)
);
}
);
width = 1248;
},
{
anchors = (
{
name = bottom;
pos = (1208,0);
},
{
name = top;
pos = (1194,1202);
}
);
layerId = "5C20EF92-B63D-42A8-8878-93C2863E0093";
shapes = (
{
closed = 1;
nodes = (
(654,-14,o),
(764,66,o),
(818,220,c),
(828,220,l),
(828,0,l),
(1208,0,l),
(1208,794,ls),
(1208,1056,o),
(992,1226,o),
(662,1226,cs),
(328,1226,o),
(88,1052,o),
(72,798,c),
(460,798,l),
(470,890,o),
(538,942,o),
(642,942,cs),
(754,942,o),
(816,884,o),
(816,782,cs),
(816,468,ls),
(816,374,o),
(758,312,o),
(670,312,cs),
(582,312,o),
(526,374,o),
(526,468,cs),
(526,680,l),
(72,680,l),
(72,426,l),
(248,426,l),
(174,454,l),
(174,304,ls),
(174,110,o),
(300,-14,o),
(496,-14,cs)
);
}
);
width = 1312;
}
);
metricRight = "loLing-thai";
unicode = 3593;
}
{
glyphname = "choChang-thai";
layers = (
{
anchors = (
{
name = bottom;
pos = (952,0);
},
{
name = top;
pos = (958,1202);
}
);
layerId = "B1F27B51-9973-4381-9301-4FE46FE1CA59";
shapes = (
{
closed = 1;
nodes = (
(814,-14,o),
(966,136,o),
(966,368,cs),
(966,618,ls),
(966,744,o),
(910,832,o),
(812,858,c),
(812,864,l),
(906,884,o),
(958,952,o),
(958,1052,cs),
(958,1202,l),
(912,1202,l),
(912,1052,ls),
(912,948,o),
(836,882,o),
(722,882,cs),
(642,882,l),
(642,840,l),
(722,840,ls),
(844,840,o),
(920,756,o),
(920,618,cs),
(920,368,ls),
(920,162,o),
(786,30,o),
(582,30,cs),
(378,30,o),
(242,162,o),
(242,368,cs),
(242,634,ls),
(242,746,o),
(310,800,o),
(376,854,cs),
(440,906,o),
(500,954,o),
(500,1054,cs),
(500,1158,o),
(434,1218,o),
(316,1218,cs),
(262,1218,o),
(214,1206,o),
(168,1180,c),
(178,1138,l),
(222,1162,o),
(268,1174,o),
(316,1174,cs),
(404,1174,o),
(454,1130,o),
(454,1054,cs),
(454,976,o),
(398,930,o),
(340,880,cs),
(270,822,o),
(196,760,o),
(196,634,cs),
(196,368,ls),
(196,136,o),
(350,-14,o),
(582,-14,cs)
);
}
);
width = 1170;
},
{
anchors = (
{
name = bottom;
pos = (984,0);
},
{
name = top;
pos = (998,1202);
}
);
layerId = "C698F293-3EC0-4A5A-A3A0-0FDB1F5CF265";
shapes = (
{
closed = 1;
nodes = (
(834,-24,o),
(998,124,o),
(998,356,cs),
(998,586,ls),
(998,716,o),
(948,804,o),
(854,832,c),
(854,842,l),
(960,874,o),
(1020,968,o),
(1020,1102,cs),
(1020,1202,l),
(848,1202,l),
(848,1102,ls),
(848,976,o),
(786,906,o),
(676,906,cs),
(640,906,l),
(640,768,l),
(670,768,ls),
(768,768,o),
(822,704,o),
(822,586,cs),
(822,378,ls),
(822,228,o),
(726,130,o),
(576,130,cs),
(426,130,o),
(332,228,o),
(332,378,cs),
(332,504,ls),
(332,588,o),
(362,660,o),
(426,722,cs),
(508,802,o),
(546,880,o),
(546,972,cs),
(546,1124,o),
(444,1218,o),
(280,1218,cs),
(234,1218,o),
(188,1212,o),
(142,1198,c),
(174,1046,l),
(206,1056,o),
(240,1064,o),
(274,1064,cs),
(338,1064,o),
(374,1030,o),
(374,970,cs),
(374,914,o),
(344,862,o),
(288,814,cs),
(190,730,o),
(156,652,o),
(156,512,cs),
(156,356,ls),
(156,124,o),
(318,-24,o),
(576,-24,cs)
);
}
);
width = 1168;
},
{
anchors = (
{
name = bottom;
pos = (1228,0);
},
{
name = top;
pos = (1234,1202);
}
);
layerId = "5C20EF92-B63D-42A8-8878-93C2863E0093";
shapes = (
{
closed = 1;
nodes = (
(1020,-22,o),
(1242,166,o),
(1242,454,cs),
(1242,616,ls),
(1242,726,o),
(1190,800,o),
(1096,824,c),
(1096,836,l),
(1202,862,o),
(1264,942,o),
(1264,1058,cs),
(1264,1202,l),
(870,1202,l),
(870,1058,ls),
(870,994,o),
(836,958,o),
(774,958,cs),
(756,958,l),
(756,702,l),
(782,702,ls),
(826,702,o),
(850,670,o),
(850,616,cs),
(850,464,ls),
(850,344,o),
(792,280,o),
(684,280,cs),
(574,280,o),
(516,344,o),
(516,464,cs),
(516,568,ls),
(516,650,o),
(536,704,o),
(600,786,cs),
(658,860,o),
(678,908,o),
(678,974,cs),
(678,1132,o),
(560,1218,o),
(344,1218,cs),
(254,1218,o),
(162,1202,o),
(92,1178,c),
(136,962,l),
(162,972,o),
(192,978,o),
(220,978,cs),
(270,978,o),
(300,956,o),
(300,916,cs),
(300,886,o),
(286,864,o),
(238,818,cs),
(152,734,o),
(120,662,o),
(120,560,cs),
(120,454,ls),
(120,166,o),
(340,-22,o),
(682,-22,cs)
);
}
);
width = 1338;
}
);
metricLeft = "khoKhai-thai";
unicode = 3594;
}
{
glyphname = "soSo-thai";
layers = (
{
anchors = (
{
name = bottom;
pos = (952,0);
},
{
name = top;
pos = (958,1202);
}
);
layerId = "B1F27B51-9973-4381-9301-4FE46FE1CA59";
shapes = (
{
closed = 1;
nodes = (
(814,-14,o),
(966,136,o),
(966,368,cs),
(966,618,ls),
(966,744,o),
(910,832,o),
(812,858,c),
(812,864,l),
(906,884,o),
(958,952,o),
(958,1052,cs),
(958,1202,l),
(912,1202,l),
(912,1052,ls),
(912,948,o),
(836,882,o),
(722,882,cs),
(642,882,l),
(642,840,l),
(722,840,ls),
(844,840,o),
(920,756,o),
(920,618,cs),
(920,368,ls),
(920,162,o),
(786,30,o),
(582,30,cs),
(378,30,o),
(242,162,o),
(242,368,cs),
(242,634,ls),
(242,746,o),
(310,800,o),
(376,854,cs),
(440,906,o),
(500,954,o),
(500,1070,cs),
(500,1202,l),
(454,1202,l),
(454,1174,ls),
(454,1094,o),
(394,1030,o),
(312,1030,cs),
(238,1030,o),
(188,1082,o),
(188,1160,cs),
(188,1202,l),
(142,1202,l),
(142,1160,ls),
(142,1062,o),
(212,986,o),
(306,986,cs),
(364,986,o),
(408,1014,o),
(448,1070,c),
(454,1070,l),
(454,968,o),
(402,932,o),
(340,880,cs),
(270,822,o),
(196,760,o),
(196,634,cs),
(196,368,ls),
(196,136,o),
(350,-14,o),
(582,-14,cs)
);
}
);
width = 1170;
},
{
anchors = (
{
name = bottom;
pos = (1006,0);
},
{
name = top;
pos = (1020,1202);
}
);
layerId = "C698F293-3EC0-4A5A-A3A0-0FDB1F5CF265";
shapes = (
{
closed = 1;
nodes = (
(854,-24,o),
(1020,126,o),
(1020,362,cs),
(1020,586,ls),
(1020,716,o),
(968,804,o),
(874,832,c),
(874,842,l),
(980,874,o),
(1042,968,o),
(1042,1102,cs),
(1042,1202,l),
(870,1202,l),
(870,1102,ls),
(870,976,o),
(808,906,o),
(698,906,cs),
(662,906,l),
(662,768,l),
(690,768,ls),
(788,768,o),
(844,704,o),
(844,586,cs),
(844,384,ls),
(844,230,o),
(746,130,o),
(592,130,cs),
(438,130,o),
(338,230,o),
(338,384,cs),
(338,504,ls),
(338,590,o),
(372,660,o),
(440,724,cs),
(532,804,o),
(568,880,o),
(568,1000,cs),
(568,1202,l),
(410,1202,l),
(410,1182,ls),
(410,1116,o),
(364,1066,o),
(306,1066,cs),
(252,1066,o),
(216,1110,o),
(216,1172,cs),
(216,1202,l),
(54,1202,l),
(54,1146,ls),
(54,1006,o),
(118,926,o),
(228,926,cs),
(284,926,o),
(338,950,o),
(384,992,c),
(396,992,l),
(396,916,o),
(368,862,o),
(302,814,cs),
(198,728,o),
(162,654,o),
(162,512,cs),
(162,362,ls),
(162,126,o),
(330,-24,o),
(592,-24,cs)
);
}
);
width = 1190;
},
{
anchors = (
{
name = bottom;
pos = (1248,0);
},
{
name = top;
pos = (1270,1202);
}
);
layerId = "5C20EF92-B63D-42A8-8878-93C2863E0093";
shapes = (
{
closed = 1;
nodes = (
(1056,-22,o),
(1278,166,o),
(1278,454,cs),
(1278,616,ls),
(1278,726,o),
(1226,800,o),
(1132,824,c),
(1132,836,l),
(1238,862,o),
(1298,942,o),
(1298,1058,cs),
(1298,1202,l),
(904,1202,l),
(904,1058,ls),
(904,994,o),
(870,958,o),
(808,958,cs),
(798,958,l),
(798,702,l),
(816,702,ls),
(860,702,o),
(886,670,o),
(886,616,cs),
(886,464,ls),
(886,344,o),
(826,280,o),
(718,280,cs),
(608,280,o),
(552,344,o),
(552,464,cs),
(552,566,ls),
(552,646,o),
(570,696,o),
(634,774,cs),
(702,854,o),
(724,912,o),
(724,1006,cs),
(724,1202,l),
(442,1202,l),
(442,1186,ls),
(442,1140,o),
(412,1110,o),
(370,1110,cs),
(330,1110,o),
(306,1138,o),
(306,1182,cs),
(306,1202,l),
(58,1202,l),
(58,1094,ls),
(58,968,o),
(124,894,o),
(236,894,cs),
(292,894,o),
(348,914,o),
(382,950,c),
(392,950,l),
(392,906,o),
(370,874,o),
(300,818,cs),
(194,730,o),
(154,658,o),
(154,552,cs),
(154,454,ls),
(154,166,o),
(376,-22,o),
(718,-22,cs)
);
}
);
width = 1372;
}
);
metricRight = "choChang-thai";
unicode = 3595;
}
{
glyphname = "choChoe-thai";
layers = (
{
anchors = (
{
name = bottom;
pos = (1690,0);
},
{
name = top;
pos = (1704,1202);
}
);
layerId = "B1F27B51-9973-4381-9301-4FE46FE1CA59";
shapes = (
{
closed = 1;
nodes = (
(1554,-14,o),
(1704,146,o),
(1704,380,cs),
(1704,1202,l),
(1658,1202,l),
(1658,380,ls),
(1658,170,o),
(1528,30,o),
(1330,30,cs),
(1132,30,o),
(990,174,o),
(990,376,cs),
(990,814,ls),
(990,1058,o),
(828,1218,o),
(584,1218,cs),
(338,1218,o),
(174,1056,o),
(174,814,cs),
(174,780,l),
(350,762,l),
(350,756,l),
(262,722,o),
(220,646,o),
(220,514,cs),
(220,246,ls),
(220,94,o),
(322,-10,o),
(468,-10,cs),
(502,-10,o),
(536,-4,o),
(562,8,c),
(552,48,l),
(528,38,o),
(500,34,o),
(472,34,cs),
(350,34,o),
(266,120,o),
(266,246,cs),
(266,518,ls),
(266,686,o),
(344,762,o),
(496,746,cs),
(536,742,l),
(536,784,l),
(200,822,l),
(222,786,l),
(222,814,ls),
(222,1034,o),
(362,1174,o),
(584,1174,cs),
(804,1174,o),
(942,1036,o),
(942,814,cs),
(942,0,l),
(990,0,l),
(990,186,l),
(994,186,l),
(1050,62,o),
(1180,-14,o),
(1332,-14,cs)
);
}
);
width = 1914;
},
{
anchors = (
{
name = bottom;
pos = (1846,0);
},
{
name = top;
pos = (1860,1202);
}
);
layerId = "C698F293-3EC0-4A5A-A3A0-0FDB1F5CF265";
shapes = (
{
closed = 1;
nodes = (
(1716,-14,o),
(1860,176,o),
(1860,490,cs),
(1860,1202,l),
(1684,1202,l),
(1684,502,ls),
(1684,294,o),
(1578,146,o),
(1426,146,cs),
(1254,146,o),
(1122,300,o),
(1122,500,cs),
(1122,798,ls),
(1122,1060,o),
(932,1226,o),
(630,1226,cs),
(324,1226,o),
(128,1050,o),
(128,774,cs),
(128,718,l),
(330,688,l),
(330,676,l),
(228,646,o),
(174,556,o),
(174,420,cs),
(174,288,ls),
(174,94,o),
(278,-14,o),
(466,-14,cs),
(512,-14,o),
(552,-8,o),
(594,6,c),
(562,152,l),
(536,144,o),
(512,140,o),
(488,140,cs),
(392,140,o),
(346,196,o),
(346,314,cs),
(346,440,ls),
(346,586,o),
(406,670,o),
(498,656,cs),
(566,646,l),
(566,786,l),
(254,832,l),
(300,718,l),
(300,760,ls),
(300,952,o),
(428,1072,o),
(628,1072,cs),
(822,1072,o),
(946,960,o),
(946,784,cs),
(946,0,l),
(1122,0,l),
(1122,208,l),
(1134,208,l),
(1200,66,o),
(1324,-14,o),
(1478,-14,cs)
);
}
);
width = 2024;
},
{
anchors = (
{
name = bottom;
pos = (1904,0);
},
{
name = top;
pos = (1918,1202);
}
);
layerId = "5C20EF92-B63D-42A8-8878-93C2863E0093";
shapes = (
{
closed = 1;
nodes = (
(1766,-14,o),
(1918,142,o),
(1918,384,cs),
(1918,1202,l),
(1516,1202,l),
(1516,488,ls),
(1516,376,o),
(1458,312,o),
(1362,312,cs),
(1264,312,o),
(1206,376,o),
(1206,488,cs),
(1206,744,ls),
(1206,1054,o),
(1008,1226,o),
(648,1226,cs),
(282,1226,o),
(72,1044,o),
(72,734,cs),
(72,654,l),
(278,654,l),
(278,642,l),
(158,600,o),
(100,512,o),
(100,374,cs),
(100,328,ls),
(100,106,o),
(226,-12,o),
(466,-12,cs),
(544,-12,o),
(624,0,o),
(704,24,c),
(646,306,l),
(622,300,o),
(588,296,o),
(568,296,cs),
(516,296,o),
(492,318,o),
(492,366,cs),
(492,434,ls),
(492,496,o),
(522,528,o),
(584,528,cs),
(626,528,l),
(626,746,l),
(366,746,l),
(456,676,l),
(456,734,ls),
(456,860,o),
(520,928,o),
(642,928,cs),
(756,928,o),
(822,868,o),
(822,764,cs),
(822,0,l),
(1184,0,l),
(1184,212,l),
(1196,212,l),
(1240,70,o),
(1370,-14,o),
(1540,-14,cs)
);
}
);
width = 2022;
}
);
metricLeft = "thoThung-thai";
metricRight = "moMa-thai";
unicode = 3596;
}
{
glyphname = "yoYing-thai";
layers = (
{
anchors = (
{
name = bottom;
pos = (1690,-338);
},
{
name = top;
pos = (1704,1202);
}
);
layerId = "B1F27B51-9973-4381-9301-4FE46FE1CA59";
shapes = (
{
closed = 1;
nodes = (
(1544,-352,o),
(1704,-210,o),
(1704,8,cs),
(1704,1202,l),
(1658,1202,l),
(1658,404,ls),
(1658,202,o),
(1516,58,o),
(1318,58,cs),
(1120,58,o),
(990,198,o),
(990,408,cs),
(990,814,ls),
(990,1058,o),
(828,1218,o),
(584,1218,cs),
(338,1218,o),
(174,1056,o),
(174,814,cs),
(174,780,l),
(350,762,l),
(350,756,l),
(262,722,o),
(220,646,o),
(220,514,cs),
(220,246,ls),
(220,94,o),
(322,-10,o),
(468,-10,cs),
(502,-10,o),
(536,-4,o),
(562,8,c),
(552,48,l),
(528,38,o),
(500,34,o),
(472,34,cs),
(350,34,o),
(266,120,o),
(266,246,cs),
(266,518,ls),
(266,686,o),
(344,762,o),
(496,746,cs),
(536,742,l),
(536,784,l),
(200,822,l),
(222,786,l),
(222,814,ls),
(222,1034,o),
(362,1174,o),
(584,1174,cs),
(804,1174,o),
(942,1036,o),
(942,814,cs),
(942,408,ls),
(942,174,o),
(1094,14,o),
(1316,14,cs),
(1468,14,o),
(1596,92,o),
(1652,216,c),
(1658,216,l),
(1658,8,ls),
(1658,-186,o),
(1518,-308,o),
(1296,-308,cs),
(1168,-308,o),
(1060,-268,o),
(994,-190,c),
(962,-220,l),
(1034,-306,o),
(1154,-352,o),
(1296,-352,cs)
);
}
);
width = 1922;
},
{
anchors = (
{
name = bottom;
pos = (1846,-418);
},
{
name = top;
pos = (1860,1202);
}
);
layerId = "C698F293-3EC0-4A5A-A3A0-0FDB1F5CF265";
shapes = (
{
closed = 1;
nodes = (
(1702,-434,o),
(1860,-288,o),
(1860,-24,cs),
(1860,1202,l),
(1684,1202,l),
(1684,514,ls),
(1684,314,o),
(1552,162,o),
(1380,162,cs),
(1228,162,o),
(1122,302,o),
(1122,502,cs),
(1122,798,ls),
(1122,1060,o),
(932,1226,o),
(630,1226,cs),
(324,1226,o),
(128,1050,o),
(128,774,cs),
(128,718,l),
(330,688,l),
(330,676,l),
(228,646,o),
(174,556,o),
(174,420,cs),
(174,288,ls),
(174,94,o),
(278,-14,o),
(466,-14,cs),
(512,-14,o),
(554,-8,o),
(594,6,c),
(562,152,l),
(538,144,o),
(512,140,o),
(488,140,cs),
(392,140,o),
(346,196,o),
(346,314,cs),
(346,440,ls),
(346,586,o),
(406,670,o),
(498,656,cs),
(566,646,l),
(566,786,l),
(254,832,l),
(300,718,l),
(300,760,ls),
(300,952,o),
(428,1072,o),
(628,1072,cs),
(822,1072,o),
(946,960,o),
(946,784,cs),
(946,490,ls),
(946,184,o),
(1088,0,o),
(1328,0,cs),
(1482,0,o),
(1606,80,o),
(1672,222,c),
(1684,222,l),
(1684,-12,ls),
(1684,-186,o),
(1584,-286,o),
(1408,-286,cs),
(1276,-286,o),
(1170,-228,o),
(1100,-120,c),
(962,-216,l),
(1044,-358,o),
(1206,-434,o),
(1414,-434,cs)
);
}
);
width = 2030;
},
{
anchors = (
{
name = bottom;
pos = (1904,-428);
},
{
name = top;
pos = (1918,1202);
}
);
layerId = "5C20EF92-B63D-42A8-8878-93C2863E0093";
shapes = (
{
closed = 1;
nodes = (
(1696,-442,o),
(1918,-270,o),
(1918,2,cs),
(1918,1202,l),
(1516,1202,l),
(1516,518,ls),
(1516,406,o),
(1456,342,o),
(1358,342,cs),
(1262,342,o),
(1206,406,o),
(1206,518,cs),
(1206,744,ls),
(1206,1054,o),
(1008,1226,o),
(648,1226,cs),
(282,1226,o),
(72,1044,o),
(72,734,cs),
(72,654,l),
(264,654,l),
(264,642,l),
(144,600,o),
(86,512,o),
(86,374,cs),
(86,324,ls),
(86,102,o),
(214,-14,o),
(456,-14,cs),
(532,-14,o),
(612,-4,o),
(696,18,c),
(638,304,l),
(614,298,o),
(580,292,o),
(560,292,cs),
(508,292,o),
(484,314,o),
(484,362,cs),
(484,434,ls),
(484,496,o),
(516,528,o),
(578,528,cs),
(626,528,l),
(626,746,l),
(358,746,l),
(456,676,l),
(456,734,ls),
(456,860,o),
(520,928,o),
(642,928,cs),
(756,928,o),
(822,868,o),
(822,764,cs),
(822,414,ls),
(822,174,o),
(968,14,o),
(1192,14,cs),
(1356,14,o),
(1480,98,o),
(1524,242,c),
(1536,242,l),
(1536,2,ls),
(1536,-112,o),
(1478,-172,o),
(1368,-172,cs),
(1282,-172,o),
(1224,-134,o),
(1210,-72,c),
(824,-72,l),
(840,-296,o),
(1048,-442,o),
(1354,-442,cs)
);
}
);
width = 2030;
}
);
metricLeft = "thoThung-thai";
unicode = 3597;
}
{
glyphname = "doChada-thai";
layers = (
{
anchors = (
{
name = bottom;
pos = (1020,-338);
},
{
name = top;
pos = (1006,1202);
}
);
layerId = "B1F27B51-9973-4381-9301-4FE46FE1CA59";
shapes = (
{
closed = 1;
nodes = (
(328,-216,o),
(426,-162,o),
(566,-162,cs),
(704,-162,o),
(844,-224,o),
(968,-338,c),
(1020,-338,l),
(1020,814,ls),
(1020,1060,o),
(850,1218,o),
(590,1218,cs),
(328,1218,o),
(154,1058,o),
(154,816,cs),
(154,784,l),
(372,760,l),
(372,754,l),
(286,720,o),
(248,644,o),
(248,512,cs),
(248,180,ls),
(248,92,o),
(210,44,o),
(142,44,cs),
(70,44,l),
(70,0,l),
(142,0,ls),
(240,0,o),
(296,68,o),
(296,184,cs),
(296,516,ls),
(296,684,o),
(370,760,o),
(520,744,cs),
(540,742,l),
(540,784,l),
(180,824,l),
(202,788,l),
(202,816,ls),
(202,1034,o),
(354,1174,o),
(590,1174,cs),
(826,1174,o),
(974,1036,o),
(974,814,cs),
(974,-288,l),
(970,-288,l),
(864,-182,o),
(714,-118,o),
(568,-118,cs),
(412,-118,o),
(294,-184,o),
(206,-318,c),
(242,-342,l)
);
}
);
width = 1230;
},
{
anchors = (
{
name = bottom;
pos = (1128,-482);
},
{
name = top;
pos = (1112,1202);
}
);
layerId = "C698F293-3EC0-4A5A-A3A0-0FDB1F5CF265";
shapes = (
{
closed = 1;
nodes = (
(358,-360,o),
(462,-290,o),
(600,-290,cs),
(736,-290,o),
(852,-358,o),
(922,-482,c),
(1128,-482,l),
(1128,798,ls),
(1128,1060,o),
(936,1226,o),
(634,1226,cs),
(328,1226,o),
(134,1050,o),
(134,774,cs),
(134,718,l),
(344,688,l),
(344,676,l),
(246,648,o),
(194,556,o),
(194,420,cs),
(194,290,ls),
(194,200,o),
(152,154,o),
(70,154,cs),
(38,154,l),
(38,0,l),
(72,0,ls),
(270,0,o),
(366,88,o),
(366,272,cs),
(366,440,ls),
(366,594,o),
(418,670,o),
(510,656,cs),
(568,648,l),
(568,786,l),
(260,832,l),
(306,718,l),
(306,760,ls),
(306,952,o),
(434,1072,o),
(634,1072,cs),
(828,1072,o),
(952,960,o),
(952,784,cs),
(952,-328,l),
(940,-328,l),
(862,-208,o),
(734,-142,o),
(574,-142,cs),
(372,-142,o),
(218,-248,o),
(146,-438,c),
(310,-488,l)
);
}
);
width = 1292;
},
{
anchors = (
{
name = bottom;
pos = (1254,-482);
},
{
name = top;
pos = (1240,1202);
}
);
layerId = "5C20EF92-B63D-42A8-8878-93C2863E0093";
shapes = (
{
closed = 1;
nodes = (
(544,-418,o),
(596,-384,o),
(670,-384,cs),
(744,-384,o),
(808,-418,o),
(852,-482,c),
(1254,-482,l),
(1254,744,ls),
(1254,1056,o),
(1046,1226,o),
(674,1226,cs),
(296,1226,o),
(86,1050,o),
(86,734,cs),
(86,654,l),
(328,654,l),
(328,642,l),
(218,604,o),
(166,530,o),
(166,410,cs),
(166,366,ls),
(166,318,o),
(142,296,o),
(90,296,cs),
(40,296,l),
(40,0,l),
(210,0,ls),
(440,0,o),
(550,94,o),
(550,292,cs),
(550,434,ls),
(550,496,o),
(580,528,o),
(642,528,cs),
(664,528,l),
(664,746,l),
(386,746,l),
(478,676,l),
(478,734,ls),
(478,862,o),
(542,928,o),
(668,928,cs),
(786,928,o),
(850,870,o),
(850,764,cs),
(850,-194,l),
(842,-194,l),
(768,-122,o),
(664,-84,o),
(546,-84,cs),
(314,-84,o),
(168,-230,o),
(150,-482,c),
(524,-482,l)
);
}
);
width = 1358;
}
);
metricLeft = "phoSamphao-thai";
metricRight = "phoSamphao-thai";
unicode = 3598;
}
{
glyphname = "thoThan-thai";
layers = (
{
anchors = (
{
name = bottom;
pos = (918,-352);
},
{
name = top;
pos = (936,1202);
}
);
layerId = "B1F27B51-9973-4381-9301-4FE46FE1CA59";
shapes = (
{
closed = 1;
nodes = (
(494,0,ls),
(774,0,o),
(958,250,o),
(958,634,cs),
(958,840,o),
(906,1000,o),
(806,1100,c),
(822,1082,l),
(744,1170,o),
(634,1218,o),
(504,1218,cs),
(270,1218,o),
(96,1070,o),
(64,844,c),
(112,844,l),
(140,1042,o),
(296,1174,o),
(504,1174,cs),
(760,1174,o),
(910,974,o),
(910,634,cs),
(910,276,o),
(746,42,o),
(494,42,cs),
(416,42,l),
(446,12,l),
(446,624,l),
(190,624,l),
(190,580,l),
(430,580,l),
(400,612,l),
(400,0,l)
);
},
{
closed = 1;
nodes = (
(1064,1304,l),
(1002,1304,l),
(790,1102,l),
(814,1064,l)
);
},
{
closed = 1;
nodes = (
(442,-366,o),
(526,-294,o),
(548,-178,c),
(550,-178,l),
(866,-352,l),
(918,-352,l),
(918,-102,l),
(872,-102,l),
(872,-306,l),
(868,-306,l),
(546,-130,l),
(510,-130,l),
(510,-240,o),
(434,-322,o),
(336,-322,cs),
(254,-322,o),
(192,-264,o),
(170,-168,c),
(126,-184,l),
(154,-296,o),
(234,-366,o),
(336,-366,cs)
);
}
);
width = 1112;
},
{
anchors = (
{
name = bottom;
pos = (1028,-454);
},
{
name = top;
pos = (1000,1202);
}
);
layerId = "C698F293-3EC0-4A5A-A3A0-0FDB1F5CF265";
shapes = (
{
closed = 1;
nodes = (
(574,0,ls),
(876,0,o),
(1058,236,o),
(1058,626,cs),
(1058,890,o),
(974,1068,o),
(824,1128,c),
(894,1068,l),
(826,1172,o),
(704,1226,o),
(546,1226,cs),
(280,1226,o),
(88,1068,o),
(58,822,c),
(232,822,l),
(260,976,o),
(384,1072,o),
(552,1072,cs),
(766,1072,o),
(878,918,o),
(878,626,cs),
(878,328,o),
(764,152,o),
(574,152,cs),
(436,152,l),
(510,50,l),
(510,646,l),
(178,646,l),
(178,498,l),
(392,498,l),
(340,552,l),
(340,0,l)
);
},
{
closed = 1;
nodes = (
(1106,1270,l),
(908,1270,l),
(724,1066,l),
(868,1008,l)
);
},
{
closed = 1;
nodes = (
(466,-468,o),
(544,-414,o),
(592,-314,c),
(602,-314,l),
(846,-454,l),
(1028,-454,l),
(1028,-88,l),
(874,-88,l),
(874,-288,l),
(862,-288,l),
(608,-140,l),
(526,-140,l),
(476,-282,o),
(442,-326,o),
(376,-326,cs),
(306,-326,o),
(268,-272,o),
(236,-134,c),
(94,-178,l),
(136,-364,o),
(234,-468,o),
(368,-468,cs)
);
}
);
width = 1184;
},
{
anchors = (
{
name = bottom;
pos = (1154,-482);
},
{
name = top;
pos = (1154,1202);
}
);
layerId = "5C20EF92-B63D-42A8-8878-93C2863E0093";
shapes = (
{
closed = 1;
nodes = (
(594,0,ls),
(960,0,o),
(1184,230,o),
(1184,604,cs),
(1184,844,o),
(1090,1008,o),
(916,1064,c),
(1036,984,l),
(936,1144,o),
(782,1226,o),
(580,1226,cs),
(276,1226,o),
(56,1044,o),
(38,778,c),
(436,778,l),
(448,862,o),
(508,914,o),
(592,914,cs),
(712,914,o),
(774,812,o),
(774,616,cs),
(774,414,o),
(706,290,o),
(596,290,cs),
(464,290,l),
(572,118,l),
(572,668,l),
(102,668,l),
(102,414,l),
(268,414,l),
(208,478,l),
(208,0,l)
);
},
{
closed = 1;
nodes = (
(1294,1262,l),
(964,1262,l),
(808,1054,l),
(1012,850,l)
);
},
{
closed = 1;
nodes = (
(480,-498,o),
(560,-458,o),
(624,-368,c),
(634,-368,l),
(768,-482,l),
(1154,-482,l),
(1154,-68,l),
(810,-68,l),
(810,-222,l),
(798,-222,l),
(684,-124,l),
(558,-124,l),
(558,-182,o),
(532,-216,o),
(488,-216,cs),
(444,-216,o),
(420,-182,o),
(420,-124,c),
(58,-124,l),
(58,-364,o),
(168,-498,o),
(368,-498,cs)
);
}
);
width = 1260;
}
);
unicode = 3600;
}
{
glyphname = "thoNangmontho-thai";
layers = (
{
anchors = (
{
name = bottom;
pos = (994,0);
},
{
name = top;
pos = (986,1202);
}
);
layerId = "B1F27B51-9973-4381-9301-4FE46FE1CA59";
shapes = (
{
closed = 1;
nodes = (
(248,0,l),
(248,606,ls),
(248,698,o),
(274,748,o),
(370,844,cs),
(592,1066,ls),
(656,1130,o),
(724,1166,o),
(790,1166,cs),
(884,1166,o),
(946,1096,o),
(946,992,cs),
(946,0,l),
(994,0,l),
(994,992,ls),
(994,1126,o),
(916,1210,o),
(790,1210,cs),
(710,1210,o),
(640,1174,o),
(568,1102,cs),
(510,1046,l),
(504,1046,l),
(504,1202,l),
(458,1202,l),
(458,1174,ls),
(458,1094,o),
(398,1030,o),
(316,1030,cs),
(242,1030,o),
(192,1082,o),
(192,1160,cs),
(192,1202,l),
(146,1202,l),
(146,1160,ls),
(146,1062,o),
(216,986,o),
(310,986,cs),
(368,986,o),
(414,1014,o),
(454,1070,c),
(458,1070,l),
(458,1010,o),
(434,968,o),
(344,880,cs),
(232,770,o),
(200,710,o),
(200,606,cs),
(200,0,l)
);
}
);
width = 1210;
},
{
anchors = (
{
name = bottom;
pos = (1130,0);
},
{
name = top;
pos = (1122,1202);
}
);
layerId = "C698F293-3EC0-4A5A-A3A0-0FDB1F5CF265";
shapes = (
{
closed = 1;
nodes = (
(354,0,l),
(354,478,ls),
(354,572,o),
(384,638,o),
(466,720,cs),
(736,990,ls),
(788,1042,o),
(828,1064,o),
(870,1064,cs),
(926,1064,o),
(954,1024,o),
(954,944,cs),
(954,0,l),
(1130,0,l),
(1130,954,ls),
(1130,1116,o),
(1040,1218,o),
(902,1218,cs),
(806,1218,o),
(734,1184,o),
(646,1096,cs),
(584,1034,l),
(572,1034,l),
(572,1202,l),
(424,1202,l),
(424,1182,ls),
(424,1116,o),
(378,1066,o),
(320,1066,cs),
(266,1066,o),
(230,1110,o),
(230,1172,cs),
(230,1202,l),
(68,1202,l),
(68,1146,ls),
(68,1008,o),
(134,926,o),
(242,926,cs),
(298,926,o),
(352,950,o),
(398,992,c),
(410,992,l),
(410,896,o),
(390,852,o),
(316,786,cs),
(212,694,o),
(178,616,o),
(178,478,cs),
(178,0,l)
);
}
);
width = 1300;
},
{
anchors = (
{
name = bottom;
pos = (1318,0);
},
{
name = top;
pos = (1310,1202);
}
);
layerId = "5C20EF92-B63D-42A8-8878-93C2863E0093";
shapes = (
{
closed = 1;
nodes = (
(558,0,l),
(558,544,ls),
(558,610,o),
(568,644,o),
(604,684,cs),
(712,800,ls),
(766,858,o),
(792,876,o),
(830,876,cs),
(886,876,o),
(914,834,o),
(914,756,cs),
(914,0,l),
(1318,0,l),
(1318,848,ls),
(1318,1086,o),
(1212,1218,o),
(1024,1218,cs),
(922,1218,o),
(842,1178,o),
(766,1096,cs),
(722,1048,l),
(710,1048,l),
(710,1202,l),
(450,1202,l),
(450,1186,ls),
(450,1140,o),
(420,1110,o),
(378,1110,cs),
(338,1110,o),
(312,1138,o),
(312,1182,cs),
(312,1202,l),
(58,1202,l),
(58,1094,ls),
(58,968,o),
(124,894,o),
(236,894,cs),
(292,894,o),
(348,914,o),
(382,950,c),
(392,950,l),
(392,904,o),
(374,878,o),
(286,798,cs),
(188,708,o),
(154,646,o),
(154,546,cs),
(154,0,l)
);
}
);
width = 1422;
}
);
unicode = 3601;
}
{
glyphname = "thoPhuthao-thai";
layers = (
{
anchors = (
{
name = bottom;
pos = (1710,0);
},
{
name = top;
pos = (1726,1202);
}
);
layerId = "B1F27B51-9973-4381-9301-4FE46FE1CA59";
shapes = (
{
closed = 1;
nodes = (
(618,-14,o),
(662,-8,o),
(706,8,c),
(690,50,l),
(652,36,o),
(612,30,o),
(570,30,cs),
(330,30,o),
(178,256,o),
(178,614,cs),
(178,922,o),
(290,1144,o),
(456,1174,c),
(428,1180,l),
(610,1024,l),
(622,1024,l),
(804,1180,l),
(774,1174,l),
(896,1152,o),
(962,1054,o),
(962,900,cs),
(962,0,l),
(1010,0,l),
(1010,186,l),
(1016,186,l),
(1072,62,o),
(1200,-14,o),
(1352,-14,cs),
(1574,-14,o),
(1726,146,o),
(1726,380,cs),
(1726,1202,l),
(1678,1202,l),
(1678,380,ls),
(1678,170,o),
(1548,30,o),
(1350,30,cs),
(1152,30,o),
(1010,174,o),
(1010,376,cs),
(1010,900,ls),
(1010,1074,o),
(928,1188,o),
(782,1218,c),
(618,1078,l),
(614,1078,l),
(450,1218,l),
(256,1184,o),
(130,948,o),
(130,614,cs),
(130,230,o),
(302,-14,o),
(570,-14,cs)
);
}
);
width = 1936;
},
{
anchors = (
{
name = bottom;
pos = (1848,0);
},
{
name = top;
pos = (1862,1202);
}
);
layerId = "C698F293-3EC0-4A5A-A3A0-0FDB1F5CF265";
shapes = (
{
closed = 1;
nodes = (
(652,-14,o),
(712,-6,o),
(766,10,c),
(738,158,l),
(702,146,o),
(666,140,o),
(626,140,cs),
(410,140,o),
(276,314,o),
(276,602,cs),
(276,858,o),
(372,1054,o),
(496,1052,c),
(392,1094,l),
(618,934,l),
(666,934,l),
(892,1094,l),
(774,1052,l),
(878,1058,o),
(946,972,o),
(946,834,cs),
(946,0,l),
(1122,0,l),
(1122,208,l),
(1134,208,l),
(1200,66,o),
(1324,-14,o),
(1480,-14,cs),
(1718,-14,o),
(1862,176,o),
(1862,490,cs),
(1862,1202,l),
(1686,1202,l),
(1686,502,ls),
(1686,292,o),
(1578,146,o),
(1426,146,cs),
(1254,146,o),
(1122,300,o),
(1122,500,cs),
(1122,814,ls),
(1122,1022,o),
(1020,1168,o),
(838,1218,c),
(648,1078,l),
(636,1078,l),
(448,1218,l),
(230,1160,o),
(98,928,o),
(98,602,cs),
(98,222,o),
(288,-14,o),
(594,-14,cs)
);
}
);
width = 2026;
},
{
anchors = (
{
name = bottom;
pos = (1912,0);
},
{
name = top;
pos = (1926,1202);
}
);
layerId = "5C20EF92-B63D-42A8-8878-93C2863E0093";
shapes = (
{
closed = 1;
nodes = (
(608,-14,o),
(676,-4,o),
(736,14,c),
(736,308,l),
(714,298,o),
(682,290,o),
(652,290,cs),
(532,290,o),
(468,394,o),
(468,598,cs),
(468,778,o),
(518,892,o),
(606,922,c),
(554,930,l),
(664,836,l),
(682,836,l),
(798,932,l),
(740,916,l),
(802,908,o),
(830,868,o),
(830,798,cs),
(830,0,l),
(1192,0,l),
(1192,212,l),
(1206,212,l),
(1250,70,o),
(1378,-14,o),
(1548,-14,cs),
(1774,-14,o),
(1926,142,o),
(1926,384,cs),
(1926,1202,l),
(1522,1202,l),
(1522,488,ls),
(1522,376,o),
(1466,312,o),
(1370,312,cs),
(1272,312,o),
(1214,376,o),
(1214,488,cs),
(1214,802,ls),
(1214,1050,o),
(1090,1188,o),
(828,1226,c),
(670,1110,l),
(658,1110,l),
(500,1226,l),
(220,1194,o),
(58,962,o),
(58,594,cs),
(58,208,o),
(234,-14,o),
(542,-14,cs)
);
}
);
width = 2030;
}
);
metricLeft = "toTao-thai";
metricRight = "=|noNu-thai";
unicode = 3602;
}
{
glyphname = "noNen-thai";
layers = (
{
anchors = (
{
name = bottom;
pos = (1704,0);
},
{
name = top;
pos = (1704,1202);
}
);
layerId = "B1F27B51-9973-4381-9301-4FE46FE1CA59";
shapes = (
{
closed = 1;
nodes = (
(1468,-14,o),
(1596,62,o),
(1652,186,c),
(1658,186,l),
(1658,0,l),
(1704,0,l),
(1704,1202,l),
(1658,1202,l),
(1658,376,ls),
(1658,174,o),
(1516,30,o),
(1318,30,cs),
(1120,30,o),
(990,170,o),
(990,380,cs),
(990,814,ls),
(990,1058,o),
(828,1218,o),
(584,1218,cs),
(338,1218,o),
(174,1056,o),
(174,814,cs),
(174,780,l),
(350,762,l),
(350,756,l),
(262,722,o),
(220,646,o),
(220,514,cs),
(220,246,ls),
(220,94,o),
(322,-10,o),
(468,-10,cs),
(502,-10,o),
(536,-4,o),
(562,8,c),
(552,48,l),
(528,38,o),
(500,34,o),
(472,34,cs),
(350,34,o),
(266,120,o),
(266,246,cs),
(266,518,ls),
(266,686,o),
(344,762,o),
(496,746,cs),
(536,742,l),
(536,784,l),
(200,822,l),
(222,786,l),
(222,814,ls),
(222,1034,o),
(362,1174,o),
(584,1174,cs),
(804,1174,o),
(942,1036,o),
(942,814,cs),
(942,380,ls),
(942,146,o),
(1094,-14,o),
(1316,-14,cs)
);
}
);
width = 1920;
},
{
anchors = (
{
name = bottom;
pos = (1860,0);
},
{
name = top;
pos = (1860,1202);
}
);
layerId = "C698F293-3EC0-4A5A-A3A0-0FDB1F5CF265";
shapes = (
{
closed = 1;
nodes = (
(1482,-14,o),
(1606,66,o),
(1672,208,c),
(1684,208,l),
(1684,0,l),
(1860,0,l),
(1860,1202,l),
(1684,1202,l),
(1684,500,ls),
(1684,300,o),
(1552,146,o),
(1380,146,cs),
(1228,146,o),
(1122,286,o),
(1122,486,cs),
(1122,798,ls),
(1122,1060,o),
(932,1226,o),
(630,1226,cs),
(324,1226,o),
(128,1050,o),
(128,774,cs),
(128,718,l),
(330,688,l),
(330,676,l),
(228,646,o),
(174,556,o),
(174,420,cs),
(174,288,ls),
(174,94,o),
(278,-14,o),
(466,-14,cs),
(512,-14,o),
(552,-8,o),
(594,6,c),
(562,152,l),
(536,144,o),
(512,140,o),
(488,140,cs),
(392,140,o),
(346,196,o),
(346,314,cs),
(346,440,ls),
(346,586,o),
(406,670,o),
(498,656,cs),
(566,646,l),
(566,786,l),
(254,832,l),
(300,718,l),
(300,760,ls),
(300,952,o),
(428,1072,o),
(628,1072,cs),
(822,1072,o),
(946,960,o),
(946,784,cs),
(946,474,ls),
(946,168,o),
(1088,-14,o),
(1328,-14,cs)
);
}
);
width = 2030;
},
{
anchors = (
{
name = bottom;
pos = (1918,0);
},
{
name = top;
pos = (1918,1202);
}
);
layerId = "5C20EF92-B63D-42A8-8878-93C2863E0093";
shapes = (
{
closed = 1;
nodes = (
(1356,-14,o),
(1480,68,o),
(1524,212,c),
(1536,212,l),
(1536,0,l),
(1918,0,l),
(1918,1202,l),
(1516,1202,l),
(1516,488,ls),
(1516,376,o),
(1456,312,o),
(1358,312,cs),
(1262,312,o),
(1206,376,o),
(1206,488,cs),
(1206,744,ls),
(1206,1054,o),
(1008,1226,o),
(648,1226,cs),
(282,1226,o),
(72,1044,o),
(72,734,cs),
(72,654,l),
(278,654,l),
(278,642,l),
(158,600,o),
(100,512,o),
(100,374,cs),
(100,328,ls),
(100,106,o),
(226,-12,o),
(466,-12,cs),
(544,-12,o),
(624,0,o),
(704,24,c),
(646,306,l),
(622,300,o),
(588,296,o),
(568,296,cs),
(516,296,o),
(492,318,o),
(492,366,cs),
(492,434,ls),
(492,496,o),
(522,528,o),
(584,528,cs),
(626,528,l),
(626,746,l),
(366,746,l),
(456,676,l),
(456,734,ls),
(456,860,o),
(520,928,o),
(642,928,cs),
(756,928,o),
(822,868,o),
(822,764,cs),
(822,384,ls),
(822,144,o),
(968,-14,o),
(1192,-14,cs)
);
}
);
width = 2030;
}
);
metricLeft = "thoThung-thai";
metricRight = "noNu-thai";
unicode = 3603;
}
{
glyphname = "doDek-thai";
layers = (
{
anchors = (
{
name = bottom;
pos = (1016,0);
},
{
name = top;
pos = (1000,1202);
}
);
layerId = "B1F27B51-9973-4381-9301-4FE46FE1CA59";
shapes = (
{
closed = 1;
nodes = (
(618,-14,o),
(662,-8,o),
(706,8,c),
(690,50,l),
(652,36,o),
(612,30,o),
(570,30,cs),
(332,30,o),
(178,254,o),
(178,606,cs),
(178,966,o),
(338,1174,o),
(614,1174,cs),
(836,1174,o),
(968,1044,o),
(968,824,cs),
(968,0,l),
(1016,0,l),
(1016,824,ls),
(1016,1070,o),
(866,1218,o),
(614,1218,cs),
(308,1218,o),
(130,994,o),
(130,606,cs),
(130,228,o),
(304,-14,o),
(570,-14,cs)
);
}
);
width = 1226;
},
{
anchors = (
{
name = bottom;
pos = (1122,0);
},
{
name = top;
pos = (1108,1202);
}
);
layerId = "C698F293-3EC0-4A5A-A3A0-0FDB1F5CF265";
shapes = (
{
closed = 1;
nodes = (
(650,-14,o),
(704,-6,o),
(758,10,c),
(732,158,l),
(696,146,o),
(658,140,o),
(620,140,cs),
(406,140,o),
(276,312,o),
(276,594,cs),
(276,888,o),
(418,1072,o),
(644,1072,cs),
(830,1072,o),
(946,952,o),
(946,762,cs),
(946,0,l),
(1122,0,l),
(1122,756,ls),
(1122,1044,o),
(938,1226,o),
(644,1226,cs),
(308,1226,o),
(98,982,o),
(98,594,cs),
(98,218,o),
(286,-14,o),
(592,-14,cs)
);
}
);
width = 1288;
},
{
anchors = (
{
name = bottom;
pos = (1248,0);
},
{
name = top;
pos = (1234,1202);
}
);
layerId = "5C20EF92-B63D-42A8-8878-93C2863E0093";
shapes = (
{
closed = 1;
nodes = (
(610,-14,o),
(674,-6,o),
(728,10,c),
(728,306,l),
(704,296,o),
(674,290,o),
(646,290,cs),
(528,290,o),
(468,390,o),
(468,592,cs),
(468,808,o),
(540,922,o),
(676,922,cs),
(780,922,o),
(846,858,o),
(846,754,cs),
(846,0,l),
(1248,0,l),
(1248,786,ls),
(1248,1056,o),
(1034,1226,o),
(688,1226,cs),
(284,1226,o),
(58,992,o),
(58,574,cs),
(58,204,o),
(238,-14,o),
(548,-14,cs)
);
}
);
width = 1352;
}
);
unicode = 3604;
}
{
glyphname = "toTao-thai";
layers = (
{
anchors = (
{
name = bottom;
pos = (1038,0);
},
{
name = top;
pos = (1024,1202);
}
);
layerId = "B1F27B51-9973-4381-9301-4FE46FE1CA59";
shapes = (
{
closed = 1;
nodes = (
(618,-14,o),
(662,-8,o),
(706,8,c),
(690,50,l),
(652,36,o),
(612,30,o),
(570,30,cs),
(330,30,o),
(178,256,o),
(178,614,cs),
(178,922,o),
(290,1144,o),
(456,1174,c),
(428,1180,l),
(626,1024,l),
(638,1024,l),
(832,1180,l),
(802,1174,l),
(924,1152,o),
(992,1054,o),
(992,900,cs),
(992,0,l),
(1038,0,l),
(1038,900,ls),
(1038,1074,o),
(956,1188,o),
(810,1218,c),
(634,1078,l),
(628,1078,l),
(450,1218,l),
(256,1184,o),
(130,948,o),
(130,614,cs),
(130,230,o),
(302,-14,o),
(570,-14,cs)
);
}
);
width = 1256;
},
{
anchors = (
{
name = bottom;
pos = (1138,0);
},
{
name = top;
pos = (1122,1202);
}
);
layerId = "C698F293-3EC0-4A5A-A3A0-0FDB1F5CF265";
shapes = (
{
closed = 1;
nodes = (
(652,-14,o),
(710,-6,o),
(766,10,c),
(738,158,l),
(702,146,o),
(666,140,o),
(626,140,cs),
(410,140,o),
(276,314,o),
(276,602,cs),
(276,862,o),
(374,1054,o),
(502,1052,c),
(396,1094,l),
(626,934,l),
(672,934,l),
(902,1094,l),
(782,1052,l),
(892,1058,o),
(962,972,o),
(962,834,cs),
(962,0,l),
(1138,0,l),
(1138,814,ls),
(1138,1022,o),
(1034,1168,o),
(848,1218,c),
(656,1078,l),
(644,1078,l),
(452,1218,l),
(230,1160,o),
(98,930,o),
(98,602,cs),
(98,222,o),
(288,-14,o),
(594,-14,cs)
);
}
);
width = 1304;
},
{
anchors = (
{
name = bottom;
pos = (1262,0);
},
{
name = top;
pos = (1248,1202);
}
);
layerId = "5C20EF92-B63D-42A8-8878-93C2863E0093";
shapes = (
{
closed = 1;
nodes = (
(610,-14,o),
(674,-6,o),
(728,10,c),
(728,306,l),
(704,296,o),
(674,290,o),
(646,290,cs),
(528,290,o),
(468,392,o),
(468,594,cs),
(468,782,o),
(518,898,o),
(610,924,c),
(556,924,l),
(680,836,l),
(696,836,l),
(808,916,l),
(774,916,l),
(832,906,o),
(860,868,o),
(860,798,cs),
(860,0,l),
(1262,0,l),
(1262,802,ls),
(1262,1050,o),
(1138,1188,o),
(876,1226,c),
(694,1108,l),
(682,1108,l),
(500,1226,l),
(220,1194,o),
(58,960,o),
(58,592,cs),
(58,206,o),
(236,-14,o),
(548,-14,cs)
);
}
);
width = 1368;
}
);
unicode = 3605;
}
{
glyphname = "thoThung-thai";
layers = (
{
anchors = (
{
name = bottom;
pos = (1018,0);
},
{
name = top;
pos = (1004,1202);
}
);
layerId = "B1F27B51-9973-4381-9301-4FE46FE1CA59";
shapes = (
{
closed = 1;
nodes = (
(502,-10,o),
(536,-4,o),
(562,8,c),
(552,48,l),
(528,38,o),
(500,34,o),
(472,34,cs),
(350,34,o),
(266,120,o),
(266,246,cs),
(266,518,ls),
(266,686,o),
(344,762,o),
(496,746,cs),
(536,742,l),
(536,784,l),
(200,822,l),
(222,786,l),
(222,814,ls),
(222,1034,o),
(368,1174,o),
(598,1174,cs),
(826,1174,o),
(972,1036,o),
(972,814,cs),
(972,0,l),
(1018,0,l),
(1018,814,ls),
(1018,1058,o),
(854,1218,o),
(600,1218,cs),
(344,1218,o),
(174,1056,o),
(174,814,cs),
(174,780,l),
(350,762,l),
(350,756,l),
(262,722,o),
(220,646,o),
(220,514,cs),
(220,246,ls),
(220,94,o),
(322,-10,o),
(468,-10,cs)
);
}
);
width = 1228;
},
{
anchors = (
{
name = bottom;
pos = (1136,0);
},
{
name = top;
pos = (1122,1202);
}
);
layerId = "C698F293-3EC0-4A5A-A3A0-0FDB1F5CF265";
shapes = (
{
closed = 1;
nodes = (
(512,-14,o),
(554,-8,o),
(594,6,c),
(562,152,l),
(538,144,o),
(512,140,o),
(488,140,cs),
(392,140,o),
(346,196,o),
(346,314,cs),
(346,440,ls),
(346,586,o),
(406,670,o),
(498,656,cs),
(566,646,l),
(566,786,l),
(254,832,l),
(300,718,l),
(300,760,ls),
(300,952,o),
(428,1072,o),
(634,1072,cs),
(832,1072,o),
(960,960,o),
(960,784,cs),
(960,0,l),
(1136,0,l),
(1136,798,ls),
(1136,1060,o),
(942,1226,o),
(636,1226,cs),
(326,1226,o),
(128,1050,o),
(128,774,cs),
(128,718,l),
(330,688,l),
(330,676,l),
(228,646,o),
(174,556,o),
(174,420,cs),
(174,288,ls),
(174,94,o),
(278,-14,o),
(466,-14,cs)
);
}
);
width = 1300;
},
{
anchors = (
{
name = bottom;
pos = (1254,0);
},
{
name = top;
pos = (1240,1202);
}
);
layerId = "5C20EF92-B63D-42A8-8878-93C2863E0093";
shapes = (
{
closed = 1;
nodes = (
(536,-14,o),
(616,-2,o),
(696,22,c),
(638,304,l),
(614,298,o),
(580,292,o),
(560,292,cs),
(508,292,o),
(484,314,o),
(484,362,cs),
(484,434,ls),
(484,496,o),
(516,528,o),
(578,528,cs),
(626,528,l),
(626,746,l),
(358,746,l),
(462,676,l),
(462,734,ls),
(462,862,o),
(530,928,o),
(660,928,cs),
(782,928,o),
(850,870,o),
(850,764,cs),
(850,0,l),
(1254,0,l),
(1254,744,ls),
(1254,1056,o),
(1042,1226,o),
(666,1226,cs),
(282,1226,o),
(72,1050,o),
(72,734,cs),
(72,654,l),
(264,654,l),
(264,642,l),
(144,600,o),
(86,512,o),
(86,374,cs),
(86,324,ls),
(86,102,o),
(214,-14,o),
(456,-14,cs)
);
}
);
width = 1358;
}
);
metricRight = "koKai-thai";
unicode = 3606;
}
{
glyphname = "thoThahan-thai";
layers = (
{
anchors = (
{
name = bottom;
pos = (1008,0);
},
{
name = top;
pos = (994,1202);
}
);
layerId = "B1F27B51-9973-4381-9301-4FE46FE1CA59";
shapes = (
{
closed = 1;
nodes = (
(264,0,l),
(264,828,ls),
(264,1030,o),
(412,1174,o),
(618,1174,cs),
(824,1174,o),
(962,1034,o),
(962,824,cs),
(962,0,l),
(1008,0,l),
(1008,824,ls),
(1008,1058,o),
(852,1218,o),
(620,1218,cs),
(462,1218,o),
(328,1140,o),
(270,1016,c),
(264,1016,l),
(264,1202,l),
(216,1202,l),
(216,0,l)
);
}
);
width = 1218;
},
{
anchors = (
{
name = bottom;
pos = (1122,0);
},
{
name = top;
pos = (1106,1202);
}
);
layerId = "C698F293-3EC0-4A5A-A3A0-0FDB1F5CF265";
shapes = (
{
closed = 1;
nodes = (
(346,0,l),
(346,702,ls),
(346,904,o),
(484,1056,o),
(670,1056,cs),
(832,1056,o),
(946,928,o),
(946,746,cs),
(946,0,l),
(1122,0,l),
(1122,758,ls),
(1122,1046,o),
(972,1218,o),
(724,1218,cs),
(558,1218,o),
(422,1134,o),
(358,994,c),
(346,994,l),
(346,1202,l),
(170,1202,l),
(170,0,l)
);
}
);
width = 1286;
},
{
anchors = (
{
name = bottom;
pos = (1256,0);
},
{
name = top;
pos = (1240,1202);
}
);
layerId = "5C20EF92-B63D-42A8-8878-93C2863E0093";
shapes = (
{
closed = 1;
nodes = (
(514,0,l),
(514,698,ls),
(514,816,o),
(580,890,o),
(686,890,cs),
(790,890,o),
(852,818,o),
(852,698,cs),
(852,0,l),
(1256,0,l),
(1256,782,ls),
(1256,1040,o),
(1092,1218,o),
(856,1218,cs),
(688,1218,o),
(556,1130,o),
(506,984,c),
(494,984,l),
(494,1202,l),
(112,1202,l),
(112,0,l)
);
}
);
width = 1360;
}
);
metricLeft = "=|noNu-thai";
metricRight = "=|noNu-thai";
unicode = 3607;
}
{
glyphname = "thoThong-thai";
layers = (
{
anchors = (
{
name = bottom;
pos = (946,0);
},
{
name = top;
pos = (966,1202);
}
);
layerId = "B1F27B51-9973-4381-9301-4FE46FE1CA59";
shapes = (
{
closed = 1;
nodes = (
(638,0,ls),
(858,0,o),
(996,128,o),
(996,334,cs),
(996,512,o),
(896,626,o),
(700,676,cs),
(466,734,ls),
(322,770,o),
(246,844,o),
(246,950,cs),
(246,1086,o),
(368,1172,o),
(562,1172,cs),
(752,1172,o),
(880,1094,o),
(932,948,c),
(978,962,l),
(916,1130,o),
(772,1218,o),
(562,1218,cs),
(340,1218,o),
(200,1114,o),
(200,950,cs),
(200,822,o),
(286,732,o),
(454,690,cs),
(688,632,ls),
(864,588,o),
(950,490,o),
(950,334,cs),
(950,154,o),
(830,44,o),
(638,44,cs),
(274,44,l),
(298,22,l),
(298,552,l),
(252,552,l),
(252,0,l)
);
}
);
width = 1146;
},
{
anchors = (
{
name = bottom;
pos = (1010,0);
},
{
name = top;
pos = (994,1202);
}
);
layerId = "C698F293-3EC0-4A5A-A3A0-0FDB1F5CF265";
shapes = (
{
closed = 1;
nodes = (
(640,0,ls),
(888,0,o),
(1024,126,o),
(1024,354,cs),
(1024,554,o),
(918,670,o),
(690,726,cs),
(462,782,ls),
(360,806,o),
(306,854,o),
(306,926,cs),
(306,1020,o),
(396,1080,o),
(538,1080,cs),
(682,1080,o),
(788,1016,o),
(836,904,c),
(994,950,l),
(924,1132,o),
(772,1226,o),
(544,1226,cs),
(286,1226,o),
(128,1108,o),
(128,910,cs),
(128,756,o),
(220,666,o),
(424,618,cs),
(650,564,ls),
(784,532,o),
(846,462,o),
(846,346,cs),
(846,218,o),
(772,146,o),
(642,146,cs),
(262,146,l),
(338,66,l),
(338,522,l),
(162,522,l),
(162,0,l)
);
}
);
width = 1126;
},
{
anchors = (
{
name = bottom;
pos = (1128,0);
},
{
name = top;
pos = (1128,1202);
}
);
layerId = "5C20EF92-B63D-42A8-8878-93C2863E0093";
shapes = (
{
closed = 1;
nodes = (
(728,0,ls),
(996,0,o),
(1156,142,o),
(1156,380,cs),
(1156,580,o),
(1040,712,o),
(826,754,cs),
(562,806,ls),
(486,820,o),
(450,848,o),
(450,892,cs),
(450,942,o),
(498,968,o),
(580,968,cs),
(686,968,o),
(746,922,o),
(760,830,c),
(1134,830,l),
(1124,1080,o),
(920,1226,o),
(578,1226,cs),
(254,1226,o),
(62,1092,o),
(62,868,cs),
(62,698,o),
(172,596,o),
(412,546,cs),
(648,496,ls),
(728,480,o),
(764,448,o),
(764,390,cs),
(764,326,o),
(720,290,o),
(640,290,cs),
(362,290,l),
(478,118,l),
(478,480,l),
(114,480,l),
(114,0,l)
);
}
);
width = 1214;
}
);
unicode = 3608;
}
{
glyphname = "noNu-thai";
layers = (
{
anchors = (
{
name = bottom;
pos = (1002,0);
},
{
name = top;
pos = (1002,1202);
}
);
layerId = "B1F27B51-9973-4381-9301-4FE46FE1CA59";
shapes = (
{
closed = 1;
nodes = (
(756,-14,o),
(892,62,o),
(950,186,c),
(956,186,l),
(956,0,l),
(1002,0,l),
(1002,1202,l),
(956,1202,l),
(956,376,ls),
(956,174,o),
(806,30,o),
(600,30,cs),
(394,30,o),
(258,170,o),
(258,380,cs),
(258,1202,l),
(210,1202,l),
(210,380,ls),
(210,146,o),
(366,-14,o),
(598,-14,cs)
);
}
);
width = 1218;
},
{
anchors = (
{
name = bottom;
pos = (1108,0);
},
{
name = top;
pos = (1108,1202);
}
);
layerId = "C698F293-3EC0-4A5A-A3A0-0FDB1F5CF265";
shapes = (
{
closed = 1;
nodes = (
(724,-14,o),
(854,66,o),
(920,208,c),
(932,208,l),
(932,0,l),
(1108,0,l),
(1108,1202,l),
(932,1202,l),
(932,500,ls),
(932,298,o),
(796,146,o),
(612,146,cs),
(450,146,o),
(340,274,o),
(340,458,cs),
(340,1202,l),
(164,1202,l),
(164,446,ls),
(164,156,o),
(310,-14,o),
(558,-14,cs)
);
}
);
width = 1278;
},
{
anchors = (
{
name = bottom;
pos = (1248,0);
},
{
name = top;
pos = (1248,1202);
}
);
layerId = "5C20EF92-B63D-42A8-8878-93C2863E0093";
shapes = (
{
closed = 1;
nodes = (
(672,-14,o),
(806,76,o),
(856,220,c),
(866,220,l),
(866,0,l),
(1248,0,l),
(1248,1202,l),
(846,1202,l),
(846,504,ls),
(846,386,o),
(780,312,o),
(674,312,cs),
(570,312,o),
(508,384,o),
(508,504,cs),
(508,1202,l),
(104,1202,l),
(104,420,ls),
(104,162,o),
(268,-14,o),
(504,-14,cs)
);
}
);
width = 1360;
}
);
unicode = 3609;
}
{
glyphname = "boBaimai-thai";
layers = (
{
anchors = (
{
name = bottom;
pos = (988,0);
},
{
name = top;
pos = (1002,1202);
}
);
layerId = "B1F27B51-9973-4381-9301-4FE46FE1CA59";
shapes = (
{
closed = 1;
nodes = (
(844,-14,o),
(1002,142,o),
(1002,380,cs),
(1002,1202,l),
(956,1202,l),
(956,380,ls),
(956,168,o),
(816,30,o),
(606,30,cs),
(396,30,o),
(258,168,o),
(258,380,cs),
(258,1202,l),
(210,1202,l),
(210,380,ls),
(210,142,o),
(368,-14,o),
(606,-14,cs)
);
}
);
width = 1212;
},
{
anchors = (
{
name = bottom;
pos = (1088,0);
},
{
name = top;
pos = (1102,1202);
}
);
layerId = "C698F293-3EC0-4A5A-A3A0-0FDB1F5CF265";
shapes = (
{
closed = 1;
nodes = (
(918,-24,o),
(1102,142,o),
(1102,400,cs),
(1102,1202,l),
(926,1202,l),
(926,424,ls),
(926,246,o),
(810,130,o),
(632,130,cs),
(454,130,o),
(340,246,o),
(340,424,cs),
(340,1202,l),
(164,1202,l),
(164,400,ls),
(164,142,o),
(346,-24,o),
(632,-24,cs)
);
}
);
width = 1266;
},
{
anchors = (
{
name = bottom;
pos = (1234,0);
},
{
name = top;
pos = (1248,1202);
}
);
layerId = "5C20EF92-B63D-42A8-8878-93C2863E0093";
shapes = (
{
closed = 1;
nodes = (
(1028,-22,o),
(1248,164,o),
(1248,454,cs),
(1248,1202,l),
(846,1202,l),
(846,482,ls),
(846,354,o),
(784,284,o),
(676,284,cs),
(568,284,o),
(508,354,o),
(508,482,cs),
(508,1202,l),
(104,1202,l),
(104,454,ls),
(104,164,o),
(328,-22,o),
(678,-22,cs)
);
}
);
width = 1352;
}
);
metricRight = "=|";
unicode = 3610;
}
{
glyphname = "foFa-thai";
layers = (
{
anchors = (
{
name = bottom;
pos = (1026,0);
},
{
name = top;
pos = (830,1202);
}
);
layerId = "B1F27B51-9973-4381-9301-4FE46FE1CA59";
shapes = (
{
closed = 1;
nodes = (
(272,0,l),
(616,524,l),
(624,524,l),
(970,0,l),
(1026,0,l),
(1026,1536,l),
(980,1536,l),
(980,78,l),
(974,78,l),
(644,576,l),
(596,576,l),
(268,78,l),
(260,78,l),
(260,954,ls),
(260,1090,o),
(330,1166,o),
(456,1166,cs),
(490,1166,o),
(522,1162,o),
(546,1152,c),
(558,1192,l),
(530,1202,o),
(492,1210,o),
(454,1210,cs),
(304,1210,o),
(214,1114,o),
(214,954,cs),
(214,0,l)
);
}
);
width = 1244;
},
{
anchors = (
{
name = bottom;
pos = (1178,0);
},
{
name = top;
pos = (862,1202);
}
);
layerId = "C698F293-3EC0-4A5A-A3A0-0FDB1F5CF265";
shapes = (
{
closed = 1;
nodes = (
(376,0,l),
(664,492,l),
(680,492,l),
(968,0,l),
(1178,0,l),
(1178,1566,l),
(1008,1566,l),
(1008,234,l),
(996,234,l),
(738,666,l),
(606,666,l),
(348,234,l),
(336,234,l),
(336,888,ls),
(336,1010,o),
(384,1064,o),
(494,1064,cs),
(520,1064,o),
(544,1060,o),
(568,1054,c),
(602,1198,l),
(564,1212,o),
(520,1218,o),
(472,1218,cs),
(274,1218,o),
(166,1110,o),
(166,914,cs),
(166,0,l)
);
}
);
width = 1348;
},
{
anchors = (
{
name = bottom;
pos = (1298,0);
},
{
name = top;
pos = (800,1202);
}
);
layerId = "5C20EF92-B63D-42A8-8878-93C2863E0093";
shapes = (
{
closed = 1;
nodes = (
(530,0,l),
(688,280,l),
(702,280,l),
(858,0,l),
(1298,0,l),
(1298,1676,l),
(910,1676,l),
(910,376,l),
(902,376,l),
(742,674,l),
(648,674,l),
(488,376,l),
(480,376,l),
(480,864,ls),
(480,912,o),
(504,934,o),
(554,934,cs),
(576,934,o),
(620,928,o),
(646,922,c),
(698,1182,l),
(618,1206,o),
(538,1218,o),
(460,1218,cs),
(222,1218,o),
(98,1102,o),
(98,878,cs),
(98,0,l)
);
}
);
width = 1402;
}
);
metricLeft = "phoPhung-thai";
metricRight = "phoPhung-thai";
unicode = 3613;
}
{
glyphname = "phoPhan-thai";
layers = (
{
anchors = (
{
name = bottom;
pos = (1098,0);
},
{
name = top;
pos = (1130,1202);
}
);
layerId = "B1F27B51-9973-4381-9301-4FE46FE1CA59";
shapes = (
{
closed = 1;
nodes = (
(368,0,l),
(706,1124,l),
(714,1124,l),
(1050,0,l),
(1098,0,l),
(1288,1202,l),
(1242,1202,l),
(1072,110,l),
(1062,110,l),
(736,1202,l),
(682,1202,l),
(358,110,l),
(346,110,l),
(176,1202,l),
(130,1202,l),
(320,0,l)
);
}
);
width = 1418;
},
{
anchors = (
{
name = bottom;
pos = (1198,0);
},
{
name = top;
pos = (1224,1202);
}
);
layerId = "C698F293-3EC0-4A5A-A3A0-0FDB1F5CF265";
shapes = (
{
closed = 1;
nodes = (
(504,0,l),
(754,930,l),
(772,930,l),
(1022,0,l),
(1198,0,l),
(1454,1202,l),
(1278,1202,l),
(1104,312,l),
(1092,312,l),
(854,1202,l),
(672,1202,l),
(434,312,l),
(424,312,l),
(248,1202,l),
(72,1202,l),
(328,0,l)
);
}
);
width = 1526;
},
{
anchors = (
{
name = bottom;
pos = (1450,0);
},
{
name = top;
pos = (1486,1202);
}
);
layerId = "5C20EF92-B63D-42A8-8878-93C2863E0093";
shapes = (
{
closed = 1;
nodes = (
(726,0,l),
(866,582,l),
(884,582,l),
(1024,0,l),
(1450,0,l),
(1706,1202,l),
(1312,1202,l),
(1194,464,l),
(1184,464,l),
(1016,1202,l),
(734,1202,l),
(566,464,l),
(554,464,l),
(440,1202,l),
(44,1202,l),
(298,0,l)
);
}
);
width = 1750;
}
);
metricRight = "=|";
unicode = 3614;
}
{
glyphname = "foFan-thai";
layers = (
{
anchors = (
{
name = bottom;
pos = (1086,0);
},
{
name = top;
pos = (1056,1202);
}
);
layerId = "B1F27B51-9973-4381-9301-4FE46FE1CA59";
shapes = (
{
closed = 1;
nodes = (
(370,0,l),
(698,1124,l),
(706,1124,l),
(1038,0,l),
(1086,0,l),
(1312,1536,l),
(1266,1536,l),
(1058,110,l),
(1048,110,l),
(730,1202,l),
(676,1202,l),
(360,110,l),
(348,110,l),
(178,1202,l),
(130,1202,l),
(322,0,l)
);
}
);
width = 1472;
},
{
anchors = (
{
name = bottom;
pos = (1192,0);
},
{
name = top;
pos = (1096,1202);
}
);
layerId = "C698F293-3EC0-4A5A-A3A0-0FDB1F5CF265";
shapes = (
{
closed = 1;
nodes = (
(474,0,l),
(734,938,l),
(752,938,l),
(1018,0,l),
(1192,0,l),
(1460,1566,l),
(1288,1566,l),
(1090,330,l),
(1078,330,l),
(834,1202,l),
(654,1202,l),
(408,330,l),
(398,330,l),
(248,1202,l),
(72,1202,l),
(300,0,l)
);
}
);
width = 1480;
},
{
anchors = (
{
name = bottom;
pos = (1444,0);
},
{
name = top;
pos = (1212,1202);
}
);
layerId = "5C20EF92-B63D-42A8-8878-93C2863E0093";
shapes = (
{
closed = 1;
nodes = (
(726,0,l),
(864,582,l),
(880,582,l),
(1016,0,l),
(1444,0,l),
(1776,1676,l),
(1380,1676,l),
(1188,464,l),
(1176,464,l),
(1014,1202,l),
(730,1202,l),
(566,464,l),
(554,464,l),
(440,1202,l),
(44,1202,l),
(298,0,l)
);
}
);
width = 1776;
}
);
unicode = 3615;
}
{
glyphname = "phoSamphao-thai";
layers = (
{
anchors = (
{
name = bottom;
pos = (1020,0);
},
{
name = top;
pos = (1006,1202);
}
);
layerId = "B1F27B51-9973-4381-9301-4FE46FE1CA59";
shapes = (
{
closed = 1;
nodes = (
(142,0,ls),
(240,0,o),
(296,68,o),
(296,184,cs),
(296,516,ls),
(296,684,o),
(370,760,o),
(520,744,cs),
(540,742,l),
(540,784,l),
(180,824,l),
(202,788,l),
(202,816,ls),
(202,1034,o),
(354,1174,o),
(590,1174,cs),
(826,1174,o),
(974,1036,o),
(974,814,cs),
(974,0,l),
(1020,0,l),
(1020,814,ls),
(1020,1060,o),
(850,1218,o),
(590,1218,cs),
(328,1218,o),
(154,1058,o),
(154,816,cs),
(154,784,l),
(372,760,l),
(372,754,l),
(286,720,o),
(248,644,o),
(248,512,cs),
(248,180,ls),
(248,92,o),
(210,44,o),
(142,44,cs),
(70,44,l),
(70,0,l)
);
}
);
width = 1230;
},
{
anchors = (
{
name = bottom;
pos = (1128,0);
},
{
name = top;
pos = (1112,1202);
}
);
layerId = "C698F293-3EC0-4A5A-A3A0-0FDB1F5CF265";
shapes = (
{
closed = 1;
nodes = (
(72,0,ls),
(270,0,o),
(366,88,o),
(366,272,cs),
(366,440,ls),
(366,594,o),
(418,670,o),
(510,656,cs),
(568,648,l),
(568,786,l),
(260,832,l),
(306,718,l),
(306,760,ls),
(306,952,o),
(434,1072,o),
(634,1072,cs),
(828,1072,o),
(952,960,o),
(952,784,cs),
(952,0,l),
(1128,0,l),
(1128,798,ls),
(1128,1060,o),
(936,1226,o),
(634,1226,cs),
(328,1226,o),
(134,1050,o),
(134,774,cs),
(134,718,l),
(344,688,l),
(344,676,l),
(246,648,o),
(194,558,o),
(194,420,cs),
(194,290,ls),
(194,200,o),
(152,154,o),
(70,154,cs),
(38,154,l),
(38,0,l)
);
}
);
width = 1292;
},
{
anchors = (
{
name = bottom;
pos = (1254,0);
},
{
name = top;
pos = (1240,1202);
}
);
layerId = "5C20EF92-B63D-42A8-8878-93C2863E0093";
shapes = (
{
closed = 1;
nodes = (
(210,0,ls),
(440,0,o),
(550,94,o),
(550,292,cs),
(550,434,ls),
(550,496,o),
(580,528,o),
(642,528,cs),
(664,528,l),
(664,746,l),
(386,746,l),
(478,676,l),
(478,734,ls),
(478,862,o),
(542,928,o),
(668,928,cs),
(786,928,o),
(850,870,o),
(850,764,cs),
(850,0,l),
(1254,0,l),
(1254,744,ls),
(1254,1056,o),
(1046,1226,o),
(674,1226,cs),
(296,1226,o),
(86,1050,o),
(86,734,cs),
(86,654,l),
(328,654,l),
(328,642,l),
(218,604,o),
(166,530,o),
(166,410,cs),
(166,366,ls),
(166,318,o),
(142,296,o),
(90,296,cs),
(40,296,l),
(40,0,l)
);
}
);
width = 1358;
}
);
metricRight = "koKai-thai";
unicode = 3616;
}
{
glyphname = "moMa-thai";
layers = (
{
anchors = (
{
name = bottom;
pos = (994,0);
},
{
name = top;
pos = (1008,1202);
}
);
layerId = "B1F27B51-9973-4381-9301-4FE46FE1CA59";
shapes = (
{
closed = 1;
nodes = (
(852,-14,o),
(1008,146,o),
(1008,380,cs),
(1008,1202,l),
(962,1202,l),
(962,380,ls),
(962,170,o),
(824,30,o),
(618,30,cs),
(412,30,o),
(264,174,o),
(264,376,cs),
(264,1202,l),
(216,1202,l),
(216,0,l),
(264,0,l),
(264,186,l),
(270,186,l),
(328,62,o),
(462,-14,o),
(620,-14,cs)
);
}
);
width = 1218;
},
{
anchors = (
{
name = bottom;
pos = (1100,0);
},
{
name = top;
pos = (1114,1202);
}
);
layerId = "C698F293-3EC0-4A5A-A3A0-0FDB1F5CF265";
shapes = (
{
closed = 1;
nodes = (
(968,-14,o),
(1114,162,o),
(1114,460,cs),
(1114,1202,l),
(938,1202,l),
(938,472,ls),
(938,280,o),
(826,146,o),
(666,146,cs),
(484,146,o),
(346,298,o),
(346,500,cs),
(346,1202,l),
(170,1202,l),
(170,0,l),
(346,0,l),
(346,208,l),
(358,208,l),
(424,66,o),
(556,-14,o),
(720,-14,cs)
);
}
);
width = 1278;
},
{
anchors = (
{
name = bottom;
pos = (1240,0);
},
{
name = top;
pos = (1256,1202);
}
);
layerId = "5C20EF92-B63D-42A8-8878-93C2863E0093";
shapes = (
{
closed = 1;
nodes = (
(1092,-14,o),
(1256,168,o),
(1256,432,cs),
(1256,1202,l),
(852,1202,l),
(852,516,ls),
(852,390,o),
(790,312,o),
(686,312,cs),
(580,312,o),
(514,386,o),
(514,504,cs),
(514,1202,l),
(112,1202,l),
(112,0,l),
(494,0,l),
(494,220,l),
(506,220,l),
(556,74,o),
(688,-14,o),
(856,-14,cs)
);
}
);
width = 1360;
}
);
metricLeft = "=|noNu-thai";
metricRight = "=|noNu-thai";
unicode = 3617;
}
{
glyphname = "yoYak-thai";
layers = (
{
anchors = (
{
name = bottom;
pos = (968,0);
},
{
name = top;
pos = (984,1202);
}
);
layerId = "B1F27B51-9973-4381-9301-4FE46FE1CA59";
shapes = (
{
closed = 1;
nodes = (
(826,-14,o),
(984,142,o),
(984,380,cs),
(984,1202,l),
(936,1202,l),
(936,380,ls),
(936,168,o),
(798,30,o),
(588,30,cs),
(382,30,o),
(240,164,o),
(240,362,cs),
(240,542,o),
(352,670,o),
(508,670,cs),
(618,670,l),
(618,712,l),
(486,712,ls),
(332,712,o),
(238,802,o),
(238,948,cs),
(238,1090,o),
(326,1166,o),
(486,1166,cs),
(526,1166,o),
(564,1162,o),
(592,1152,c),
(606,1192,l),
(572,1202,o),
(528,1210,o),
(482,1210,cs),
(300,1210,o),
(192,1112,o),
(192,948,cs),
(192,814,o),
(268,718,o),
(398,688,c),
(398,682,l),
(274,648,o),
(192,522,o),
(192,362,cs),
(192,138,o),
(354,-14,o),
(588,-14,cs)
);
}
);
width = 1194;
},
{
anchors = (
{
name = bottom;
pos = (1074,0);
},
{
name = top;
pos = (1088,1202);
}
);
layerId = "C698F293-3EC0-4A5A-A3A0-0FDB1F5CF265";
shapes = (
{
closed = 1;
nodes = (
(908,-24,o),
(1088,142,o),
(1088,426,cs),
(1088,1202,l),
(912,1202,l),
(912,454,ls),
(912,250,o),
(796,130,o),
(600,130,cs),
(424,130,o),
(312,230,o),
(312,386,cs),
(312,514,o),
(390,596,o),
(514,596,cs),
(702,596,l),
(702,740,l),
(508,740,ls),
(374,740,o),
(298,794,o),
(298,896,cs),
(298,1002,o),
(382,1064,o),
(532,1064,cs),
(570,1064,o),
(606,1060,o),
(640,1052,c),
(672,1198,l),
(624,1212,o),
(576,1218,o),
(514,1218,cs),
(266,1218,o),
(124,1110,o),
(124,920,cs),
(124,798,o),
(184,714,o),
(304,672,c),
(304,662,l),
(194,614,o),
(132,506,o),
(132,368,cs),
(132,126,o),
(310,-24,o),
(602,-24,cs)
);
}
);
width = 1252;
},
{
anchors = (
{
name = bottom;
pos = (1194,0);
},
{
name = top;
pos = (1208,1202);
}
);
layerId = "5C20EF92-B63D-42A8-8878-93C2863E0093";
shapes = (
{
closed = 1;
nodes = (
(992,-22,o),
(1208,160,o),
(1208,474,cs),
(1208,1202,l),
(806,1202,l),
(806,474,ls),
(806,338,o),
(742,272,o),
(614,272,cs),
(508,272,o),
(446,318,o),
(446,396,cs),
(446,466,o),
(498,504,o),
(592,504,cs),
(640,504,l),
(640,754,l),
(602,754,ls),
(524,754,o),
(476,792,o),
(476,852,cs),
(476,904,o),
(510,934,o),
(572,934,cs),
(596,934,o),
(622,930,o),
(646,920,c),
(694,1186,l),
(624,1206,o),
(538,1218,o),
(458,1218,cs),
(216,1218,o),
(74,1108,o),
(74,920,cs),
(74,792,o),
(140,704,o),
(262,666,c),
(262,652,l),
(130,620,o),
(46,508,o),
(46,362,cs),
(46,126,o),
(266,-22,o),
(612,-22,cs)
);
}
);
width = 1312;
}
);
metricRight = "boBaimai-thai";
unicode = 3618;
}
{
glyphname = "roRua-thai";
layers = (
{
anchors = (
{
name = bottom;
pos = (864,0);
},
{
name = top;
pos = (872,1202);
}
);
layerId = "B1F27B51-9973-4381-9301-4FE46FE1CA59";
shapes = (
{
closed = 1;
nodes = (
(750,-14,o),
(908,124,o),
(908,316,cs),
(908,466,o),
(814,564,o),
(640,606,cs),
(452,654,ls),
(292,694,o),
(206,776,o),
(206,904,cs),
(206,1062,o),
(338,1172,o),
(530,1172,cs),
(694,1172,o),
(806,1090,o),
(854,934,c),
(898,946,l),
(840,1124,o),
(714,1218,o),
(530,1218,cs),
(310,1218,o),
(160,1090,o),
(160,904,cs),
(160,754,o),
(256,658,o),
(440,610,cs),
(626,562,ls),
(778,522,o),
(862,440,o),
(862,316,cs),
(862,154,o),
(722,32,o),
(526,32,cs),
(348,32,o),
(224,128,o),
(190,296,c),
(146,286,l),
(186,96,o),
(326,-14,o),
(526,-14,cs)
);
}
);
width = 1038;
},
{
anchors = (
{
name = bottom;
pos = (944,0);
},
{
name = top;
pos = (960,1202);
}
);
layerId = "C698F293-3EC0-4A5A-A3A0-0FDB1F5CF265";
shapes = (
{
closed = 1;
nodes = (
(802,-24,o),
(974,116,o),
(974,330,cs),
(974,496,o),
(870,616,o),
(684,662,cs),
(486,710,ls),
(360,742,o),
(298,804,o),
(298,894,cs),
(298,1004,o),
(394,1080,o),
(534,1080,cs),
(662,1080,o),
(762,1016,o),
(806,904,c),
(966,950,l),
(900,1124,o),
(740,1226,o),
(534,1226,cs),
(292,1226,o),
(122,1086,o),
(122,886,cs),
(122,724,o),
(232,606,o),
(422,560,cs),
(608,514,ls),
(730,484,o),
(796,416,o),
(796,318,cs),
(796,200,o),
(702,130,o),
(544,130,cs),
(394,130,o),
(304,192,o),
(274,316,c),
(108,274,l),
(148,84,o),
(304,-24,o),
(538,-24,cs)
);
}
);
width = 1076;
},
{
anchors = (
{
name = bottom;
pos = (1056,0);
},
{
name = top;
pos = (1100,1202);
}
);
layerId = "5C20EF92-B63D-42A8-8878-93C2863E0093";
shapes = (
{
closed = 1;
nodes = (
(908,-22,o),
(1114,138,o),
(1114,384,cs),
(1114,568,o),
(1000,684,o),
(786,724,cs),
(570,764,ls),
(508,774,o),
(478,804,o),
(478,852,cs),
(478,906,o),
(520,940,o),
(586,940,cs),
(664,940,o),
(712,894,o),
(718,814,c),
(1090,814,l),
(1080,1074,o),
(890,1226,o),
(576,1226,cs),
(266,1226,o),
(80,1078,o),
(82,834,cs),
(82,646,o),
(194,530,o),
(412,482,cs),
(600,440,ls),
(678,422,o),
(712,398,o),
(712,352,cs),
(712,300,o),
(668,266,o),
(598,266,cs),
(518,266,o),
(464,312,o),
(454,390,c),
(58,390,l),
(80,136,o),
(284,-22,o),
(590,-22,cs)
);
}
);
width = 1172;
}
);
unicode = 3619;
}
{
glyphname = "loLing-thai";
layers = (
{
anchors = (
{
name = bottom;
pos = (936,0);
},
{
name = top;
pos = (922,1202);
}
);
layerId = "B1F27B51-9973-4381-9301-4FE46FE1CA59";
shapes = (
{
closed = 1;
nodes = (
(590,-24,o),
(642,-16,o),
(688,-2,c),
(678,42,l),
(638,28,o),
(588,20,o),
(530,20,cs),
(312,20,o),
(186,124,o),
(186,304,cs),
(186,486,o),
(314,582,o),
(586,612,cs),
(754,630,o),
(840,654,o),
(890,690,c),
(890,0,l),
(936,0,l),
(936,842,ls),
(936,1064,o),
(780,1218,o),
(550,1218,cs),
(358,1218,o),
(208,1108,o),
(160,932,c),
(204,918,l),
(246,1074,o),
(380,1174,o),
(550,1174,cs),
(752,1174,o),
(890,1038,o),
(890,842,cs),
(890,780,ls),
(890,714,o),
(812,682,o),
(578,656,cs),
(284,624,o),
(140,508,o),
(140,304,cs),
(140,98,o),
(284,-24,o),
(530,-24,cs)
);
}
);
width = 1154;
},
{
anchors = (
{
name = bottom;
pos = (1036,0);
},
{
name = top;
pos = (1022,1202);
}
);
layerId = "C698F293-3EC0-4A5A-A3A0-0FDB1F5CF265";
shapes = (
{
closed = 1;
nodes = (
(590,-20,o),
(648,-12,o),
(704,4,c),
(678,152,l),
(642,140,o),
(602,134,o),
(550,134,cs),
(376,134,o),
(290,196,o),
(290,324,cs),
(290,450,o),
(374,514,o),
(572,536,cs),
(754,556,o),
(816,570,o),
(860,598,c),
(860,0,l),
(1036,0,l),
(1036,814,ls),
(1036,1074,o),
(874,1226,o),
(600,1226,cs),
(376,1226,o),
(210,1124,o),
(136,946,c),
(298,888,l),
(346,1002,o),
(462,1072,o),
(606,1072,cs),
(770,1072,o),
(860,986,o),
(860,830,cs),
(860,798,ls),
(860,722,o),
(800,700,o),
(560,678,cs),
(258,652,o),
(112,532,o),
(112,318,cs),
(112,102,o),
(260,-20,o),
(522,-20,cs)
);
}
);
width = 1200;
},
{
anchors = (
{
name = bottom;
pos = (1196,0);
},
{
name = top;
pos = (1182,1202);
}
);
layerId = "5C20EF92-B63D-42A8-8878-93C2863E0093";
shapes = (
{
closed = 1;
nodes = (
(550,-14,o),
(618,-6,o),
(692,14,c),
(692,286,l),
(662,272,o),
(624,264,o),
(586,264,cs),
(504,264,o),
(452,302,o),
(452,362,cs),
(452,428,o),
(510,472,o),
(612,488,cs),
(684,498,o),
(748,516,o),
(802,534,c),
(802,0,l),
(1196,0,l),
(1196,832,ls),
(1196,1066,o),
(970,1226,o),
(642,1226,cs),
(318,1226,o),
(100,1066,o),
(82,820,c),
(476,820,l),
(486,900,o),
(548,944,o),
(652,944,cs),
(748,944,o),
(802,908,o),
(802,844,cs),
(802,838,ls),
(802,766,o),
(732,738,o),
(512,722,cs),
(200,700,o),
(52,582,o),
(52,348,cs),
(52,114,o),
(202,-14,o),
(476,-14,cs)
);
}
);
width = 1300;
}
);
unicode = 3621;
}
{
glyphname = "woWaen-thai";
layers = (
{
anchors = (
{
name = bottom;
pos = (888,0);
},
{
name = top;
pos = (930,1202);
}
);
layerId = "B1F27B51-9973-4381-9301-4FE46FE1CA59";
shapes = (
{
closed = 1;
nodes = (
(814,-14,o),
(966,208,o),
(966,602,cs),
(966,996,o),
(814,1218,o),
(542,1218,cs),
(322,1218,o),
(160,1070,o),
(130,844,c),
(178,844,l),
(204,1042,o),
(350,1174,o),
(542,1174,cs),
(784,1174,o),
(920,968,o),
(920,602,cs),
(920,236,o),
(784,30,o),
(542,30,cs),
(350,30,o),
(204,162,o),
(178,360,c),
(130,360,l),
(160,134,o),
(322,-14,o),
(542,-14,cs)
);
}
);
width = 1098;
},
{
anchors = (
{
name = bottom;
pos = (1010,0);
},
{
name = top;
pos = (1038,1202);
}
);
layerId = "C698F293-3EC0-4A5A-A3A0-0FDB1F5CF265";
shapes = (
{
closed = 1;
nodes = (
(900,-24,o),
(1096,216,o),
(1096,600,cs),
(1096,986,o),
(900,1226,o),
(586,1226,cs),
(322,1226,o),
(132,1060,o),
(104,804,c),
(280,804,l),
(304,968,o),
(422,1072,o),
(580,1072,cs),
(786,1072,o),
(918,888,o),
(918,600,cs),
(918,312,o),
(786,130,o),
(576,130,cs),
(424,130,o),
(312,226,o),
(286,382,c),
(110,382,l),
(134,138,o),
(324,-24,o),
(584,-24,cs)
);
}
);
width = 1208;
},
{
anchors = (
{
name = bottom;
pos = (1154,0);
},
{
name = top;
pos = (1154,1202);
}
);
layerId = "5C20EF92-B63D-42A8-8878-93C2863E0093";
shapes = (
{
closed = 1;
nodes = (
(960,-22,o),
(1182,218,o),
(1182,604,cs),
(1182,990,o),
(964,1226,o),
(606,1226,cs),
(276,1226,o),
(60,1022,o),
(58,706,c),
(430,706,l),
(440,836,o),
(500,910,o),
(594,910,cs),
(708,910,o),
(770,802,o),
(770,604,cs),
(770,408,o),
(708,300,o),
(594,300,cs),
(500,300,o),
(438,376,o),
(430,504,c),
(58,504,l),
(62,182,o),
(274,-22,o),
(606,-22,cs)
);
}
);
width = 1240;
}
);
unicode = 3623;
}
{
glyphname = "soSala-thai";
layers = (
{
anchors = (
{
name = bottom;
pos = (1030,0);
},
{
name = top;
pos = (1016,1202);
}
);
layerId = "B1F27B51-9973-4381-9301-4FE46FE1CA59";
shapes = (
{
closed = 1;
nodes = (
(258,0,l),
(258,242,ls),
(258,458,o),
(406,620,o),
(604,620,cs),
(636,620,o),
(664,616,o),
(694,608,c),
(694,654,l),
(664,662,o),
(634,666,o),
(600,666,cs),
(446,666,o),
(318,576,o),
(264,430,c),
(258,430,l),
(258,824,ls),
(258,1034,o),
(402,1174,o),
(620,1174,cs),
(838,1174,o),
(984,1034,o),
(984,824,cs),
(984,0,l),
(1030,0,l),
(1030,824,ls),
(1030,950,o),
(984,1056,o),
(900,1126,c),
(920,1108,l),
(846,1180,o),
(740,1218,o),
(620,1218,cs),
(374,1218,o),
(210,1062,o),
(210,824,cs),
(210,0,l)
);
},
{
closed = 1;
nodes = (
(1136,1304,l),
(1074,1304,l),
(882,1122,l),
(910,1086,l)
);
}
);
width = 1240;
},
{
anchors = (
{
name = bottom;
pos = (1132,0);
},
{
name = top;
pos = (1118,1202);
}
);
layerId = "C698F293-3EC0-4A5A-A3A0-0FDB1F5CF265";
shapes = (
{
closed = 1;
nodes = (
(340,0,l),
(340,220,ls),
(340,372,o),
(466,486,o),
(634,486,cs),
(666,486,o),
(702,482,o),
(728,474,c),
(728,644,l),
(710,650,o),
(680,654,o),
(648,654,cs),
(510,654,o),
(390,578,o),
(346,462,c),
(334,462,l),
(334,760,ls),
(334,950,o),
(454,1072,o),
(644,1072,cs),
(834,1072,o),
(956,950,o),
(956,760,cs),
(956,0,l),
(1132,0,l),
(1132,778,ls),
(1132,940,o),
(1064,1054,o),
(946,1096,c),
(1022,1028,l),
(962,1156,o),
(830,1226,o),
(644,1226,cs),
(350,1226,o),
(164,1052,o),
(164,778,cs),
(164,0,l)
);
},
{
closed = 1;
nodes = (
(1258,1270,l),
(1060,1270,l),
(878,1066,l),
(1022,1008,l)
);
}
);
width = 1304;
},
{
anchors = (
{
name = bottom;
pos = (1306,0);
},
{
name = top;
pos = (1292,1202);
}
);
layerId = "5C20EF92-B63D-42A8-8878-93C2863E0093";
shapes = (
{
closed = 1;
nodes = (
(496,0,l),
(496,146,ls),
(496,276,o),
(576,358,o),
(706,358,cs),
(744,358,o),
(788,352,o),
(822,338,c),
(822,680,l),
(790,690,o),
(760,696,o),
(730,696,cs),
(612,696,o),
(530,616,o),
(494,468,c),
(482,468,l),
(482,712,ls),
(482,858,o),
(552,928,o),
(696,928,cs),
(840,928,o),
(908,858,o),
(908,712,cs),
(908,0,l),
(1306,0,l),
(1306,716,ls),
(1306,902,o),
(1208,1030,o),
(1036,1064,c),
(1170,984,l),
(1060,1150,o),
(900,1226,o),
(668,1226,cs),
(312,1226,o),
(104,1034,o),
(104,702,cs),
(104,0,l)
);
},
{
closed = 1;
nodes = (
(1464,1262,l),
(1136,1262,l),
(980,1054,l),
(1184,850,l)
);
}
);
width = 1428;
}
);
unicode = 3624;
}
{
glyphname = "soRusi-thai";
layers = (
{
anchors = (
{
name = bottom;
pos = (988,0);
},
{
name = top;
pos = (1002,1202);
}
);
layerId = "B1F27B51-9973-4381-9301-4FE46FE1CA59";
shapes = (
{
closed = 1;
nodes = (
(844,-14,o),
(1002,142,o),
(1002,380,cs),
(1002,1202,l),
(956,1202,l),
(956,682,l),
(956,666,l),
(956,380,ls),
(956,168,o),
(816,30,o),
(606,30,cs),
(396,30,o),
(258,168,o),
(258,380,cs),
(258,1202,l),
(210,1202,l),
(210,380,ls),
(210,142,o),
(368,-14,o),
(606,-14,cs)
);
},
{
closed = 1;
nodes = (
(1208,654,l),
(1208,696,l),
(618,696,l),
(618,654,l)
);
}
);
width = 1234;
},
{
anchors = (
{
name = bottom;
pos = (1108,0);
},
{
name = top;
pos = (1122,1202);
}
);
layerId = "C698F293-3EC0-4A5A-A3A0-0FDB1F5CF265";
shapes = (
{
closed = 1;
nodes = (
(936,-24,o),
(1122,146,o),
(1122,410,cs),
(1122,1202,l),
(946,1202,l),
(946,690,l),
(946,658,l),
(946,432,ls),
(946,248,o),
(828,130,o),
(642,130,cs),
(456,130,o),
(338,248,o),
(338,432,cs),
(338,1202,l),
(162,1202,l),
(162,410,ls),
(162,146,o),
(348,-24,o),
(642,-24,cs)
);
},
{
closed = 1;
nodes = (
(1282,594,l),
(1282,742,l),
(632,742,l),
(632,594,l)
);
}
);
width = 1308;
},
{
anchors = (
{
name = bottom;
pos = (1248,0);
},
{
name = top;
pos = (1262,1202);
}
);
layerId = "5C20EF92-B63D-42A8-8878-93C2863E0093";
shapes = (
{
closed = 1;
nodes = (
(1038,-22,o),
(1262,164,o),
(1262,454,cs),
(1262,1202,l),
(866,1202,l),
(866,690,l),
(882,660,l),
(882,466,ls),
(882,338,o),
(814,270,o),
(694,270,cs),
(574,270,o),
(508,338,o),
(508,466,cs),
(508,1202,l),
(104,1202,l),
(104,454,ls),
(104,164,o),
(332,-22,o),
(686,-22,cs)
);
},
{
closed = 1;
nodes = (
(1406,572,l),
(1406,864,l),
(670,864,l),
(670,572,l)
);
}
);
width = 1426;
}
);
unicode = 3625;
}
{
glyphname = "soSua-thai";
layers = (
{
anchors = (
{
name = bottom;
pos = (936,0);
},
{
name = top;
pos = (922,1202);
}
);
layerId = "B1F27B51-9973-4381-9301-4FE46FE1CA59";
shapes = (
{
closed = 1;
nodes = (
(590,-24,o),
(642,-16,o),
(688,-2,c),
(678,42,l),
(638,28,o),
(588,20,o),
(530,20,cs),
(312,20,o),
(186,122,o),
(186,304,cs),
(186,484,o),
(314,582,o),
(586,612,cs),
(754,630,o),
(840,654,o),
(890,690,c),
(890,0,l),
(936,0,l),
(936,842,ls),
(936,952,o),
(898,1048,o),
(828,1116,c),
(846,1096,l),
(776,1174,o),
(670,1218,o),
(550,1218,cs),
(358,1218,o),
(208,1108,o),
(160,932,c),
(204,918,l),
(246,1074,o),
(380,1174,o),
(550,1174,cs),
(750,1174,o),
(890,1038,o),
(890,842,cs),
(890,780,ls),
(890,714,o),
(812,682,o),
(578,656,cs),
(284,624,o),
(140,508,o),
(140,304,cs),
(140,98,o),
(284,-24,o),
(530,-24,cs)
);
},
{
closed = 1;
nodes = (
(1074,1304,l),
(1010,1304,l),
(798,1102,l),
(824,1064,l)
);
}
);
width = 1154;
},
{
anchors = (
{
name = bottom;
pos = (1036,0);
},
{
name = top;
pos = (1022,1202);
}
);
layerId = "C698F293-3EC0-4A5A-A3A0-0FDB1F5CF265";
shapes = (
{
closed = 1;
nodes = (
(590,-20,o),
(648,-12,o),
(704,4,c),
(678,152,l),
(642,140,o),
(602,134,o),
(550,134,cs),
(376,134,o),
(290,196,o),
(290,324,cs),
(290,450,o),
(374,514,o),
(572,536,cs),
(754,556,o),
(816,570,o),
(860,598,c),
(860,0,l),
(1036,0,l),
(1036,814,ls),
(1036,974,o),
(974,1080,o),
(858,1126,c),
(934,1058,l),
(878,1168,o),
(762,1226,o),
(594,1226,cs),
(372,1226,o),
(212,1126,o),
(136,946,c),
(298,888,l),
(346,1002,o),
(462,1072,o),
(606,1072,cs),
(770,1072,o),
(860,986,o),
(860,830,cs),
(860,798,ls),
(860,722,o),
(800,700,o),
(560,678,cs),
(258,652,o),
(112,532,o),
(112,318,cs),
(112,102,o),
(260,-20,o),
(522,-20,cs)
);
},
{
closed = 1;
nodes = (
(1162,1270,l),
(958,1270,l),
(766,1066,l),
(910,1008,l)
);
}
);
width = 1208;
},
{
anchors = (
{
name = bottom;
pos = (1196,0);
},
{
name = top;
pos = (1182,1202);
}
);
layerId = "5C20EF92-B63D-42A8-8878-93C2863E0093";
shapes = (
{
closed = 1;
nodes = (
(550,-14,o),
(618,-6,o),
(692,14,c),
(692,286,l),
(662,272,o),
(624,264,o),
(586,264,cs),
(504,264,o),
(452,302,o),
(452,362,cs),
(452,428,o),
(510,472,o),
(612,488,cs),
(684,498,o),
(748,516,o),
(802,534,c),
(802,0,l),
(1196,0,l),
(1196,716,ls),
(1196,906,o),
(1098,1034,o),
(926,1064,c),
(1068,984,l),
(966,1152,o),
(824,1226,o),
(610,1226,cs),
(316,1226,o),
(106,1066,o),
(82,820,c),
(476,820,l),
(486,900,o),
(548,944,o),
(652,944,cs),
(748,944,o),
(802,908,o),
(802,844,cs),
(802,838,ls),
(802,766,o),
(732,738,o),
(512,722,cs),
(200,700,o),
(52,582,o),
(52,348,cs),
(52,114,o),
(202,-14,o),
(476,-14,cs)
);
},
{
closed = 1;
nodes = (
(1354,1262,l),
(1026,1262,l),
(870,1054,l),
(1074,850,l)
);
}
);
width = 1318;
}
);
metricLeft = "loLing-thai";
unicode = 3626;
}
{
glyphname = "hoHip-thai";
layers = (
{
anchors = (
{
name = bottom;
pos = (994,0);
},
{
name = top;
pos = (994,1202);
}
);
layerId = "B1F27B51-9973-4381-9301-4FE46FE1CA59";
shapes = (
{
closed = 1;
nodes = (
(994,0,l),
(994,546,ls),
(994,782,o),
(844,940,o),
(614,940,cs),
(456,940,o),
(326,864,o),
(270,738,c),
(252,738,l),
(264,550,l),
(264,754,o),
(408,896,o),
(612,896,cs),
(814,896,o),
(948,758,o),
(948,546,cs),
(948,0,l)
);
},
{
closed = 1;
nodes = (
(264,0,l),
(264,682,l),
(264,704,l),
(264,1202,l),
(216,1202,l),
(216,0,l)
);
},
{
closed = 1;
nodes = (
(558,908,l),
(586,1060,o),
(712,1162,o),
(870,1162,cs),
(914,1162,o),
(956,1154,o),
(992,1138,c),
(1006,1182,l),
(970,1198,o),
(922,1208,o),
(872,1208,cs),
(688,1208,o),
(546,1086,o),
(518,908,c)
);
}
);
width = 1190;
},
{
anchors = (
{
name = bottom;
pos = (1100,0);
},
{
name = top;
pos = (1098,1202);
}
);
layerId = "C698F293-3EC0-4A5A-A3A0-0FDB1F5CF265";
shapes = (
{
closed = 1;
nodes = (
(1100,0,l),
(1100,494,ls),
(1100,754,o),
(944,920,o),
(698,920,cs),
(554,920,o),
(432,862,o),
(354,758,c),
(300,758,l),
(346,454,l),
(346,644,o),
(478,780,o),
(658,780,cs),
(820,780,o),
(924,670,o),
(924,496,cs),
(924,0,l)
);
},
{
closed = 1;
nodes = (
(346,0,l),
(346,666,l),
(344,740,l),
(344,1202,l),
(170,1202,l),
(170,0,l)
);
},
{
closed = 1;
nodes = (
(752,860,l),
(768,1006,o),
(842,1070,o),
(970,1070,cs),
(1010,1070,o),
(1048,1064,o),
(1082,1052,c),
(1114,1190,l),
(1060,1208,o),
(1002,1218,o),
(942,1218,cs),
(738,1218,o),
(624,1104,o),
(580,860,c)
);
}
);
width = 1262;
},
{
anchors = (
{
name = bottom;
pos = (1230,0);
},
{
name = top;
pos = (1230,1202);
}
);
layerId = "5C20EF92-B63D-42A8-8878-93C2863E0093";
shapes = (
{
closed = 1;
nodes = (
(1230,0,l),
(1230,456,ls),
(1230,712,o),
(1088,854,o),
(834,854,cs),
(706,854,o),
(586,818,o),
(530,762,c),
(484,762,l),
(514,402,l),
(514,514,o),
(574,582,o),
(674,582,cs),
(772,582,o),
(830,516,o),
(830,404,cs),
(830,0,l)
);
},
{
closed = 1;
nodes = (
(514,0,l),
(514,584,l),
(510,738,l),
(510,1202,l),
(112,1202,l),
(112,0,l)
);
},
{
closed = 1;
nodes = (
(942,766,l),
(956,892,o),
(1004,920,o),
(1076,920,cs),
(1108,920,o),
(1150,912,o),
(1178,904,c),
(1236,1186,l),
(1172,1206,o),
(1094,1218,o),
(1024,1218,cs),
(776,1218,o),
(644,1072,o),
(618,766,c)
);
}
);
width = 1322;
}
);
metricLeft = "=|noNu-thai";
unicode = 3627;
}
{
glyphname = "loChula-thai";
layers = (
{
anchors = (
{
name = bottom;
pos = (1086,0);
}
);
layerId = "B1F27B51-9973-4381-9301-4FE46FE1CA59";
shapes = (
{
closed = 1;
nodes = (
(350,0,l),
(690,908,l),
(700,908,l),
(1040,0,l),
(1086,0,l),
(1226,944,ls),
(1246,1076,o),
(1188,1176,o),
(1076,1206,c),
(1076,1212,l),
(1164,1230,o),
(1220,1290,o),
(1244,1392,cs),
(1278,1536,l),
(1232,1536,l),
(1198,1392,ls),
(1174,1292,o),
(1094,1230,o),
(986,1230,cs),
(668,1230,l),
(668,1188,l),
(986,1188,ls),
(1124,1188,o),
(1204,1090,o),
(1182,944,cs),
(1058,106,l),
(1046,106,l),
(722,970,l),
(668,970,l),
(344,106,l),
(334,106,l),
(178,1202,l),
(130,1202,l),
(306,0,l)
);
}
);
width = 1382;
},
{
anchors = (
{
name = bottom;
pos = (1214,0);
}
);
layerId = "C698F293-3EC0-4A5A-A3A0-0FDB1F5CF265";
shapes = (
{
closed = 1;
nodes = (
(452,0,l),
(734,736,l),
(752,736,l),
(1040,0,l),
(1214,0,l),
(1332,1042,ls),
(1342,1138,o),
(1320,1208,o),
(1262,1242,c),
(1262,1250,l),
(1352,1280,o),
(1416,1352,o),
(1436,1446,cs),
(1460,1566,l),
(1288,1566,l),
(1264,1444,ls),
(1246,1356,o),
(1188,1314,o),
(1086,1314,cs),
(636,1314,l),
(636,1174,l),
(1032,1174,ls),
(1132,1174,o),
(1172,1132,o),
(1164,1042,cs),
(1090,292,l),
(1078,292,l),
(840,942,l),
(650,942,l),
(410,296,l),
(398,296,l),
(270,1202,l),
(94,1202,l),
(278,0,l)
);
}
);
width = 1490;
},
{
anchors = (
{
name = bottom;
pos = (1430,0);
}
);
layerId = "5C20EF92-B63D-42A8-8878-93C2863E0093";
shapes = (
{
closed = 1;
nodes = (
(682,0,l),
(838,486,l),
(854,486,l),
(1010,0,l),
(1430,0,l),
(1594,982,ls),
(1616,1114,o),
(1590,1190,o),
(1498,1240,c),
(1498,1250,l),
(1622,1288,o),
(1680,1358,o),
(1710,1508,cs),
(1744,1676,l),
(1354,1676,l),
(1324,1506,ls),
(1306,1414,o),
(1244,1368,o),
(1140,1368,cs),
(722,1368,l),
(722,1072,l),
(1086,1072,ls),
(1194,1072,o),
(1238,1026,o),
(1226,930,cs),
(1158,406,l),
(1148,406,l),
(988,862,l),
(704,862,l),
(544,406,l),
(534,406,l),
(440,1202,l),
(44,1202,l),
(262,0,l)
);
}
);
width = 1696;
}
);
unicode = 3628;
}
{
glyphname = "oAng-thai";
kernLeft = "oAng-thai";
layers = (
{
anchors = (
{
name = bottom;
pos = (1008,0);
},
{
name = top;
pos = (1008,1202);
}
);
layerId = "B1F27B51-9973-4381-9301-4FE46FE1CA59";
shapes = (
{
closed = 1;
nodes = (
(864,-14,o),
(1046,228,o),
(1046,610,cs),
(1046,988,o),
(868,1218,o),
(574,1218,cs),
(338,1218,o),
(162,1070,o),
(130,844,c),
(178,844,l),
(208,1044,o),
(366,1174,o),
(574,1174,cs),
(838,1174,o),
(998,962,o),
(998,610,cs),
(998,254,o),
(836,30,o),
(578,30,cs),
(328,30,o),
(178,238,o),
(178,584,c),
(158,580,l),
(590,580,l),
(590,624,l),
(130,624,l),
(130,584,ls),
(130,214,o),
(300,-14,o),
(578,-14,cs)
);
}
);
width = 1176;
},
{
anchors = (
{
name = bottom;
pos = (1090,0);
},
{
name = top;
pos = (1118,1202);
}
);
layerId = "C698F293-3EC0-4A5A-A3A0-0FDB1F5CF265";
shapes = (
{
closed = 1;
nodes = (
(968,-24,o),
(1176,218,o),
(1176,610,cs),
(1176,996,o),
(974,1226,o),
(632,1226,cs),
(352,1226,o),
(150,1066,o),
(118,818,c),
(294,818,l),
(322,972,o),
(448,1070,o),
(622,1070,cs),
(860,1070,o),
(998,900,o),
(998,606,cs),
(998,308,o),
(858,134,o),
(620,134,cs),
(400,134,o),
(282,280,o),
(282,554,c),
(228,500,l),
(644,500,l),
(644,646,l),
(112,646,l),
(112,548,ls),
(112,186,o),
(300,-24,o),
(626,-24,cs)
);
}
);
width = 1288;
},
{
anchors = (
{
name = bottom;
pos = (1184,0);
},
{
name = top;
pos = (1228,1202);
}
);
layerId = "5C20EF92-B63D-42A8-8878-93C2863E0093";
shapes = (
{
closed = 1;
nodes = (
(1026,-22,o),
(1272,226,o),
(1272,606,cs),
(1272,986,o),
(1036,1226,o),
(664,1226,cs),
(342,1226,o),
(100,1046,o),
(78,790,c),
(478,790,l),
(500,876,o),
(560,924,o),
(654,924,cs),
(792,924,o),
(860,820,o),
(860,598,cs),
(860,378,o),
(792,278,o),
(644,278,cs),
(526,278,o),
(460,338,o),
(450,456,c),
(408,436,l),
(660,436,l),
(660,684,l),
(62,684,l),
(62,502,ls),
(62,188,o),
(298,-22,o),
(648,-22,cs)
);
}
);
width = 1330;
}
);
unicode = 3629;
}
{
glyphname = "hoNokhuk-thai";
kernLeft = "oAng-thai";
layers = (
{
anchors = (
{
name = bottom;
pos = (1008,0);
},
{
name = top;
pos = (1008,1202);
}
);
layerId = "B1F27B51-9973-4381-9301-4FE46FE1CA59";
shapes = (
{
closed = 1;
nodes = (
(864,-14,o),
(1046,228,o),
(1046,610,cs),
(1046,816,o),
(992,984,o),
(890,1090,c),
(906,1070,l),
(824,1166,o),
(710,1218,o),
(572,1218,cs),
(336,1218,o),
(162,1070,o),
(130,844,c),
(178,844,l),
(206,1044,o),
(364,1174,o),
(572,1174,cs),
(838,1174,o),
(998,962,o),
(998,610,cs),
(998,256,o),
(834,30,o),
(578,30,cs),
(328,30,o),
(178,236,o),
(178,582,c),
(158,580,l),
(590,580,l),
(590,624,l),
(130,624,l),
(130,582,ls),
(130,212,o),
(300,-14,o),
(578,-14,cs)
);
},
{
closed = 1;
nodes = (
(1152,1304,l),
(1090,1304,l),
(878,1102,l),
(902,1064,l)
);
}
);
width = 1198;
},
{
anchors = (
{
name = bottom;
pos = (1090,0);
},
{
name = top;
pos = (1118,1202);
}
);
layerId = "C698F293-3EC0-4A5A-A3A0-0FDB1F5CF265";
shapes = (
{
closed = 1;
nodes = (
(966,-24,o),
(1176,218,o),
(1176,610,cs),
(1176,870,o),
(1084,1052,o),
(920,1122,c),
(998,1056,l),
(920,1170,o),
(798,1226,o),
(632,1226,cs),
(350,1226,o),
(150,1066,o),
(118,818,c),
(294,818,l),
(322,972,o),
(448,1070,o),
(622,1070,cs),
(860,1070,o),
(998,896,o),
(998,606,cs),
(998,308,o),
(858,134,o),
(620,134,cs),
(400,134,o),
(282,280,o),
(282,554,c),
(228,500,l),
(644,500,l),
(644,646,l),
(112,646,l),
(112,548,ls),
(112,186,o),
(300,-24,o),
(626,-24,cs)
);
},
{
closed = 1;
nodes = (
(1224,1284,l),
(1026,1284,l),
(844,1080,l),
(988,1022,l)
);
}
);
width = 1296;
},
{
anchors = (
{
name = bottom;
pos = (1184,0);
},
{
name = top;
pos = (1228,1202);
}
);
layerId = "5C20EF92-B63D-42A8-8878-93C2863E0093";
shapes = (
{
closed = 1;
nodes = (
(1026,-22,o),
(1272,226,o),
(1272,606,cs),
(1272,844,o),
(1176,1008,o),
(1004,1064,c),
(1116,984,l),
(1016,1140,o),
(846,1226,o),
(636,1226,cs),
(332,1226,o),
(96,1040,o),
(78,790,c),
(478,790,l),
(500,876,o),
(560,924,o),
(654,924,cs),
(792,924,o),
(860,820,o),
(860,600,cs),
(860,378,o),
(792,278,o),
(644,278,cs),
(526,278,o),
(460,338,o),
(450,456,c),
(408,436,l),
(660,436,l),
(660,684,l),
(62,684,l),
(62,502,ls),
(62,188,o),
(298,-22,o),
(648,-22,cs)
);
},
{
closed = 1;
nodes = (
(1380,1262,l),
(1052,1262,l),
(896,1054,l),
(1100,850,l)
);
}
);
width = 1336;
}
);
metricLeft = "oAng-thai";
unicode = 3630;
}
{
glyphname = "paiyannoi-thai";
layers = (
{
layerId = "B1F27B51-9973-4381-9301-4FE46FE1CA59";
shapes = (
{
closed = 1;
nodes = (
(642,596,o),
(776,700,o),
(824,868,c),
(852,868,l),
(852,1086,l),
(830,1086,l),
(830,822,o),
(682,640,o),
(468,640,cs),
(298,640,o),
(184,750,o),
(184,918,cs),
(184,1072,o),
(274,1166,o),
(418,1166,cs),
(458,1166,o),
(502,1160,o),
(534,1146,c),
(540,1190,l),
(502,1204,o),
(458,1210,o),
(416,1210,cs),
(248,1210,o),
(138,1096,o),
(138,918,cs),
(138,726,o),
(270,596,o),
(468,596,cs)
);
},
{
closed = 1;
nodes = (
(874,0,l),
(874,1202,l),
(828,1202,l),
(828,0,l)
);
}
);
width = 1092;
},
{
layerId = "C698F293-3EC0-4A5A-A3A0-0FDB1F5CF265";
shapes = (
{
closed = 1;
nodes = (
(568,560,o),
(690,624,o),
(760,736,c),
(842,736,l),
(842,996,l),
(770,996,l),
(770,836,o),
(644,714,o),
(482,714,cs),
(360,714,o),
(280,784,o),
(280,896,cs),
(280,1000,o),
(348,1070,o),
(452,1070,cs),
(482,1070,o),
(510,1066,o),
(542,1054,c),
(568,1192,l),
(522,1208,o),
(474,1218,o),
(426,1218,cs),
(230,1218,o),
(104,1090,o),
(104,894,cs),
(104,696,o),
(236,560,o),
(434,560,cs)
);
},
{
closed = 1;
nodes = (
(946,0,l),
(946,1202,l),
(770,1202,l),
(770,0,l)
);
}
);
width = 1128;
},
{
layerId = "5C20EF92-B63D-42A8-8878-93C2863E0093";
shapes = (
{
closed = 1;
nodes = (
(592,342,o),
(714,416,o),
(764,542,c),
(834,542,l),
(834,882,l),
(776,882,l),
(776,754,o),
(700,668,o),
(586,668,cs),
(498,668,o),
(440,720,o),
(440,800,cs),
(440,878,o),
(496,930,o),
(580,930,cs),
(610,930,o),
(638,924,o),
(656,914,c),
(656,1194,l),
(606,1208,o),
(548,1218,o),
(488,1218,cs),
(206,1218,o),
(36,1052,o),
(36,776,cs),
(36,512,o),
(190,342,o),
(432,342,cs)
);
},
{
closed = 1;
nodes = (
(1178,0,l),
(1178,1202,l),
(776,1202,l),
(776,0,l)
);
}
);
width = 1284;
}
);
unicode = 3631;
}
{
glyphname = "saraA-thai";
layers = (
{
layerId = "B1F27B51-9973-4381-9301-4FE46FE1CA59";
shapes = (
{
closed = 1;
nodes = (
(624,874,l),
(624,916,l),
(310,916,ls),
(220,916,o),
(176,960,o),
(176,1048,cs),
(176,1104,l),
(130,1104,l),
(130,1048,ls),
(130,930,o),
(190,874,o),
(310,874,cs)
);
},
{
closed = 1;
nodes = (
(624,146,l),
(624,188,l),
(310,188,ls),
(220,188,o),
(176,232,o),
(176,320,cs),
(176,378,l),
(130,378,l),
(130,320,ls),
(130,202,o),
(190,146,o),
(310,146,cs)
);
}
);
width = 726;
},
{
layerId = "C698F293-3EC0-4A5A-A3A0-0FDB1F5CF265";
shapes = (
{
closed = 1;
nodes = (
(632,770,l),
(632,912,l),
(376,912,ls),
(314,912,o),
(280,944,o),
(280,1006,cs),
(280,1110,l),
(110,1110,l),
(110,990,ls),
(110,848,o),
(186,770,o),
(328,770,cs)
);
},
{
closed = 1;
nodes = (
(632,114,l),
(632,258,l),
(376,258,ls),
(314,258,o),
(280,290,o),
(280,352,cs),
(280,456,l),
(110,456,l),
(110,336,ls),
(110,194,o),
(186,114,o),
(328,114,cs)
);
}
);
width = 718;
},
{
layerId = "5C20EF92-B63D-42A8-8878-93C2863E0093";
shapes = (
{
closed = 1;
nodes = (
(700,704,l),
(700,992,l),
(496,992,ls),
(452,992,o),
(428,1016,o),
(428,1058,cs),
(428,1146,l),
(84,1146,l),
(84,984,ls),
(84,794,o),
(178,704,o),
(376,704,cs)
);
},
{
closed = 1;
nodes = (
(700,50,l),
(700,338,l),
(496,338,ls),
(452,338,o),
(428,360,o),
(428,402,cs),
(428,492,l),
(84,492,l),
(84,328,ls),
(84,138,o),
(178,50,o),
(376,50,cs)
);
}
);
width = 774;
}
);
unicode = 3632;
}
{
glyphname = "maiHanaKat-thai";
layers = (
{
anchors = (
{
name = _top;
pos = (1002,1202);
},
{
name = top;
pos = (1002,1570);
}
);
layerId = "B1F27B51-9973-4381-9301-4FE46FE1CA59";
shapes = (
{
closed = 1;
nodes = (
(1224,1394,l),
(1224,1438,l),
(738,1438,ls),
(672,1438,o),
(634,1472,o),
(634,1534,cs),
(634,1590,l),
(590,1590,l),
(590,1534,ls),
(590,1446,o),
(642,1394,o),
(738,1394,cs)
);
}
);
width = 1214;
},
{
anchors = (
{
name = _top;
pos = (1000,1202);
},
{
name = top;
pos = (1000,1598);
}
);
layerId = "C698F293-3EC0-4A5A-A3A0-0FDB1F5CF265";
shapes = (
{
closed = 1;
nodes = (
(1208,1362,l),
(1208,1506,l),
(730,1506,ls),
(668,1506,o),
(638,1532,o),
(638,1586,cs),
(638,1634,l),
(474,1634,l),
(474,1580,ls),
(474,1436,o),
(550,1362,o),
(702,1362,cs)
);
}
);
width = 1164;
},
{
anchors = (
{
name = _top;
pos = (1248,1202);
},
{
name = top;
pos = (1248,1716);
}
);
layerId = "5C20EF92-B63D-42A8-8878-93C2863E0093";
shapes = (
{
closed = 1;
nodes = (
(1412,1336,l),
(1412,1600,l),
(1010,1600,ls),
(944,1600,o),
(910,1630,o),
(910,1692,cs),
(910,1742,l),
(552,1742,l),
(552,1614,ls),
(552,1430,o),
(652,1336,o),
(856,1336,cs)
);
}
);
width = 1352;
}
);
unicode = 3633;
}
{
glyphname = "saraAa-thai";
kernLeft = "saraAa-thai";
kernRight = "saraAa-thai";
layers = (
{
layerId = "B1F27B51-9973-4381-9301-4FE46FE1CA59";
shapes = (
{
closed = 1;
nodes = (
(664,0,l),
(664,898,ls),
(664,1092,o),
(550,1218,o),
(370,1218,cs),
(228,1218,o),
(114,1138,o),
(58,996,c),
(102,980,l),
(152,1104,o),
(248,1174,o),
(370,1174,cs),
(522,1174,o),
(618,1066,o),
(618,898,cs),
(618,0,l)
);
}
);
width = 876;
},
{
layerId = "C698F293-3EC0-4A5A-A3A0-0FDB1F5CF265";
shapes = (
{
closed = 1;
nodes = (
(782,0,l),
(782,844,ls),
(782,1076,o),
(638,1226,o),
(416,1226,cs),
(226,1226,o),
(84,1116,o),
(44,940,c),
(200,894,l),
(226,1004,o),
(306,1072,o),
(410,1072,cs),
(528,1072,o),
(606,984,o),
(606,846,cs),
(606,0,l)
);
}
);
width = 944;
},
{
layerId = "5C20EF92-B63D-42A8-8878-93C2863E0093";
shapes = (
{
closed = 1;
nodes = (
(984,0,l),
(984,774,ls),
(984,1054,o),
(804,1226,o),
(510,1226,cs),
(216,1226,o),
(22,1054,o),
(14,784,c),
(388,784,l),
(388,866,o),
(422,912,o),
(484,912,cs),
(542,912,o),
(580,866,o),
(580,798,cs),
(580,0,l)
);
}
);
width = 1082;
}
);
unicode = 3634;
}
{
glyphname = "saraAm-thai";
kernLeft = "saraAa-thai";
kernRight = "saraAa-thai";
layers = (
{
layerId = "B1F27B51-9973-4381-9301-4FE46FE1CA59";
shapes = (
{
closed = 1;
nodes = (
(664,0,l),
(664,898,ls),
(664,1092,o),
(550,1218,o),
(370,1218,cs),
(228,1218,o),
(114,1138,o),
(58,996,c),
(102,980,l),
(152,1104,o),
(248,1174,o),
(370,1174,cs),
(522,1174,o),
(618,1066,o),
(618,898,cs),
(618,0,l)
);
},
{
closed = 1;
nodes = (
(-158,1366,o),
(-92,1434,o),
(-92,1522,cs),
(-92,1610,o),
(-158,1676,o),
(-246,1676,cs),
(-334,1676,o),
(-402,1610,o),
(-402,1522,cs),
(-402,1434,o),
(-334,1366,o),
(-246,1366,cs)
);
},
{
closed = 1;
nodes = (
(-310,1410,o),
(-354,1456,o),
(-354,1522,cs),
(-354,1586,o),
(-310,1632,o),
(-246,1632,cs),
(-182,1632,o),
(-138,1586,o),
(-138,1522,cs),
(-138,1456,o),
(-182,1410,o),
(-246,1410,cs)
);
}
);
width = 876;
},
{
layerId = "C698F293-3EC0-4A5A-A3A0-0FDB1F5CF265";
shapes = (
{
closed = 1;
nodes = (
(782,0,l),
(782,844,ls),
(782,1076,o),
(638,1226,o),
(416,1226,cs),
(226,1226,o),
(84,1116,o),
(44,940,c),
(200,894,l),
(226,1004,o),
(306,1072,o),
(410,1072,cs),
(528,1072,o),
(606,984,o),
(606,846,cs),
(606,0,l)
);
},
{
closed = 1;
nodes = (
(-148,1342,o),
(-70,1414,o),
(-70,1516,cs),
(-70,1618,o),
(-148,1690,o),
(-258,1690,cs),
(-366,1690,o),
(-446,1618,o),
(-446,1516,cs),
(-446,1414,o),
(-366,1342,o),
(-258,1342,cs)
);
},
{
closed = 1;
nodes = (
(-296,1440,o),
(-322,1470,o),
(-322,1516,cs),
(-322,1562,o),
(-296,1592,o),
(-258,1592,cs),
(-218,1592,o),
(-194,1562,o),
(-194,1516,cs),
(-194,1470,o),
(-218,1440,o),
(-258,1440,cs)
);
}
);
width = 944;
},
{
layerId = "5C20EF92-B63D-42A8-8878-93C2863E0093";
shapes = (
{
closed = 1;
nodes = (
(984,0,l),
(984,774,ls),
(984,1054,o),
(804,1226,o),
(510,1226,cs),
(216,1226,o),
(22,1054,o),
(14,784,c),
(388,784,l),
(388,866,o),
(422,912,o),
(484,912,cs),
(542,912,o),
(580,866,o),
(580,798,cs),
(580,0,l)
);
},
{
closed = 1;
nodes = (
(-164,1288,o),
(-44,1398,o),
(-44,1550,cs),
(-44,1702,o),
(-164,1810,o),
(-334,1810,cs),
(-502,1810,o),
(-622,1702,o),
(-622,1550,cs),
(-622,1398,o),
(-502,1288,o),
(-334,1288,cs)
);
},
{
closed = 1;
nodes = (
(-380,1458,o),
(-408,1492,o),
(-408,1550,cs),
(-408,1606,o),
(-380,1640,o),
(-334,1640,cs),
(-286,1640,o),
(-258,1606,o),
(-258,1550,cs),
(-258,1494,o),
(-286,1458,o),
(-334,1458,cs)
);
}
);
width = 1082;
}
);
unicode = 3635;
}
{
glyphname = "saraI-thai";
layers = (
{
anchors = (
{
name = _top;
pos = (1002,1202);
},
{
name = top;
pos = (1002,1474);
}
);
layerId = "B1F27B51-9973-4381-9301-4FE46FE1CA59";
shapes = (
{
closed = 1;
nodes = (
(1002,1394,l),
(1002,1438,l),
(266,1438,l),
(266,1394,l)
);
}
);
width = 1214;
},
{
anchors = (
{
name = _top;
pos = (1000,1202);
},
{
name = top;
pos = (1000,1538);
}
);
layerId = "C698F293-3EC0-4A5A-A3A0-0FDB1F5CF265";
shapes = (
{
closed = 1;
nodes = (
(1000,1362,l),
(1000,1510,l),
(120,1510,l),
(120,1362,l)
);
}
);
width = 1164;
},
{
anchors = (
{
name = _top;
pos = (1248,1202);
},
{
name = top;
pos = (1248,1620);
}
);
layerId = "5C20EF92-B63D-42A8-8878-93C2863E0093";
shapes = (
{
closed = 1;
nodes = (
(1248,1336,l),
(1248,1600,l),
(200,1600,l),
(200,1336,l)
);
}
);
width = 1352;
}
);
unicode = 3636;
}
{
glyphname = "saraIi-thai";
layers = (
{
anchors = (
{
name = _top;
pos = (1002,1202);
},
{
name = top;
pos = (1002,1640);
}
);
layerId = "B1F27B51-9973-4381-9301-4FE46FE1CA59";
shapes = (
{
closed = 1;
nodes = (
(1002,1394,l),
(1002,1640,l),
(958,1640,l),
(958,1438,l),
(266,1438,l),
(266,1394,l)
);
}
);
width = 1214;
},
{
anchors = (
{
name = _top;
pos = (1000,1202);
},
{
name = top;
pos = (1000,1682);
}
);
layerId = "C698F293-3EC0-4A5A-A3A0-0FDB1F5CF265";
shapes = (
{
closed = 1;
nodes = (
(1000,1362,l),
(1000,1682,l),
(836,1682,l),
(836,1510,l),
(120,1510,l),
(120,1362,l)
);
}
);
width = 1164;
},
{
anchors = (
{
name = _top;
pos = (1248,1202);
},
{
name = top;
pos = (1250,1744);
}
);
layerId = "5C20EF92-B63D-42A8-8878-93C2863E0093";
shapes = (
{
closed = 1;
nodes = (
(1248,1336,l),
(1248,1744,l),
(888,1744,l),
(888,1600,l),
(200,1600,l),
(200,1336,l)
);
}
);
width = 1352;
}
);
unicode = 3637;
}
{
glyphname = "saraUe-thai";
layers = (
{
anchors = (
{
name = _top;
pos = (1002,1202);
},
{
name = top;
pos = (1002,1640);
}
);
layerId = "B1F27B51-9973-4381-9301-4FE46FE1CA59";
shapes = (
{
closed = 1;
nodes = (
(978,1394,ls),
(1060,1394,o),
(1120,1456,o),
(1120,1536,cs),
(1120,1616,o),
(1058,1676,o),
(978,1676,cs),
(898,1676,o),
(838,1616,o),
(838,1538,cs),
(838,1490,o),
(860,1446,o),
(896,1428,c),
(896,1438,l),
(266,1438,l),
(266,1394,l)
);
},
{
closed = 1;
nodes = (
(920,1436,o),
(882,1476,o),
(882,1536,cs),
(882,1596,o),
(920,1634,o),
(978,1634,cs),
(1036,1634,o),
(1074,1596,o),
(1074,1536,cs),
(1074,1476,o),
(1036,1436,o),
(978,1436,cs)
);
}
);
width = 1214;
},
{
anchors = (
{
name = _top;
pos = (1000,1202);
},
{
name = top;
pos = (976,1682);
}
);
layerId = "C698F293-3EC0-4A5A-A3A0-0FDB1F5CF265";
shapes = (
{
closed = 1;
nodes = (
(888,1362,ls),
(1000,1362,o),
(1074,1430,o),
(1074,1534,cs),
(1074,1638,o),
(1000,1704,o),
(888,1704,cs),
(778,1704,o),
(706,1638,o),
(706,1534,cs),
(706,1508,o),
(716,1476,o),
(726,1452,c),
(792,1510,l),
(120,1510,l),
(120,1362,l)
);
},
{
closed = 1;
nodes = (
(852,1462,o),
(830,1490,o),
(830,1534,cs),
(830,1578,o),
(852,1606,o),
(888,1606,cs),
(924,1606,o),
(948,1578,o),
(948,1534,cs),
(948,1490,o),
(924,1462,o),
(888,1462,cs)
);
}
);
width = 1164;
},
{
anchors = (
{
name = _top;
pos = (1248,1202);
},
{
name = top;
pos = (1214,1744);
}
);
layerId = "5C20EF92-B63D-42A8-8878-93C2863E0093";
shapes = (
{
closed = 1;
nodes = (
(1044,1336,ls),
(1202,1336,o),
(1306,1426,o),
(1306,1568,cs),
(1306,1706,o),
(1204,1796,o),
(1046,1796,cs),
(880,1796,o),
(774,1712,o),
(774,1578,cs),
(774,1548,o),
(780,1508,o),
(792,1476,c),
(958,1600,l),
(200,1600,l),
(200,1336,l)
);
},
{
closed = 1;
nodes = (
(990,1486,o),
(964,1516,o),
(964,1564,cs),
(964,1612,o),
(990,1642,o),
(1032,1642,cs),
(1074,1642,o),
(1102,1612,o),
(1102,1564,cs),
(1102,1516,o),
(1074,1486,o),
(1032,1486,cs)
);
}
);
width = 1352;
}
);
unicode = 3638;
}
{
glyphname = "saraUee-thai";
layers = (
{
anchors = (
{
name = _top;
pos = (1002,1202);
},
{
name = top;
pos = (1002,1640);
}
);
layerId = "B1F27B51-9973-4381-9301-4FE46FE1CA59";
shapes = (
{
closed = 1;
nodes = (
(1002,1394,l),
(1002,1640,l),
(958,1640,l),
(958,1438,l),
(742,1438,l),
(728,1438,l),
(266,1438,l),
(266,1394,l)
);
},
{
closed = 1;
nodes = (
(754,1416,l),
(754,1640,l),
(710,1640,l),
(710,1416,l)
);
}
);
width = 1214;
},
{
anchors = (
{
name = _top;
pos = (1000,1202);
},
{
name = top;
pos = (1000,1682);
}
);
layerId = "C698F293-3EC0-4A5A-A3A0-0FDB1F5CF265";
shapes = (
{
closed = 1;
nodes = (
(1000,1362,l),
(1000,1682,l),
(840,1682,l),
(840,1506,l),
(688,1506,l),
(660,1510,l),
(120,1510,l),
(120,1362,l)
);
},
{
closed = 1;
nodes = (
(726,1436,l),
(726,1682,l),
(572,1682,l),
(572,1436,l)
);
}
);
width = 1164;
},
{
anchors = (
{
name = _top;
pos = (1248,1202);
},
{
name = top;
pos = (1250,1744);
}
);
layerId = "5C20EF92-B63D-42A8-8878-93C2863E0093";
shapes = (
{
closed = 1;
nodes = (
(1248,1336,l),
(1248,1744,l),
(958,1744,l),
(958,1574,l),
(768,1574,l),
(770,1600,l),
(200,1600,l),
(200,1336,l)
);
},
{
closed = 1;
nodes = (
(850,1504,l),
(850,1744,l),
(572,1744,l),
(572,1504,l)
);
}
);
width = 1352;
}
);
unicode = 3639;
}
{
glyphname = "saraU-thai";
layers = (
{
anchors = (
{
name = _bottom;
pos = (1002,0);
},
{
name = bottom;
pos = (1002,-458);
}
);
layerId = "B1F27B51-9973-4381-9301-4FE46FE1CA59";
shapes = (
{
closed = 1;
nodes = (
(1002,-458,l),
(1002,-174,l),
(830,-174,l),
(830,-216,l),
(958,-216,l),
(958,-458,l)
);
}
);
width = 1214;
},
{
anchors = (
{
name = _bottom;
pos = (1000,0);
},
{
name = bottom;
pos = (1000,-510);
}
);
layerId = "C698F293-3EC0-4A5A-A3A0-0FDB1F5CF265";
shapes = (
{
closed = 1;
nodes = (
(1000,-510,l),
(1000,-160,l),
(706,-160,l),
(706,-300,l),
(836,-300,l),
(836,-510,l)
);
}
);
width = 1164;
},
{
anchors = (
{
name = _bottom;
pos = (1248,0);
},
{
name = bottom;
pos = (1248,-606);
}
);
layerId = "5C20EF92-B63D-42A8-8878-93C2863E0093";
shapes = (
{
closed = 1;
nodes = (
(1248,-606,l),
(1248,-130,l),
(762,-130,l),
(762,-382,l),
(908,-382,l),
(908,-606,l)
);
}
);
width = 1352;
}
);
unicode = 3640;
}
{
glyphname = "saraUu-thai";
layers = (
{
anchors = (
{
name = _bottom;
pos = (1002,0);
},
{
name = bottom;
pos = (994,-450);
}
);
layerId = "B1F27B51-9973-4381-9301-4FE46FE1CA59";
shapes = (
{
closed = 1;
nodes = (
(934,-456,o),
(1002,-388,o),
(1002,-268,cs),
(1002,-174,l),
(958,-174,l),
(958,-268,ls),
(958,-366,o),
(910,-414,o),
(816,-414,cs),
(722,-414,o),
(674,-366,o),
(674,-268,cs),
(674,-174,l),
(532,-174,l),
(532,-216,l),
(630,-216,l),
(630,-268,ls),
(630,-388,o),
(698,-456,o),
(816,-456,cs)
);
}
);
width = 1214;
},
{
anchors = (
{
name = _bottom;
pos = (1000,0);
},
{
name = bottom;
pos = (1000,-544);
}
);
layerId = "C698F293-3EC0-4A5A-A3A0-0FDB1F5CF265";
shapes = (
{
closed = 1;
nodes = (
(892,-556,o),
(1000,-470,o),
(1000,-324,cs),
(1000,-160,l),
(840,-160,l),
(840,-306,ls),
(840,-376,o),
(796,-422,o),
(724,-422,cs),
(652,-422,o),
(608,-376,o),
(608,-306,cs),
(608,-160,l),
(360,-160,l),
(360,-292,l),
(456,-292,l),
(456,-324,ls),
(456,-470,o),
(560,-556,o),
(724,-556,cs)
);
}
);
width = 1164;
},
{
anchors = (
{
name = _bottom;
pos = (1248,0);
},
{
name = bottom;
pos = (1248,-588);
}
);
layerId = "5C20EF92-B63D-42A8-8878-93C2863E0093";
shapes = (
{
closed = 1;
nodes = (
(1104,-588,o),
(1248,-468,o),
(1248,-334,cs),
(1248,-130,l),
(926,-130,l),
(926,-286,ls),
(926,-344,o),
(898,-376,o),
(848,-376,cs),
(798,-376,o),
(770,-344,o),
(770,-286,cs),
(770,-130,l),
(372,-130,l),
(372,-342,l),
(470,-342,l),
(470,-366,ls),
(470,-488,o),
(604,-588,o),
(854,-588,cs)
);
}
);
width = 1352;
}
);
unicode = 3641;
}
{
glyphname = "phinthu-thai";
layers = (
{
anchors = (
{
name = _bottom;
pos = (1002,0);
},
{
name = bottom;
pos = (1020,-272);
}
);
layerId = "B1F27B51-9973-4381-9301-4FE46FE1CA59";
shapes = (
{
closed = 1;
nodes = (
(1006,-272,o),
(1028,-250,o),
(1028,-220,cs),
(1028,-190,o),
(1006,-168,o),
(976,-168,cs),
(946,-168,o),
(922,-190,o),
(922,-220,cs),
(922,-250,o),
(946,-272,o),
(976,-272,cs)
);
}
);
width = 1214;
},
{
anchors = (
{
name = _bottom;
pos = (1000,0);
},
{
name = bottom;
pos = (1000,-364);
}
);
layerId = "C698F293-3EC0-4A5A-A3A0-0FDB1F5CF265";
shapes = (
{
closed = 1;
nodes = (
(980,-364,o),
(1030,-318,o),
(1030,-254,cs),
(1030,-190,o),
(980,-144,o),
(912,-144,cs),
(844,-144,o),
(796,-190,o),
(796,-254,cs),
(796,-318,o),
(844,-364,o),
(912,-364,cs)
);
}
);
width = 1164;
},
{
anchors = (
{
name = _bottom;
pos = (1248,0);
},
{
name = bottom;
pos = (1248,-528);
}
);
layerId = "5C20EF92-B63D-42A8-8878-93C2863E0093";
shapes = (
{
closed = 1;
nodes = (
(1164,-528,o),
(1250,-444,o),
(1250,-326,cs),
(1250,-208,o),
(1164,-124,o),
(1046,-124,cs),
(928,-124,o),
(842,-208,o),
(842,-326,cs),
(842,-444,o),
(928,-528,o),
(1046,-528,cs)
);
}
);
width = 1352;
}
);
unicode = 3642;
}
{
glyphname = "saraE-thai";
kernRight = "saraE-thai";
layers = (
{
layerId = "B1F27B51-9973-4381-9301-4FE46FE1CA59";
shapes = (
{
closed = 1;
nodes = (
(482,-20,o),
(514,-14,o),
(542,-2,c),
(530,38,l),
(506,28,o),
(480,24,o),
(450,24,cs),
(334,24,o),
(260,100,o),
(260,222,cs),
(260,1202,l),
(214,1202,l),
(214,222,ls),
(214,76,o),
(306,-20,o),
(448,-20,cs)
);
}
);
width = 592;
},
{
layerId = "C698F293-3EC0-4A5A-A3A0-0FDB1F5CF265";
shapes = (
{
closed = 1;
nodes = (
(506,-14,o),
(550,-8,o),
(588,6,c),
(554,150,l),
(530,144,o),
(504,140,o),
(478,140,cs),
(396,140,o),
(358,192,o),
(358,302,cs),
(358,1202,l),
(182,1202,l),
(182,274,ls),
(182,88,o),
(280,-14,o),
(458,-14,cs)
);
}
);
width = 616;
},
{
layerId = "5C20EF92-B63D-42A8-8878-93C2863E0093";
shapes = (
{
closed = 1;
nodes = (
(572,-14,o),
(654,-2,o),
(734,22,c),
(674,304,l),
(650,298,o),
(616,292,o),
(596,292,cs),
(544,292,o),
(520,314,o),
(520,362,cs),
(520,1202,l),
(120,1202,l),
(120,324,ls),
(120,102,o),
(246,-14,o),
(492,-14,cs)
);
}
);
width = 750;
}
);
unicode = 3648;
}
{
glyphname = "saraO-thai";
layers = (
{
layerId = "B1F27B51-9973-4381-9301-4FE46FE1CA59";
shapes = (
{
closed = 1;
nodes = (
(488,-20,o),
(522,-14,o),
(550,-2,c),
(538,38,l),
(514,28,o),
(488,24,o),
(458,24,cs),
(342,24,o),
(268,100,o),
(268,222,cs),
(268,1376,ls),
(268,1536,o),
(216,1642,o),
(114,1692,c),
(114,1698,l),
(584,1698,l),
(584,1742,l),
(30,1742,l),
(30,1698,l),
(164,1650,o),
(222,1554,o),
(222,1376,cs),
(222,222,ls),
(222,76,o),
(312,-20,o),
(454,-20,cs)
);
}
);
width = 600;
},
{
layerId = "C698F293-3EC0-4A5A-A3A0-0FDB1F5CF265";
shapes = (
{
closed = 1;
nodes = (
(594,-14,o),
(640,-8,o),
(674,6,c),
(642,154,l),
(620,146,o),
(592,142,o),
(564,142,cs),
(488,142,o),
(446,198,o),
(446,298,cs),
(446,1412,ls),
(446,1564,o),
(376,1674,o),
(256,1714,c),
(256,1726,l),
(704,1726,l),
(704,1874,l),
(72,1874,l),
(72,1714,l),
(206,1688,o),
(270,1594,o),
(270,1424,cs),
(270,274,ls),
(270,86,o),
(364,-14,o),
(546,-14,cs)
);
}
);
width = 704;
},
{
layerId = "5C20EF92-B63D-42A8-8878-93C2863E0093";
shapes = (
{
closed = 1;
nodes = (
(696,-14,o),
(776,-2,o),
(856,22,c),
(798,304,l),
(774,298,o),
(740,292,o),
(720,292,cs),
(668,292,o),
(644,314,o),
(644,362,cs),
(644,1354,ls),
(644,1546,o),
(586,1682,o),
(474,1750,c),
(474,1764,l),
(878,1764,l),
(878,2048,l),
(38,2048,l),
(38,1800,l),
(184,1772,o),
(242,1654,o),
(242,1392,cs),
(242,324,ls),
(242,102,o),
(370,-14,o),
(616,-14,cs)
);
}
);
width = 888;
}
);
unicode = 3650;
}
{
glyphname = "saraAiMaimuan-thai";
layers = (
{
layerId = "B1F27B51-9973-4381-9301-4FE46FE1CA59";
shapes = (
{
closed = 1;
nodes = (
(488,-20,o),
(522,-14,o),
(550,-2,c),
(538,38,l),
(514,28,o),
(488,24,o),
(458,24,cs),
(342,24,o),
(268,100,o),
(268,222,cs),
(268,1018,ls),
(268,1124,o),
(304,1196,o),
(410,1298,cs),
(502,1388,o),
(532,1444,o),
(532,1526,cs),
(532,1662,o),
(434,1752,o),
(290,1752,cs),
(180,1752,o),
(82,1696,o),
(28,1602,c),
(66,1580,l),
(118,1666,o),
(198,1710,o),
(290,1710,cs),
(408,1710,o),
(486,1636,o),
(486,1526,cs),
(486,1456,o),
(460,1408,o),
(372,1322,cs),
(262,1216,o),
(222,1138,o),
(222,1018,cs),
(222,222,ls),
(222,76,o),
(312,-20,o),
(454,-20,cs)
);
}
);
width = 600;
},
{
layerId = "C698F293-3EC0-4A5A-A3A0-0FDB1F5CF265";
shapes = (
{
closed = 1;
nodes = (
(594,-14,o),
(640,-8,o),
(674,6,c),
(642,154,l),
(620,146,o),
(592,142,o),
(564,142,cs),
(488,142,o),
(446,198,o),
(446,298,cs),
(446,1052,ls),
(446,1158,o),
(472,1218,o),
(546,1288,cs),
(670,1402,o),
(716,1486,o),
(716,1600,cs),
(716,1786,o),
(594,1898,o),
(392,1898,cs),
(202,1898,o),
(58,1800,o),
(2,1634,c),
(158,1590,l),
(198,1692,o),
(280,1750,o),
(384,1750,cs),
(488,1750,o),
(544,1696,o),
(544,1600,cs),
(544,1534,o),
(516,1480,o),
(438,1408,cs),
(306,1284,o),
(270,1210,o),
(270,1066,cs),
(270,274,ls),
(270,86,o),
(364,-14,o),
(546,-14,cs)
);
}
);
width = 704;
},
{
layerId = "5C20EF92-B63D-42A8-8878-93C2863E0093";
shapes = (
{
closed = 1;
nodes = (
(696,-14,o),
(776,-2,o),
(856,22,c),
(798,304,l),
(774,298,o),
(740,292,o),
(720,292,cs),
(668,292,o),
(644,314,o),
(644,362,cs),
(644,1138,ls),
(644,1250,o),
(684,1324,o),
(802,1430,cs),
(920,1536,o),
(960,1610,o),
(960,1720,cs),
(960,1942,o),
(784,2078,o),
(496,2078,cs),
(188,2078,o),
(-8,1924,o),
(-18,1672,c),
(348,1672,l),
(356,1748,o),
(398,1792,o),
(466,1792,cs),
(526,1792,o),
(564,1758,o),
(564,1704,cs),
(564,1656,o),
(538,1622,o),
(446,1552,cs),
(300,1442,o),
(242,1354,o),
(242,1226,cs),
(242,324,ls),
(242,102,o),
(370,-14,o),
(616,-14,cs)
);
}
);
width = 888;
}
);
unicode = 3651;
}
{
glyphname = "saraAiMaimalai-thai";
layers = (
{
layerId = "B1F27B51-9973-4381-9301-4FE46FE1CA59";
shapes = (
{
closed = 1;
nodes = (
(488,-20,o),
(522,-14,o),
(550,-2,c),
(538,38,l),
(514,28,o),
(488,24,o),
(458,24,cs),
(342,24,o),
(268,100,o),
(268,222,cs),
(268,1296,ls),
(268,1504,o),
(352,1632,o),
(530,1698,c),
(530,1742,l),
(46,1742,l),
(46,1698,l),
(448,1698,l),
(448,1692,l),
(294,1622,o),
(222,1496,o),
(222,1296,cs),
(222,222,ls),
(222,76,o),
(312,-20,o),
(454,-20,cs)
);
}
);
width = 600;
},
{
layerId = "C698F293-3EC0-4A5A-A3A0-0FDB1F5CF265";
shapes = (
{
closed = 1;
nodes = (
(594,-14,o),
(640,-8,o),
(674,6,c),
(642,154,l),
(620,146,o),
(592,142,o),
(564,142,cs),
(488,142,o),
(446,198,o),
(446,298,cs),
(446,1424,ls),
(446,1600,o),
(512,1688,o),
(670,1714,c),
(670,1874,l),
(88,1874,l),
(88,1726,l),
(464,1726,l),
(464,1714,l),
(338,1676,o),
(270,1566,o),
(270,1412,cs),
(270,274,ls),
(270,86,o),
(364,-14,o),
(546,-14,cs)
);
}
);
width = 704;
},
{
layerId = "5C20EF92-B63D-42A8-8878-93C2863E0093";
shapes = (
{
closed = 1;
nodes = (
(696,-14,o),
(776,-2,o),
(856,22,c),
(798,304,l),
(774,298,o),
(740,292,o),
(720,292,cs),
(668,292,o),
(644,314,o),
(644,362,cs),
(644,1392,ls),
(644,1658,o),
(708,1772,o),
(878,1800,c),
(878,2048,l),
(74,2048,l),
(74,1764,l),
(410,1764,l),
(410,1750,l),
(300,1678,o),
(242,1530,o),
(242,1318,cs),
(242,324,ls),
(242,102,o),
(370,-14,o),
(616,-14,cs)
);
}
);
width = 888;
}
);
unicode = 3652;
}
{
glyphname = "lakkhangyao-thai";
kernLeft = "saraAa-thai";
kernRight = "saraAa-thai";
layers = (
{
layerId = "B1F27B51-9973-4381-9301-4FE46FE1CA59";
shapes = (
{
closed = 1;
nodes = (
(664,-338,l),
(664,898,ls),
(664,1092,o),
(550,1218,o),
(370,1218,cs),
(228,1218,o),
(114,1138,o),
(58,996,c),
(102,980,l),
(152,1104,o),
(248,1174,o),
(370,1174,cs),
(522,1174,o),
(618,1066,o),
(618,898,cs),
(618,-338,l)
);
}
);
width = 876;
},
{
layerId = "C698F293-3EC0-4A5A-A3A0-0FDB1F5CF265";
shapes = (
{
closed = 1;
nodes = (
(782,-482,l),
(782,844,ls),
(782,1076,o),
(638,1226,o),
(416,1226,cs),
(226,1226,o),
(84,1116,o),
(44,940,c),
(200,894,l),
(226,1004,o),
(306,1072,o),
(410,1072,cs),
(528,1072,o),
(606,984,o),
(606,846,cs),
(606,-482,l)
);
}
);
width = 944;
},
{
layerId = "5C20EF92-B63D-42A8-8878-93C2863E0093";
shapes = (
{
closed = 1;
nodes = (
(984,-482,l),
(984,774,ls),
(984,1054,o),
(804,1226,o),
(510,1226,cs),
(216,1226,o),
(22,1054,o),
(14,784,c),
(388,784,l),
(388,866,o),
(422,912,o),
(484,912,cs),
(542,912,o),
(580,866,o),
(580,798,cs),
(580,-482,l)
);
}
);
width = 1082;
}
);
metricLeft = "saraAa-thai";
metricRight = "saraAa-thai";
unicode = 3653;
}
{
glyphname = "maiyamok-thai";
layers = (
{
layerId = "B1F27B51-9973-4381-9301-4FE46FE1CA59";
shapes = (
{
closed = 1;
nodes = (
(914,-338,l),
(914,894,ls),
(914,1068,o),
(836,1180,o),
(694,1210,c),
(534,1072,l),
(526,1072,l),
(364,1210,l),
(230,1186,o),
(138,1062,o),
(138,904,cs),
(138,722,o),
(262,596,o),
(438,596,cs),
(480,596,o),
(520,604,o),
(560,620,c),
(546,662,l),
(512,648,o),
(476,640,o),
(438,640,cs),
(290,640,o),
(186,750,o),
(186,904,cs),
(186,1036,o),
(262,1146,o),
(368,1166,c),
(342,1172,l),
(524,1018,l),
(536,1018,l),
(716,1172,l),
(686,1166,l),
(804,1144,o),
(868,1048,o),
(868,894,cs),
(868,-338,l)
);
}
);
width = 1164;
},
{
layerId = "C698F293-3EC0-4A5A-A3A0-0FDB1F5CF265";
shapes = (
{
closed = 1;
nodes = (
(974,-482,l),
(974,930,ls),
(974,1096,o),
(878,1204,o),
(712,1218,c),
(552,1078,l),
(540,1078,l),
(378,1218,l),
(210,1194,o),
(104,1056,o),
(104,864,cs),
(104,660,o),
(230,530,o),
(428,530,cs),
(476,530,o),
(522,540,o),
(568,556,c),
(544,696,l),
(514,684,o),
(484,678,o),
(454,678,cs),
(348,678,o),
(280,754,o),
(280,878,cs),
(280,966,o),
(314,1032,o),
(372,1062,c),
(354,1064,l),
(514,926,l),
(576,926,l),
(734,1064,l),
(716,1058,l),
(764,1052,o),
(798,1004,o),
(798,940,cs),
(798,-482,l)
);
}
);
width = 1152;
},
{
layerId = "5C20EF92-B63D-42A8-8878-93C2863E0093";
shapes = (
{
closed = 1;
nodes = (
(1180,-482,l),
(1180,810,ls),
(1180,1054,o),
(1054,1188,o),
(790,1226,c),
(640,1116,l),
(630,1116,l),
(480,1226,l),
(210,1200,o),
(58,1040,o),
(58,780,cs),
(58,510,o),
(226,346,o),
(502,346,cs),
(564,346,o),
(622,356,o),
(672,370,c),
(672,658,l),
(654,648,o),
(624,642,o),
(596,642,cs),
(510,642,o),
(454,700,o),
(454,790,cs),
(454,860,o),
(490,916,o),
(546,940,c),
(530,940,l),
(620,880,l),
(634,880,l),
(730,944,l),
(710,940,l),
(756,924,o),
(776,882,o),
(776,814,cs),
(776,-482,l)
);
}
);
width = 1284;
}
);
unicode = 3654;
}
{
glyphname = "maitaikhu-thai";
layers = (
{
anchors = (
{
name = _top;
pos = (1000,1202);
},
{
name = top;
pos = (932,1724);
}
);
layerId = "B1F27B51-9973-4381-9301-4FE46FE1CA59";
shapes = (
{
closed = 1;
nodes = (
(872,1390,o),
(900,1398,o),
(930,1412,c),
(918,1450,l),
(892,1438,o),
(866,1434,o),
(840,1434,cs),
(770,1434,o),
(720,1470,o),
(706,1536,c),
(658,1536,l),
(582,1438,l),
(522,1438,ls),
(436,1438,o),
(388,1482,o),
(388,1560,cs),
(388,1638,o),
(436,1682,o),
(522,1682,cs),
(932,1682,l),
(932,1724,l),
(522,1724,ls),
(414,1724,o),
(344,1658,o),
(344,1560,cs),
(344,1462,o),
(414,1394,o),
(522,1394,cs),
(600,1394,l),
(678,1498,l),
(684,1498,l),
(702,1432,o),
(762,1390,o),
(840,1390,cs)
);
}
);
width = 1214;
},
{
anchors = (
{
name = _top;
pos = (1000,1202);
},
{
name = top;
pos = (898,1788);
}
);
layerId = "C698F293-3EC0-4A5A-A3A0-0FDB1F5CF265";
shapes = (
{
closed = 1;
nodes = (
(836,1356,o),
(870,1364,o),
(902,1378,c),
(878,1504,l),
(850,1494,o),
(822,1490,o),
(796,1490,cs),
(732,1490,o),
(692,1518,o),
(682,1570,c),
(602,1570,l),
(526,1492,l),
(484,1492,ls),
(434,1492,o),
(402,1526,o),
(402,1576,cs),
(402,1626,o),
(434,1660,o),
(484,1660,cs),
(902,1660,l),
(902,1788,l),
(462,1788,ls),
(326,1788,o),
(238,1702,o),
(238,1574,cs),
(238,1446,o),
(324,1362,o),
(462,1362,cs),
(572,1362,l),
(644,1444,l),
(656,1444,l),
(684,1386,o),
(732,1356,o),
(802,1356,cs)
);
}
);
width = 1164;
},
{
anchors = (
{
name = _top;
pos = (1248,1202);
},
{
name = top;
pos = (1118,1896);
}
);
layerId = "5C20EF92-B63D-42A8-8878-93C2863E0093";
shapes = (
{
closed = 1;
nodes = (
(1036,1326,o),
(1074,1336,o),
(1118,1356,c),
(1090,1558,l),
(1054,1544,o),
(1020,1538,o),
(988,1538,cs),
(920,1538,o),
(870,1566,o),
(856,1612,c),
(762,1612,l),
(696,1544,l),
(648,1544,ls),
(596,1544,o),
(562,1572,o),
(562,1620,cs),
(562,1666,o),
(596,1696,o),
(648,1696,cs),
(1118,1696,l),
(1118,1896,l),
(574,1896,ls),
(394,1896,o),
(280,1786,o),
(280,1614,cs),
(280,1444,o),
(392,1336,o),
(574,1336,cs),
(760,1336,l),
(814,1406,l),
(828,1406,l),
(858,1356,o),
(920,1326,o),
(994,1326,cs)
);
}
);
width = 1352;
}
);
unicode = 3655;
}
{
glyphname = "maiEk-thai";
layers = (
{
anchors = (
{
name = _top;
pos = (1002,1202);
},
{
name = top;
pos = (1002,1676);
}
);
layerId = "B1F27B51-9973-4381-9301-4FE46FE1CA59";
shapes = (
{
closed = 1;
nodes = (
(1002,1394,l),
(1002,1676,l),
(958,1676,l),
(958,1394,l)
);
}
);
width = 1214;
},
{
anchors = (
{
name = _top;
pos = (1000,1202);
},
{
name = top;
pos = (994,1736);
}
);
layerId = "C698F293-3EC0-4A5A-A3A0-0FDB1F5CF265";
shapes = (
{
closed = 1;
nodes = (
(994,1362,l),
(994,1736,l),
(828,1736,l),
(828,1362,l)
);
}
);
width = 1164;
},
{
anchors = (
{
name = _top;
pos = (1248,1202);
},
{
name = top;
pos = (1238,1780);
}
);
layerId = "5C20EF92-B63D-42A8-8878-93C2863E0093";
shapes = (
{
closed = 1;
nodes = (
(1238,1336,l),
(1238,1780,l),
(856,1780,l),
(856,1336,l)
);
}
);
width = 1352;
}
);
unicode = 3656;
}
{
glyphname = "maiTho-thai";
layers = (
{
anchors = (
{
name = _top;
pos = (1002,1202);
},
{
name = top;
pos = (1004,1626);
}
);
layerId = "B1F27B51-9973-4381-9301-4FE46FE1CA59";
shapes = (
{
closed = 1;
nodes = (
(1144,1394,l),
(1144,1438,l),
(760,1438,l),
(760,1496,ls),
(760,1588,o),
(720,1626,o),
(626,1626,cs),
(542,1626,l),
(542,1584,l),
(626,1584,ls),
(688,1584,o),
(716,1558,o),
(716,1496,cs),
(716,1394,l)
);
}
);
width = 1214;
},
{
anchors = (
{
name = _top;
pos = (1000,1202);
},
{
name = top;
pos = (1000,1726);
}
);
layerId = "C698F293-3EC0-4A5A-A3A0-0FDB1F5CF265";
shapes = (
{
closed = 1;
nodes = (
(1126,1362,l),
(1126,1506,l),
(766,1506,l),
(766,1566,ls),
(766,1678,o),
(702,1726,o),
(588,1726,cs),
(438,1726,l),
(438,1588,l),
(524,1588,ls),
(576,1588,o),
(598,1566,o),
(598,1514,cs),
(598,1362,l)
);
}
);
width = 1164;
},
{
anchors = (
{
name = _top;
pos = (1248,1202);
},
{
name = top;
pos = (1250,1766);
}
);
layerId = "5C20EF92-B63D-42A8-8878-93C2863E0093";
shapes = (
{
closed = 1;
nodes = (
(1326,1336,l),
(1326,1592,l),
(974,1592,l),
(974,1630,ls),
(974,1718,o),
(926,1766,o),
(838,1766,cs),
(542,1766,l),
(542,1554,l),
(626,1554,ls),
(668,1554,o),
(694,1530,o),
(694,1488,cs),
(694,1336,l)
);
}
);
width = 1352;
}
);
unicode = 3657;
}
{
glyphname = "maiTri-thai";
layers = (
{
anchors = (
{
name = _top;
pos = (1002,1202);
},
{
name = top;
pos = (1002,1690);
}
);
layerId = "B1F27B51-9973-4381-9301-4FE46FE1CA59";
shapes = (
{
closed = 1;
nodes = (
(402,1394,l),
(402,1534,ls),
(402,1604,o),
(430,1638,o),
(494,1650,c),
(454,1670,l),
(616,1518,l),
(628,1518,l),
(790,1670,l),
(750,1650,l),
(814,1638,o),
(840,1604,o),
(840,1534,cs),
(840,1394,l),
(1090,1394,l),
(1090,1438,l),
(866,1438,l),
(886,1418,l),
(886,1534,ls),
(886,1628,o),
(840,1680,o),
(750,1690,c),
(624,1570,l),
(620,1570,l),
(494,1690,l),
(402,1680,o),
(358,1628,o),
(358,1534,cs),
(358,1394,l)
);
}
);
width = 1214;
},
{
anchors = (
{
name = _top;
pos = (1000,1202);
},
{
name = top;
pos = (1000,1756);
}
);
layerId = "C698F293-3EC0-4A5A-A3A0-0FDB1F5CF265";
shapes = (
{
closed = 1;
nodes = (
(416,1362,l),
(416,1538,ls),
(416,1562,o),
(428,1584,o),
(452,1598,c),
(430,1602,l),
(570,1498,l),
(594,1498,l),
(734,1602,l),
(712,1598,l),
(736,1588,o),
(750,1566,o),
(750,1538,cs),
(750,1362,l),
(1040,1362,l),
(1040,1506,l),
(818,1506,l),
(896,1424,l),
(896,1566,ls),
(896,1684,o),
(834,1746,o),
(722,1756,c),
(584,1650,l),
(578,1650,l),
(442,1756,l),
(332,1746,o),
(266,1678,o),
(266,1560,cs),
(266,1362,l)
);
}
);
width = 1164;
},
{
anchors = (
{
name = _top;
pos = (1248,1202);
},
{
name = top;
pos = (1246,1776);
}
);
layerId = "5C20EF92-B63D-42A8-8878-93C2863E0093";
shapes = (
{
closed = 1;
nodes = (
(636,1336,l),
(636,1456,ls),
(636,1480,o),
(648,1506,o),
(670,1518,c),
(608,1554,l),
(722,1448,l),
(744,1448,l),
(860,1554,l),
(802,1518,l),
(822,1504,o),
(834,1480,o),
(834,1456,cs),
(834,1336,l),
(1270,1336,l),
(1270,1560,l),
(1092,1560,l),
(1128,1482,l),
(1128,1532,ls),
(1128,1678,o),
(1036,1770,o),
(862,1776,c),
(736,1662,l),
(730,1662,l),
(606,1776,l),
(422,1770,o),
(310,1674,o),
(310,1522,cs),
(310,1336,l)
);
}
);
width = 1352;
}
);
unicode = 3658;
}
{
glyphname = "maiChattawa-thai";
layers = (
{
anchors = (
{
name = _top;
pos = (1002,1202);
},
{
name = top;
pos = (1002,1704);
}
);
layerId = "B1F27B51-9973-4381-9301-4FE46FE1CA59";
shapes = (
{
closed = 1;
nodes = (
(1002,1394,l),
(1002,1704,l),
(958,1704,l),
(958,1394,l)
);
},
{
closed = 1;
nodes = (
(1156,1528,l),
(1156,1570,l),
(802,1570,l),
(802,1528,l)
);
}
);
width = 1214;
},
{
anchors = (
{
name = _top;
pos = (1000,1202);
},
{
name = top;
pos = (992,1778);
}
);
layerId = "C698F293-3EC0-4A5A-A3A0-0FDB1F5CF265";
shapes = (
{
closed = 1;
nodes = (
(992,1362,l),
(992,1778,l),
(830,1778,l),
(830,1362,l)
);
},
{
closed = 1;
nodes = (
(1162,1512,l),
(1162,1630,l),
(660,1630,l),
(660,1512,l)
);
}
);
width = 1164;
},
{
anchors = (
{
name = _top;
pos = (1248,1202);
},
{
name = top;
pos = (1216,1832);
}
);
layerId = "5C20EF92-B63D-42A8-8878-93C2863E0093";
shapes = (
{
closed = 1;
nodes = (
(1216,1336,l),
(1216,1832,l),
(878,1832,l),
(878,1336,l)
);
},
{
closed = 1;
nodes = (
(1390,1474,l),
(1390,1700,l),
(704,1700,l),
(704,1474,l)
);
}
);
width = 1352;
}
);
unicode = 3659;
}
{
glyphname = "thanthakhat-thai";
layers = (
{
anchors = (
{
name = _top;
pos = (1002,1202);
},
{
name = top;
pos = (1002,1626);
}
);
layerId = "B1F27B51-9973-4381-9301-4FE46FE1CA59";
shapes = (
{
closed = 1;
nodes = (
(792,1394,l),
(792,1452,ls),
(792,1540,o),
(836,1584,o),
(926,1584,cs),
(1130,1584,l),
(1130,1626,l),
(926,1626,ls),
(806,1626,o),
(746,1570,o),
(746,1452,cs),
(746,1394,l)
);
}
);
width = 1214;
},
{
anchors = (
{
name = _top;
pos = (1000,1202);
},
{
name = top;
pos = (1000,1632);
}
);
layerId = "C698F293-3EC0-4A5A-A3A0-0FDB1F5CF265";
shapes = (
{
closed = 1;
nodes = (
(830,1362,l),
(830,1394,ls),
(830,1456,o),
(862,1490,o),
(926,1490,cs),
(1106,1490,l),
(1106,1632,l),
(888,1632,ls),
(746,1632,o),
(670,1552,o),
(670,1410,cs),
(670,1362,l)
);
}
);
width = 1164;
},
{
anchors = (
{
name = _top;
pos = (1248,1202);
},
{
name = top;
pos = (1248,1742);
}
);
layerId = "5C20EF92-B63D-42A8-8878-93C2863E0093";
shapes = (
{
closed = 1;
nodes = (
(1042,1336,l),
(1042,1382,ls),
(1042,1444,o),
(1074,1472,o),
(1140,1472,cs),
(1326,1472,l),
(1326,1742,l),
(1002,1742,ls),
(798,1742,o),
(682,1634,o),
(682,1450,cs),
(682,1336,l)
);
}
);
width = 1352;
}
);
unicode = 3660;
}
{
glyphname = "nikhahit-thai";
layers = (
{
anchors = (
{
name = _top;
pos = (1002,1202);
},
{
name = top;
pos = (994,1640);
}
);
layerId = "B1F27B51-9973-4381-9301-4FE46FE1CA59";
shapes = (
{
closed = 1;
nodes = (
(1060,1366,o),
(1126,1432,o),
(1126,1520,cs),
(1126,1608,o),
(1060,1676,o),
(972,1676,cs),
(884,1676,o),
(816,1608,o),
(816,1520,cs),
(816,1432,o),
(884,1366,o),
(972,1366,cs)
);
},
{
closed = 1;
nodes = (
(908,1410,o),
(864,1454,o),
(864,1520,cs),
(864,1586,o),
(908,1632,o),
(972,1632,cs),
(1036,1632,o),
(1080,1586,o),
(1080,1520,cs),
(1080,1454,o),
(1036,1410,o),
(972,1410,cs)
);
}
);
width = 1214;
},
{
anchors = (
{
name = _top;
pos = (1000,1202);
},
{
name = top;
pos = (994,1682);
}
);
layerId = "C698F293-3EC0-4A5A-A3A0-0FDB1F5CF265";
shapes = (
{
closed = 1;
nodes = (
(1022,1342,o),
(1102,1414,o),
(1102,1516,cs),
(1102,1618,o),
(1022,1690,o),
(912,1690,cs),
(802,1690,o),
(724,1618,o),
(724,1516,cs),
(724,1414,o),
(802,1342,o),
(912,1342,cs)
);
},
{
closed = 1;
nodes = (
(874,1440,o),
(850,1470,o),
(850,1516,cs),
(850,1562,o),
(874,1592,o),
(912,1592,cs),
(950,1592,o),
(976,1562,o),
(976,1516,cs),
(976,1470,o),
(950,1440,o),
(912,1440,cs)
);
}
);
width = 1164;
},
{
anchors = (
{
name = _top;
pos = (1248,1202);
},
{
name = top;
pos = (1194,1758);
}
);
layerId = "5C20EF92-B63D-42A8-8878-93C2863E0093";
shapes = (
{
closed = 1;
nodes = (
(1194,1288,o),
(1316,1398,o),
(1316,1550,cs),
(1316,1702,o),
(1194,1808,o),
(1026,1808,cs),
(856,1808,o),
(738,1702,o),
(738,1550,cs),
(738,1398,o),
(856,1288,o),
(1026,1288,cs)
);
},
{
closed = 1;
nodes = (
(978,1458,o),
(952,1492,o),
(952,1550,cs),
(952,1606,o),
(978,1640,o),
(1026,1640,cs),
(1074,1640,o),
(1102,1606,o),
(1102,1550,cs),
(1102,1494,o),
(1074,1458,o),
(1026,1458,cs)
);
}
);
width = 1352;
}
);
unicode = 3661;
}
{
glyphname = "yamakkan-thai";
layers = (
{
anchors = (
{
name = _top;
pos = (1002,1202);
}
);
layerId = "B1F27B51-9973-4381-9301-4FE46FE1CA59";
shapes = (
{
closed = 1;
nodes = (
(808,1394,l),
(808,1460,ls),
(808,1506,o),
(826,1528,o),
(874,1528,cs),
(968,1528,l),
(968,1594,ls),
(968,1640,o),
(986,1660,o),
(1032,1660,cs),
(1088,1660,l),
(1088,1702,l),
(1032,1702,ls),
(962,1702,o),
(924,1664,o),
(924,1596,cs),
(924,1570,l),
(872,1570,ls),
(800,1570,o),
(764,1534,o),
(764,1462,cs),
(764,1394,l)
);
}
);
width = 1214;
},
{
anchors = (
{
name = _top;
pos = (1000,1202);
}
);
layerId = "C698F293-3EC0-4A5A-A3A0-0FDB1F5CF265";
shapes = (
{
closed = 1;
nodes = (
(886,1362,l),
(886,1396,ls),
(886,1436,o),
(900,1450,o),
(938,1450,cs),
(1000,1450,l),
(1000,1536,ls),
(1000,1560,o),
(1012,1568,o),
(1038,1568,cs),
(1114,1568,l),
(1114,1698,l),
(960,1698,ls),
(888,1698,o),
(848,1660,o),
(848,1588,cs),
(848,1560,l),
(836,1560,ls),
(764,1560,o),
(726,1522,o),
(726,1450,cs),
(726,1362,l)
);
}
);
width = 1164;
},
{
anchors = (
{
name = _top;
pos = (1248,1202);
}
);
layerId = "5C20EF92-B63D-42A8-8878-93C2863E0093";
shapes = (
{
closed = 1;
nodes = (
(1024,1336,l),
(1024,1374,ls),
(1024,1420,o),
(1040,1436,o),
(1084,1436,cs),
(1178,1436,l),
(1178,1534,ls),
(1178,1562,o),
(1188,1572,o),
(1218,1572,cs),
(1280,1572,l),
(1280,1792,l),
(1078,1792,ls),
(990,1792,o),
(942,1744,o),
(942,1656,cs),
(942,1614,l),
(880,1614,ls),
(756,1614,o),
(686,1544,o),
(686,1420,cs),
(686,1336,l)
);
}
);
width = 1352;
}
);
unicode = 3662;
}
{
glyphname = "fongman-thai";
layers = (
{
layerId = "B1F27B51-9973-4381-9301-4FE46FE1CA59";
shapes = (
{
closed = 1;
nodes = (
(866,86,o),
(1060,280,o),
(1060,558,cs),
(1060,836,o),
(866,1032,o),
(590,1032,cs),
(314,1032,o),
(120,836,o),
(120,558,cs),
(120,280,o),
(314,86,o),
(590,86,cs)
);
},
{
closed = 1;
nodes = (
(342,130,o),
(168,306,o),
(168,558,cs),
(168,810,o),
(342,988,o),
(590,988,cs),
(838,988,o),
(1014,810,o),
(1014,558,cs),
(1014,306,o),
(838,130,o),
(590,130,cs)
);
},
{
closed = 1;
nodes = (
(732,304,o),
(838,412,o),
(838,558,cs),
(838,704,o),
(732,814,o),
(590,814,cs),
(448,814,o),
(344,704,o),
(344,558,cs),
(344,412,o),
(448,304,o),
(590,304,cs)
);
},
{
closed = 1;
nodes = (
(470,348,o),
(390,430,o),
(390,558,cs),
(390,686,o),
(470,770,o),
(590,770,cs),
(710,770,o),
(792,686,o),
(792,558,cs),
(792,430,o),
(710,348,o),
(590,348,cs)
);
}
);
width = 1182;
},
{
layerId = "C698F293-3EC0-4A5A-A3A0-0FDB1F5CF265";
shapes = (
{
closed = 1;
nodes = (
(896,84,o),
(1108,288,o),
(1108,570,cs),
(1108,852,o),
(896,1056,o),
(606,1056,cs),
(316,1056,o),
(104,852,o),
(104,570,cs),
(104,288,o),
(316,84,o),
(606,84,cs)
);
},
{
closed = 1;
nodes = (
(400,214,o),
(252,364,o),
(252,570,cs),
(252,776,o),
(400,926,o),
(606,926,cs),
(812,926,o),
(962,776,o),
(962,570,cs),
(962,364,o),
(812,214,o),
(606,214,cs)
);
},
{
closed = 1;
nodes = (
(750,316,o),
(856,422,o),
(856,570,cs),
(856,718,o),
(750,824,o),
(606,824,cs),
(462,824,o),
(358,718,o),
(358,570,cs),
(358,422,o),
(462,316,o),
(606,316,cs)
);
},
{
closed = 1;
nodes = (
(530,430,o),
(476,490,o),
(476,570,cs),
(476,650,o),
(530,710,o),
(606,710,cs),
(682,710,o),
(738,650,o),
(738,570,cs),
(738,490,o),
(682,430,o),
(606,430,cs)
);
}
);
width = 1214;
},
{
layerId = "5C20EF92-B63D-42A8-8878-93C2863E0093";
shapes = (
{
closed = 1;
nodes = (
(942,62,o),
(1170,280,o),
(1170,584,cs),
(1170,888,o),
(942,1108,o),
(624,1108,cs),
(306,1108,o),
(76,888,o),
(76,584,cs),
(76,280,o),
(306,62,o),
(624,62,cs)
);
},
{
closed = 1;
nodes = (
(422,242,o),
(274,386,o),
(274,584,cs),
(274,782,o),
(422,928,o),
(624,928,cs),
(826,928,o),
(972,782,o),
(972,584,cs),
(972,386,o),
(826,242,o),
(624,242,cs)
);
},
{
closed = 1;
nodes = (
(772,338,o),
(880,440,o),
(880,584,cs),
(880,728,o),
(772,832,o),
(624,832,cs),
(476,832,o),
(368,728,o),
(368,584,cs),
(368,440,o),
(476,338,o),
(624,338,cs)
);
},
{
closed = 1;
nodes = (
(566,478,o),
(524,522,o),
(524,584,cs),
(524,646,o),
(566,692,o),
(624,692,cs),
(682,692,o),
(724,646,o),
(724,584,cs),
(724,522,o),
(682,478,o),
(624,478,cs)
);
}
);
width = 1246;
}
);
unicode = 3663;
}
{
glyphname = "zero-thai";
kernLeft = "zero-thai";
kernRight = "zero-thai";
layers = (
{
layerId = "B1F27B51-9973-4381-9301-4FE46FE1CA59";
shapes = (
{
closed = 1;
nodes = (
(884,-24,o),
(1086,204,o),
(1086,530,cs),
(1086,856,o),
(884,1082,o),
(594,1082,cs),
(304,1082,o),
(102,856,o),
(102,530,cs),
(102,204,o),
(304,-24,o),
(594,-24,cs)
);
},
{
closed = 1;
nodes = (
(332,20,o),
(148,232,o),
(148,530,cs),
(148,828,o),
(332,1038,o),
(594,1038,cs),
(856,1038,o),
(1038,828,o),
(1038,530,cs),
(1038,232,o),
(856,20,o),
(594,20,cs)
);
}
);
width = 1188;
},
{
layerId = "C698F293-3EC0-4A5A-A3A0-0FDB1F5CF265";
shapes = (
{
closed = 1;
nodes = (
(948,-24,o),
(1172,206,o),
(1172,522,cs),
(1172,848,o),
(948,1082,o),
(638,1082,cs),
(328,1082,o),
(104,848,o),
(104,522,cs),
(104,206,o),
(328,-24,o),
(638,-24,cs)
);
},
{
closed = 1;
nodes = (
(430,130,o),
(280,296,o),
(280,522,cs),
(280,758,o),
(430,928,o),
(638,928,cs),
(846,928,o),
(998,758,o),
(998,522,cs),
(998,296,o),
(846,130,o),
(638,130,cs)
);
}
);
width = 1276;
},
{
layerId = "5C20EF92-B63D-42A8-8878-93C2863E0093";
shapes = (
{
closed = 1;
nodes = (
(994,-20,o),
(1224,198,o),
(1224,530,cs),
(1224,862,o),
(994,1082,o),
(642,1082,cs),
(290,1082,o),
(62,862,o),
(62,530,cs),
(62,198,o),
(290,-20,o),
(642,-20,cs)
);
},
{
closed = 1;
nodes = (
(532,276,o),
(472,370,o),
(472,534,cs),
(472,698,o),
(532,792,o),
(642,792,cs),
(752,792,o),
(814,698,o),
(814,534,cs),
(814,370,o),
(752,276,o),
(642,276,cs)
);
}
);
width = 1286;
}
);
metricRight = "=|";
unicode = 3664;
}
{
glyphname = "one-thai";
kernLeft = "zero-thai";
kernRight = "zero-thai";
layers = (
{
layerId = "B1F27B51-9973-4381-9301-4FE46FE1CA59";
shapes = (
{
closed = 1;
nodes = (
(866,-12,o),
(1056,250,o),
(1056,566,cs),
(1056,882,o),
(864,1082,o),
(560,1082,cs),
(282,1082,o),
(102,912,o),
(102,648,cs),
(102,406,o),
(254,254,o),
(494,254,cs),
(532,254,o),
(566,256,o),
(598,264,c),
(590,308,l),
(560,300,o),
(528,296,o),
(494,296,cs),
(280,296,o),
(148,432,o),
(148,648,cs),
(148,886,o),
(310,1038,o),
(560,1038,cs),
(836,1038,o),
(1010,856,o),
(1010,566,cs),
(1010,276,o),
(836,32,o),
(582,-30,c),
(586,-78,l)
);
}
);
width = 1158;
},
{
layerId = "C698F293-3EC0-4A5A-A3A0-0FDB1F5CF265";
shapes = (
{
closed = 1;
nodes = (
(920,-118,o),
(1150,148,o),
(1150,524,cs),
(1150,874,o),
(946,1082,o),
(604,1082,cs),
(292,1082,o),
(98,906,o),
(98,620,cs),
(98,366,o),
(256,208,o),
(510,208,cs),
(570,208,o),
(626,216,o),
(682,232,c),
(658,372,l),
(620,360,o),
(582,354,o),
(540,354,cs),
(372,354,o),
(272,454,o),
(272,620,cs),
(272,810,o),
(400,928,o),
(606,928,cs),
(838,928,o),
(976,778,o),
(976,524,cs),
(976,228,o),
(800,24,o),
(506,-18,c),
(536,-180,l)
);
}
);
width = 1256;
},
{
layerId = "5C20EF92-B63D-42A8-8878-93C2863E0093";
shapes = (
{
closed = 1;
nodes = (
(966,-106,o),
(1216,158,o),
(1216,534,cs),
(1216,884,o),
(998,1082,o),
(616,1082,cs),
(266,1082,o),
(54,910,o),
(54,628,cs),
(54,386,o),
(210,236,o),
(466,236,cs),
(546,236,o),
(616,250,o),
(676,280,c),
(634,512,l),
(612,504,o),
(592,500,o),
(572,500,cs),
(492,500,o),
(440,558,o),
(440,650,cs),
(440,752,o),
(506,818,o),
(610,818,cs),
(740,818,o),
(816,714,o),
(816,530,cs),
(816,300,o),
(706,140,o),
(514,92,c),
(542,-180,l)
);
}
);
width = 1278;
}
);
unicode = 3665;
}
{
glyphname = "two-thai";
layers = (
{
layerId = "B1F27B51-9973-4381-9301-4FE46FE1CA59";
shapes = (
{
closed = 1;
nodes = (
(1058,-14,o),
(1278,172,o),
(1278,458,cs),
(1278,766,ls),
(1278,940,o),
(1200,1052,o),
(1058,1082,c),
(896,944,l),
(890,944,l),
(728,1082,l),
(598,1058,o),
(510,938,o),
(510,784,cs),
(510,606,o),
(630,482,o),
(802,482,cs),
(844,482,o),
(884,490,o),
(924,506,c),
(910,548,l),
(876,534,o),
(840,526,o),
(802,526,cs),
(658,526,o),
(556,634,o),
(556,784,cs),
(556,912,o),
(630,1020,o),
(732,1038,c),
(704,1044,l),
(888,890,l),
(898,890,l),
(1080,1044,l),
(1050,1038,l),
(1168,1016,o),
(1232,920,o),
(1232,766,cs),
(1232,458,ls),
(1232,198,o),
(1028,30,o),
(716,30,cs),
(404,30,o),
(200,198,o),
(200,458,cs),
(200,1338,l),
(152,1338,l),
(152,458,ls),
(152,172,o),
(374,-14,o),
(716,-14,cs)
);
}
);
width = 1424;
},
{
layerId = "C698F293-3EC0-4A5A-A3A0-0FDB1F5CF265";
shapes = (
{
closed = 1;
nodes = (
(1074,-24,o),
(1298,142,o),
(1298,406,cs),
(1298,786,ls),
(1298,954,o),
(1204,1060,o),
(1042,1074,c),
(908,956,l),
(896,956,l),
(754,1074,l),
(592,1052,o),
(490,926,o),
(490,746,cs),
(490,550,o),
(614,424,o),
(806,424,cs),
(854,424,o),
(898,432,o),
(944,448,c),
(918,588,l),
(888,576,o),
(858,570,o),
(828,570,cs),
(724,570,o),
(658,642,o),
(658,760,cs),
(658,846,o),
(692,908,o),
(744,920,c),
(736,922,l),
(872,816,l),
(932,816,l),
(1062,924,l),
(1050,920,l),
(1098,912,o),
(1128,866,o),
(1128,804,cs),
(1128,424,ls),
(1128,244,o),
(972,130,o),
(720,130,cs),
(478,130,o),
(326,242,o),
(326,424,cs),
(326,1338,l),
(158,1338,l),
(158,406,ls),
(158,142,o),
(374,-24,o),
(720,-24,cs)
);
}
);
width = 1450;
},
{
layerId = "5C20EF92-B63D-42A8-8878-93C2863E0093";
shapes = (
{
closed = 1;
nodes = (
(1228,-24,o),
(1490,160,o),
(1490,480,cs),
(1490,766,ls),
(1490,946,o),
(1340,1066,o),
(1096,1082,c),
(1006,972,l),
(994,972,l),
(902,1082,l),
(678,1060,o),
(552,930,o),
(552,720,cs),
(552,510,o),
(682,372,o),
(882,372,cs),
(940,372,o),
(994,382,o),
(1038,404,c),
(998,616,l),
(988,610,o),
(970,606,o),
(954,606,cs),
(898,606,o),
(866,648,o),
(866,718,cs),
(866,788,o),
(900,828,o),
(958,830,c),
(916,844,l),
(978,766,l),
(1010,766,l),
(1078,848,l),
(1042,830,l),
(1092,826,o),
(1124,784,o),
(1124,726,cs),
(1124,496,ls),
(1124,346,o),
(1008,262,o),
(800,262,cs),
(592,262,o),
(474,346,o),
(474,496,cs),
(474,1338,l),
(88,1338,l),
(88,480,ls),
(88,160,o),
(336,-24,o),
(770,-24,cs)
);
}
);
width = 1568;
}
);
unicode = 3666;
}
{
glyphname = "three-thai";
kernLeft = "three-thai";
layers = (
{
layerId = "B1F27B51-9973-4381-9301-4FE46FE1CA59";
shapes = (
{
closed = 1;
nodes = (
(552,-14,o),
(596,-8,o),
(640,8,c),
(626,50,l),
(588,36,o),
(548,30,o),
(504,30,cs),
(284,30,o),
(164,218,o),
(164,564,cs),
(164,870,o),
(260,1038,o),
(430,1038,cs),
(564,1038,o),
(650,940,o),
(650,788,cs),
(650,440,l),
(696,440,l),
(696,788,ls),
(696,942,o),
(786,1038,o),
(930,1038,cs),
(1066,1038,o),
(1138,950,o),
(1138,788,cs),
(1138,0,l),
(1186,0,l),
(1186,788,ls),
(1186,974,o),
(1092,1082,o),
(930,1082,cs),
(808,1082,o),
(716,1020,o),
(676,910,c),
(670,910,l),
(628,1022,o),
(546,1082,o),
(430,1082,cs),
(228,1082,o),
(116,898,o),
(116,564,cs),
(116,196,o),
(256,-14,o),
(504,-14,cs)
);
}
);
width = 1346;
},
{
layerId = "C698F293-3EC0-4A5A-A3A0-0FDB1F5CF265";
shapes = (
{
closed = 1;
nodes = (
(604,-14,o),
(648,-8,o),
(688,8,c),
(656,150,l),
(632,144,o),
(606,140,o),
(580,140,cs),
(408,140,o),
(316,288,o),
(316,562,cs),
(316,798,o),
(384,920,o),
(516,920,cs),
(612,920,o),
(670,858,o),
(670,756,cs),
(670,328,l),
(832,328,l),
(832,762,ls),
(832,856,o),
(888,920,o),
(972,920,cs),
(1056,920,o),
(1112,856,o),
(1112,762,cs),
(1112,0,l),
(1280,0,l),
(1280,778,ls),
(1280,956,o),
(1168,1074,o),
(998,1074,cs),
(882,1074,o),
(790,1018,o),
(758,932,c),
(746,932,l),
(714,1020,o),
(620,1074,o),
(502,1074,cs),
(274,1074,o),
(142,882,o),
(142,554,cs),
(142,200,o),
(298,-14,o),
(556,-14,cs)
);
}
);
width = 1442;
},
{
layerId = "5C20EF92-B63D-42A8-8878-93C2863E0093";
shapes = (
{
closed = 1;
nodes = (
(574,-14,o),
(642,-2,o),
(702,22,c),
(642,290,l),
(620,282,o),
(598,278,o),
(576,278,cs),
(480,278,o),
(446,350,o),
(446,556,cs),
(446,730,o),
(470,804,o),
(526,804,cs),
(564,804,o),
(584,776,o),
(584,724,cs),
(584,378,l),
(884,378,l),
(884,730,ls),
(884,776,o),
(906,804,o),
(944,804,cs),
(982,804,o),
(1004,776,o),
(1004,730,cs),
(1004,0,l),
(1390,0,l),
(1390,750,ls),
(1390,960,o),
(1264,1082,o),
(1050,1082,cs),
(906,1082,o),
(798,1026,o),
(740,920,c),
(728,920,l),
(686,1024,o),
(586,1082,o),
(450,1082,cs),
(202,1082,o),
(66,892,o),
(66,548,cs),
(66,184,o),
(222,-14,o),
(504,-14,cs)
);
}
);
width = 1472;
}
);
unicode = 3667;
}
{
glyphname = "four-thai";
kernLeft = "zero-thai";
kernRight = "four-thai";
layers = (
{
layerId = "B1F27B51-9973-4381-9301-4FE46FE1CA59";
shapes = (
{
closed = 1;
nodes = (
(1052,0,l),
(1052,32,l),
(798,54,o),
(654,162,o),
(654,328,cs),
(654,450,o),
(734,530,o),
(860,530,cs),
(894,530,o),
(930,522,o),
(968,510,c),
(982,550,l),
(948,566,o),
(906,574,o),
(862,574,cs),
(710,574,o),
(608,474,o),
(608,330,cs),
(608,204,o),
(684,100,o),
(816,50,c),
(816,44,l),
(594,44,ls),
(330,44,o),
(156,238,o),
(156,534,cs),
(156,830,o),
(330,1024,o),
(594,1024,cs),
(848,1024,ls),
(974,1024,o),
(1036,1086,o),
(1036,1210,cs),
(1036,1338,l),
(990,1338,l),
(990,1210,ls),
(990,1114,o),
(944,1068,o),
(848,1068,cs),
(594,1068,ls),
(302,1068,o),
(110,856,o),
(110,534,cs),
(110,212,o),
(302,0,o),
(594,0,cs)
);
}
);
width = 1164;
},
{
layerId = "C698F293-3EC0-4A5A-A3A0-0FDB1F5CF265";
shapes = (
{
closed = 1;
nodes = (
(1102,0,l),
(1102,114,l),
(930,146,o),
(828,234,o),
(828,352,cs),
(828,430,o),
(872,480,o),
(938,480,cs),
(968,480,o),
(1000,474,o),
(1030,462,c),
(1054,602,l),
(1008,618,o),
(962,626,o),
(916,626,cs),
(760,626,o),
(652,532,o),
(652,396,cs),
(652,306,o),
(700,220,o),
(788,158,c),
(788,146,l),
(608,146,ls),
(406,146,o),
(280,296,o),
(280,530,cs),
(280,762,o),
(406,912,o),
(608,912,cs),
(786,912,ls),
(984,912,o),
(1096,1004,o),
(1096,1172,cs),
(1096,1338,l),
(930,1338,l),
(930,1190,ls),
(930,1102,o),
(886,1058,o),
(792,1058,cs),
(608,1058,ls),
(300,1058,o),
(104,852,o),
(104,530,cs),
(104,206,o),
(300,0,o),
(608,0,cs)
);
}
);
width = 1208;
},
{
layerId = "5C20EF92-B63D-42A8-8878-93C2863E0093";
shapes = (
{
closed = 1;
nodes = (
(1182,0,l),
(1182,242,l),
(1078,262,o),
(1010,314,o),
(1010,376,cs),
(1010,408,o),
(1030,428,o),
(1062,428,cs),
(1078,428,o),
(1096,424,o),
(1110,414,c),
(1156,636,l),
(1088,668,o),
(1020,684,o),
(952,684,cs),
(798,684,o),
(696,600,o),
(696,474,cs),
(696,394,o),
(736,328,o),
(816,286,c),
(816,276,l),
(716,276,ls),
(564,276,o),
(472,376,o),
(472,538,cs),
(472,700,o),
(564,798,o),
(716,798,cs),
(932,798,ls),
(1088,798,o),
(1176,870,o),
(1176,1000,cs),
(1176,1338,l),
(850,1338,l),
(850,1148,ls),
(850,1094,o),
(822,1068,o),
(762,1068,cs),
(592,1068,ls),
(278,1068,o),
(62,854,o),
(62,544,cs),
(62,218,o),
(300,0,o),
(658,0,cs)
);
}
);
width = 1244;
}
);
unicode = 3668;
}
{
glyphname = "five-thai";
kernLeft = "zero-thai";
kernRight = "four-thai";
layers = (
{
layerId = "B1F27B51-9973-4381-9301-4FE46FE1CA59";
shapes = (
{
closed = 1;
nodes = (
(1052,0,l),
(1052,32,l),
(798,54,o),
(654,162,o),
(654,328,cs),
(654,450,o),
(734,530,o),
(860,530,cs),
(894,530,o),
(930,522,o),
(968,510,c),
(982,550,l),
(948,566,o),
(906,574,o),
(862,574,cs),
(710,574,o),
(608,474,o),
(608,330,cs),
(608,204,o),
(684,100,o),
(816,50,c),
(816,44,l),
(594,44,ls),
(330,44,o),
(156,238,o),
(156,534,cs),
(156,830,o),
(330,1024,o),
(594,1024,cs),
(848,1024,ls),
(974,1024,o),
(1036,1086,o),
(1036,1210,cs),
(1036,1338,l),
(990,1338,l),
(990,1210,ls),
(990,1114,o),
(944,1068,o),
(848,1068,cs),
(716,1068,l),
(656,1068,l),
(594,1068,l),
(302,1068,o),
(110,856,o),
(110,534,cs),
(110,212,o),
(302,0,o),
(594,0,cs)
);
},
{
closed = 1;
nodes = (
(718,1024,o),
(786,1090,o),
(786,1178,cs),
(786,1266,o),
(718,1334,o),
(630,1334,cs),
(542,1334,o),
(476,1266,o),
(476,1178,cs),
(476,1090,o),
(542,1024,o),
(630,1024,cs)
);
},
{
closed = 1;
nodes = (
(566,1068,o),
(522,1112,o),
(522,1178,cs),
(522,1244,o),
(566,1290,o),
(630,1290,cs),
(694,1290,o),
(738,1244,o),
(738,1178,cs),
(738,1112,o),
(694,1068,o),
(630,1068,cs)
);
}
);
width = 1164;
},
{
layerId = "C698F293-3EC0-4A5A-A3A0-0FDB1F5CF265";
shapes = (
{
closed = 1;
nodes = (
(1102,0,l),
(1102,114,l),
(930,146,o),
(828,234,o),
(828,352,cs),
(828,430,o),
(872,480,o),
(938,480,cs),
(968,480,o),
(1000,474,o),
(1030,462,c),
(1054,602,l),
(1008,618,o),
(962,626,o),
(916,626,cs),
(760,626,o),
(652,532,o),
(652,396,cs),
(652,306,o),
(700,220,o),
(788,158,c),
(788,146,l),
(608,146,ls),
(406,146,o),
(280,296,o),
(280,530,cs),
(280,762,o),
(406,912,o),
(608,912,cs),
(786,912,ls),
(984,912,o),
(1096,1004,o),
(1096,1172,cs),
(1096,1338,l),
(930,1338,l),
(930,1190,ls),
(930,1100,o),
(884,1052,o),
(792,1052,cs),
(668,1052,l),
(586,1038,l),
(502,1042,l),
(260,1002,o),
(104,802,o),
(104,530,cs),
(104,206,o),
(300,0,o),
(608,0,cs)
);
},
{
closed = 1;
nodes = (
(708,974,o),
(796,1048,o),
(796,1156,cs),
(796,1268,o),
(704,1352,o),
(582,1352,cs),
(458,1352,o),
(366,1268,o),
(366,1156,cs),
(366,1048,o),
(454,974,o),
(582,974,cs)
);
},
{
closed = 1;
nodes = (
(532,1054,o),
(502,1090,o),
(502,1148,cs),
(502,1206,o),
(532,1244,o),
(582,1244,cs),
(632,1244,o),
(664,1206,o),
(664,1148,cs),
(664,1090,o),
(632,1054,o),
(582,1054,cs)
);
}
);
width = 1208;
},
{
layerId = "5C20EF92-B63D-42A8-8878-93C2863E0093";
shapes = (
{
closed = 1;
nodes = (
(1182,0,l),
(1182,242,l),
(1078,262,o),
(1010,314,o),
(1010,376,cs),
(1010,408,o),
(1030,428,o),
(1062,428,cs),
(1078,428,o),
(1096,424,o),
(1110,414,c),
(1156,636,l),
(1088,668,o),
(1020,684,o),
(952,684,cs),
(798,684,o),
(696,600,o),
(696,474,cs),
(696,394,o),
(736,328,o),
(816,286,c),
(816,276,l),
(716,276,ls),
(564,276,o),
(472,376,o),
(472,538,cs),
(472,700,o),
(564,798,o),
(716,798,cs),
(932,798,ls),
(1088,798,o),
(1176,870,o),
(1176,1000,cs),
(1176,1338,l),
(866,1338,l),
(866,1148,ls),
(866,1094,o),
(836,1068,o),
(776,1068,cs),
(692,1068,l),
(578,1026,l),
(464,1054,l),
(218,1004,o),
(62,804,o),
(62,544,cs),
(62,218,o),
(300,0,o),
(658,0,cs)
);
},
{
closed = 1;
nodes = (
(704,952,o),
(796,1030,o),
(796,1152,cs),
(796,1274,o),
(704,1352,o),
(564,1352,cs),
(420,1352,o),
(328,1274,o),
(328,1152,cs),
(328,1030,o),
(420,952,o),
(564,952,cs)
);
},
{
closed = 1;
nodes = (
(530,1074,o),
(508,1102,o),
(508,1142,cs),
(508,1182,o),
(530,1208,o),
(564,1208,cs),
(598,1208,o),
(622,1182,o),
(622,1142,cs),
(622,1102,o),
(598,1074,o),
(564,1074,cs)
);
}
);
width = 1244;
}
);
unicode = 3669;
}
{
glyphname = "six-thai";
kernRight = "zero-thai";
layers = (
{
layerId = "B1F27B51-9973-4381-9301-4FE46FE1CA59";
shapes = (
{
closed = 1;
nodes = (
(882,-24,o),
(1086,202,o),
(1086,534,cs),
(1086,858,o),
(892,1082,o),
(612,1082,cs),
(446,1082,o),
(298,1004,o),
(220,876,c),
(214,876,l),
(146,1338,l),
(98,1338,l),
(178,802,l),
(218,802,l),
(284,944,o),
(442,1038,o),
(612,1038,cs),
(864,1038,o),
(1038,832,o),
(1038,534,cs),
(1038,228,o),
(854,20,o),
(586,20,cs),
(364,20,o),
(202,150,o),
(188,340,c),
(166,326,l),
(526,326,l),
(526,368,l),
(142,368,l),
(142,354,ls),
(142,138,o),
(332,-24,o),
(586,-24,cs)
);
}
);
width = 1188;
},
{
layerId = "C698F293-3EC0-4A5A-A3A0-0FDB1F5CF265";
shapes = (
{
closed = 1;
nodes = (
(914,-24,o),
(1130,198,o),
(1130,536,cs),
(1130,850,o),
(912,1082,o),
(614,1082,cs),
(476,1082,o),
(360,1032,o),
(280,938,c),
(268,938,l),
(222,1338,l),
(54,1338,l),
(132,752,l),
(276,752,l),
(334,864,o),
(444,928,o),
(586,928,cs),
(812,928,o),
(956,774,o),
(956,536,cs),
(956,282,o),
(814,128,o),
(580,128,cs),
(412,128,o),
(302,212,o),
(294,346,c),
(232,304,l),
(558,304,l),
(558,442,l),
(134,442,l),
(134,364,ls),
(134,126,o),
(308,-24,o),
(580,-24,cs)
);
}
);
width = 1234;
},
{
layerId = "5C20EF92-B63D-42A8-8878-93C2863E0093";
shapes = (
{
closed = 1;
nodes = (
(992,-24,o),
(1220,200,o),
(1220,548,cs),
(1220,866,o),
(1026,1082,o),
(742,1082,cs),
(604,1082,o),
(484,1030,o),
(414,938,c),
(402,938,l),
(354,1338,l),
(34,1338,l),
(120,672,l),
(466,672,l),
(498,750,o),
(554,790,o),
(628,790,cs),
(744,790,o),
(814,688,o),
(814,518,cs),
(814,342,o),
(740,238,o),
(620,238,cs),
(532,238,o),
(470,290,o),
(464,368,c),
(402,332,l),
(600,332,l),
(600,530,l),
(114,530,l),
(114,410,ls),
(114,146,o),
(320,-24,o),
(636,-24,cs)
);
}
);
width = 1282;
}
);
metricRight = "zero-thai";
unicode = 3670;
}
{
glyphname = "seven-thai";
kernLeft = "three-thai";
layers = (
{
layerId = "B1F27B51-9973-4381-9301-4FE46FE1CA59";
shapes = (
{
closed = 1;
nodes = (
(552,-14,o),
(596,-8,o),
(640,8,c),
(626,50,l),
(588,36,o),
(548,30,o),
(504,30,cs),
(284,30,o),
(164,218,o),
(164,564,cs),
(164,870,o),
(254,1038,o),
(416,1038,cs),
(540,1038,o),
(622,940,o),
(622,788,cs),
(622,440,l),
(668,440,l),
(668,788,ls),
(668,942,o),
(752,1038,o),
(886,1038,cs),
(1012,1038,o),
(1080,950,o),
(1080,788,cs),
(1080,0,l),
(1112,0,ls),
(1366,0,o),
(1502,132,o),
(1502,378,cs),
(1502,1338,l),
(1454,1338,l),
(1454,378,ls),
(1454,158,o),
(1336,44,o),
(1112,44,cs),
(1106,44,l),
(1128,30,l),
(1128,788,ls),
(1128,974,o),
(1040,1082,o),
(886,1082,cs),
(772,1082,o),
(688,1022,o),
(648,910,c),
(642,910,l),
(600,1024,o),
(524,1082,o),
(416,1082,cs),
(224,1082,o),
(116,898,o),
(116,564,cs),
(116,196,o),
(256,-14,o),
(504,-14,cs)
);
}
);
width = 1654;
},
{
layerId = "C698F293-3EC0-4A5A-A3A0-0FDB1F5CF265";
shapes = (
{
closed = 1;
nodes = (
(598,-14,o),
(642,-8,o),
(682,8,c),
(648,150,l),
(624,144,o),
(598,140,o),
(574,140,cs),
(404,140,o),
(316,286,o),
(316,564,cs),
(316,798,o),
(378,920,o),
(498,920,cs),
(584,920,o),
(634,860,o),
(634,756,cs),
(634,358,l),
(796,358,l),
(796,762,ls),
(796,862,o),
(844,920,o),
(928,920,cs),
(1012,920,o),
(1062,862,o),
(1062,762,cs),
(1062,0,l),
(1248,0,ls),
(1500,0,o),
(1642,156,o),
(1642,438,cs),
(1642,1338,l),
(1472,1338,l),
(1472,420,ls),
(1472,234,o),
(1400,144,o),
(1248,144,cs),
(1154,144,l),
(1230,62,l),
(1230,778,ls),
(1230,952,o),
(1116,1074,o),
(950,1074,cs),
(840,1074,o),
(752,1020,o),
(720,932,c),
(710,932,l),
(678,1020,o),
(592,1074,o),
(482,1074,cs),
(268,1074,o),
(142,878,o),
(142,554,cs),
(142,196,o),
(294,-14,o),
(550,-14,cs)
);
}
);
width = 1802;
},
{
layerId = "5C20EF92-B63D-42A8-8878-93C2863E0093";
shapes = (
{
closed = 1;
nodes = (
(574,-14,o),
(642,-2,o),
(702,22,c),
(642,290,l),
(620,282,o),
(598,278,o),
(576,278,cs),
(480,278,o),
(446,352,o),
(446,558,cs),
(446,732,o),
(470,804,o),
(526,804,cs),
(562,804,o),
(584,776,o),
(584,724,cs),
(584,400,l),
(862,400,l),
(862,730,ls),
(862,776,o),
(884,804,o),
(922,804,cs),
(960,804,o),
(982,776,o),
(982,730,cs),
(982,0,l),
(1300,0,ls),
(1630,0,o),
(1816,166,o),
(1816,466,cs),
(1816,1338,l),
(1450,1338,l),
(1450,478,ls),
(1450,340,o),
(1400,274,o),
(1298,274,cs),
(1190,274,l),
(1326,138,l),
(1326,750,ls),
(1326,962,o),
(1216,1082,o),
(1024,1082,cs),
(894,1082,o),
(796,1026,o),
(744,920,c),
(732,920,l),
(690,1024,o),
(590,1082,o),
(454,1082,cs),
(206,1082,o),
(66,888,o),
(66,544,cs),
(66,184,o),
(222,-14,o),
(504,-14,cs)
);
}
);
width = 1898;
}
);
metricLeft = "three-thai";
unicode = 3671;
}
{
glyphname = "eight-thai";
kernLeft = "zero-thai";
layers = (
{
layerId = "B1F27B51-9973-4381-9301-4FE46FE1CA59";
shapes = (
{
closed = 1;
nodes = (
(1072,-14,o),
(1174,100,o),
(1174,262,cs),
(1174,426,o),
(1072,540,o),
(926,540,cs),
(884,540,o),
(838,530,o),
(792,510,c),
(800,466,l),
(848,486,o),
(886,496,o),
(926,496,cs),
(1052,496,o),
(1126,410,o),
(1126,266,cs),
(1126,120,o),
(1048,30,o),
(924,30,cs),
(796,30,o),
(708,130,o),
(670,322,c),
(628,322,l),
(440,24,l),
(478,44,l),
(288,90,o),
(156,292,o),
(156,534,cs),
(156,830,o),
(330,1024,o),
(594,1024,cs),
(890,1024,ls),
(1016,1024,o),
(1080,1086,o),
(1080,1210,cs),
(1080,1338,l),
(1032,1338,l),
(1032,1210,ls),
(1032,1114,o),
(986,1068,o),
(890,1068,cs),
(594,1068,ls),
(302,1068,o),
(110,856,o),
(110,534,cs),
(110,264,o),
(260,46,o),
(478,0,c),
(638,256,l),
(642,256,l),
(682,86,o),
(790,-14,o),
(928,-14,cs)
);
}
);
width = 1260;
},
{
layerId = "C698F293-3EC0-4A5A-A3A0-0FDB1F5CF265";
shapes = (
{
closed = 1;
nodes = (
(1094,-24,o),
(1218,104,o),
(1218,278,cs),
(1218,442,o),
(1104,562,o),
(946,562,cs),
(900,562,o),
(856,552,o),
(812,536,c),
(838,396,l),
(868,408,o),
(896,414,o),
(926,414,cs),
(1002,414,o),
(1050,362,o),
(1050,278,cs),
(1050,188,o),
(992,128,o),
(904,128,cs),
(798,128,o),
(738,212,o),
(720,374,c),
(592,374,l),
(428,112,l),
(520,170,l),
(370,190,o),
(280,326,o),
(280,532,cs),
(280,764,o),
(406,912,o),
(608,912,cs),
(882,912,ls),
(1080,912,o),
(1190,1004,o),
(1190,1172,cs),
(1190,1338,l),
(1026,1338,l),
(1026,1190,ls),
(1026,1102,o),
(980,1058,o),
(886,1058,cs),
(608,1058,ls),
(300,1058,o),
(104,854,o),
(104,532,cs),
(104,232,o),
(248,44,o),
(518,-6,c),
(626,178,l),
(638,178,l),
(688,50,o),
(790,-24,o),
(920,-24,cs)
);
}
);
width = 1310;
},
{
layerId = "5C20EF92-B63D-42A8-8878-93C2863E0093";
shapes = (
{
closed = 1;
nodes = (
(1198,-10,o),
(1328,134,o),
(1328,354,cs),
(1328,572,o),
(1206,696,o),
(990,696,cs),
(932,696,o),
(874,688,o),
(818,670,c),
(860,458,l),
(886,472,o),
(910,478,o),
(934,478,cs),
(988,478,o),
(1020,444,o),
(1020,388,cs),
(1020,326,o),
(982,288,o),
(922,288,cs),
(850,288,o),
(806,344,o),
(790,454,c),
(650,454,l),
(528,276,l),
(574,290,l),
(502,334,o),
(464,414,o),
(464,522,cs),
(464,690,o),
(556,792,o),
(708,792,cs),
(1034,792,ls),
(1190,792,o),
(1278,864,o),
(1278,994,cs),
(1278,1324,l),
(952,1324,l),
(952,1148,ls),
(952,1094,o),
(924,1068,o),
(864,1068,cs),
(578,1068,ls),
(272,1068,o),
(62,854,o),
(62,540,cs),
(62,220,o),
(284,0,o),
(606,0,c),
(718,160,l),
(730,160,l),
(766,54,o),
(868,-10,o),
(1000,-10,cs)
);
}
);
width = 1380;
}
);
unicode = 3672;
}
{
glyphname = "nine-thai";
kernLeft = "three-thai";
layers = (
{
layerId = "B1F27B51-9973-4381-9301-4FE46FE1CA59";
shapes = (
{
closed = 1;
nodes = (
(552,-14,o),
(596,-8,o),
(640,8,c),
(626,50,l),
(588,36,o),
(548,30,o),
(504,30,cs),
(282,30,o),
(164,218,o),
(164,570,cs),
(164,870,o),
(250,1038,o),
(408,1038,cs),
(508,1038,o),
(562,980,o),
(636,788,cs),
(940,0,l),
(986,0,l),
(676,810,ls),
(658,858,o),
(652,882,o),
(652,912,cs),
(652,980,o),
(696,1024,o),
(764,1024,cs),
(862,1024,ls),
(988,1024,o),
(1050,1086,o),
(1050,1210,cs),
(1050,1338,l),
(1004,1338,l),
(1004,1210,ls),
(1004,1114,o),
(958,1068,o),
(862,1068,cs),
(764,1068,ls),
(678,1068,o),
(628,1022,o),
(624,942,c),
(618,942,l),
(570,1036,o),
(502,1082,o),
(408,1082,cs),
(222,1082,o),
(116,898,o),
(116,570,cs),
(116,196,o),
(256,-14,o),
(504,-14,cs)
);
}
);
width = 1164;
},
{
layerId = "C698F293-3EC0-4A5A-A3A0-0FDB1F5CF265";
shapes = (
{
closed = 1;
nodes = (
(598,-14,o),
(642,-8,o),
(682,8,c),
(648,150,l),
(624,144,o),
(598,140,o),
(574,140,cs),
(404,140,o),
(316,286,o),
(316,564,cs),
(316,798,o),
(376,920,o),
(490,920,cs),
(552,920,o),
(590,886,o),
(616,810,cs),
(898,0,l),
(1078,0,l),
(818,726,ls),
(804,764,o),
(796,798,o),
(796,824,cs),
(796,884,o),
(834,912,o),
(914,912,cs),
(962,912,ls),
(1118,912,o),
(1206,1006,o),
(1206,1176,cs),
(1206,1338,l),
(1042,1338,l),
(1042,1176,ls),
(1042,1098,o),
(1010,1058,o),
(946,1058,cs),
(886,1058,ls),
(812,1058,o),
(758,1016,o),
(738,940,c),
(728,940,l),
(694,1024,o),
(606,1074,o),
(492,1074,cs),
(270,1074,o),
(142,884,o),
(142,554,cs),
(142,196,o),
(294,-14,o),
(550,-14,cs)
);
}
);
width = 1234;
},
{
layerId = "5C20EF92-B63D-42A8-8878-93C2863E0093";
shapes = (
{
closed = 1;
nodes = (
(568,-14,o),
(636,-2,o),
(696,22,c),
(638,290,l),
(616,282,o),
(592,278,o),
(570,278,cs),
(474,278,o),
(440,352,o),
(440,554,cs),
(440,732,o),
(468,804,o),
(530,804,cs),
(568,804,o),
(590,782,o),
(608,728,cs),
(854,0,l),
(1210,0,l),
(986,660,ls),
(968,716,o),
(966,726,o),
(966,742,cs),
(966,778,o),
(988,798,o),
(1028,798,cs),
(1084,798,ls),
(1228,798,o),
(1298,868,o),
(1298,1010,cs),
(1298,1346,l),
(968,1346,l),
(968,1148,ls),
(968,1094,o),
(940,1068,o),
(880,1068,cs),
(842,1068,ls),
(772,1068,o),
(720,1026,o),
(702,950,c),
(690,950,l),
(646,1036,o),
(556,1082,o),
(436,1082,cs),
(194,1082,o),
(62,892,o),
(62,548,cs),
(62,184,o),
(216,-14,o),
(498,-14,cs)
);
}
);
width = 1322;
}
);
unicode = 3673;
}
{
glyphname = "khomut-thai";
layers = (
{
layerId = "B1F27B51-9973-4381-9301-4FE46FE1CA59";
shapes = (
{
closed = 1;
nodes = (
(632,258,o),
(768,412,o),
(830,714,c),
(834,714,l),
(984,322,l),
(1028,322,l),
(1168,672,l),
(1172,672,l),
(1260,440,ls),
(1284,374,o),
(1324,344,o),
(1384,344,cs),
(1414,344,o),
(1440,352,o),
(1462,366,c),
(1456,404,l),
(1436,394,o),
(1410,386,o),
(1386,386,cs),
(1342,386,o),
(1318,408,o),
(1298,460,cs),
(1190,744,l),
(1150,744,l),
(1008,392,l),
(1004,392,l),
(856,784,l),
(810,784,l),
(740,462,o),
(616,302,o),
(430,302,cs),
(276,302,o),
(178,410,o),
(178,578,cs),
(178,736,o),
(266,830,o),
(416,830,cs),
(456,830,o),
(494,822,o),
(526,808,c),
(534,850,l),
(500,864,o),
(460,872,o),
(414,872,cs),
(240,872,o),
(130,760,o),
(130,578,cs),
(130,386,o),
(250,258,o),
(430,258,cs)
);
}
);
width = 1498;
},
{
layerId = "C698F293-3EC0-4A5A-A3A0-0FDB1F5CF265";
shapes = (
{
closed = 1;
nodes = (
(684,198,o),
(852,376,o),
(894,664,c),
(904,664,l),
(1040,270,l),
(1162,270,l),
(1278,610,l),
(1290,610,l),
(1332,486,ls),
(1370,378,o),
(1428,330,o),
(1528,330,cs),
(1568,330,o),
(1604,338,o),
(1638,354,c),
(1616,470,l),
(1592,460,o),
(1568,456,o),
(1544,456,cs),
(1500,456,o),
(1476,476,o),
(1458,528,cs),
(1360,808,l),
(1214,808,l),
(1106,496,l),
(1094,496,l),
(972,852,l),
(790,852,l),
(752,524,o),
(646,352,o),
(478,352,cs),
(358,352,o),
(280,438,o),
(280,568,cs),
(280,706,o),
(366,792,o),
(504,792,cs),
(542,792,o),
(580,786,o),
(616,774,c),
(640,914,l),
(590,930,o),
(540,940,o),
(486,940,cs),
(252,940,o),
(104,794,o),
(104,568,cs),
(104,344,o),
(242,198,o),
(454,198,cs)
);
}
);
width = 1668;
},
{
layerId = "5C20EF92-B63D-42A8-8878-93C2863E0093";
shapes = (
{
closed = 1;
nodes = (
(762,168,o),
(922,300,o),
(988,554,c),
(1000,554,l),
(1082,270,l),
(1344,270,l),
(1440,514,l),
(1450,514,l),
(1488,430,ls),
(1526,344,o),
(1600,302,o),
(1712,302,cs),
(1766,302,o),
(1818,310,o),
(1850,326,c),
(1850,550,l),
(1828,542,o),
(1798,536,o),
(1772,536,cs),
(1726,536,o),
(1702,554,o),
(1676,608,cs),
(1550,874,l),
(1330,874,l),
(1244,662,l),
(1232,662,l),
(1162,918,l),
(886,918,l),
(796,596,o),
(720,478,o),
(598,478,cs),
(516,478,o),
(464,530,o),
(464,612,cs),
(464,696,o),
(516,748,o),
(602,748,cs),
(632,748,o),
(664,742,o),
(682,732,c),
(682,1006,l),
(634,1020,o),
(576,1028,o),
(518,1028,cs),
(248,1028,o),
(76,860,o),
(76,596,cs),
(76,334,o),
(250,168,o),
(522,168,cs)
);
}
);
width = 1850;
}
);
unicode = 3675;
}
{
glyphname = "doChada-thai.short";
layers = (
{
anchors = (
{
name = bottom;
pos = (1020,-264);
},
{
name = top;
pos = (1006,1202);
}
);
layerId = "B1F27B51-9973-4381-9301-4FE46FE1CA59";
shapes = (
{
closed = 1;
nodes = (
(328,-144,o),
(426,-88,o),
(566,-88,cs),
(704,-88,o),
(844,-150,o),
(968,-264,c),
(1020,-264,l),
(1020,814,ls),
(1020,1060,o),
(850,1218,o),
(590,1218,cs),
(328,1218,o),
(154,1058,o),
(154,816,cs),
(154,784,l),
(372,760,l),
(372,754,l),
(286,720,o),
(248,644,o),
(248,512,cs),
(248,180,ls),
(248,92,o),
(210,44,o),
(142,44,cs),
(70,44,l),
(70,0,l),
(142,0,ls),
(240,0,o),
(296,68,o),
(296,184,cs),
(296,516,ls),
(296,684,o),
(370,760,o),
(520,744,cs),
(540,742,l),
(540,784,l),
(180,824,l),
(202,788,l),
(202,816,ls),
(202,1034,o),
(354,1174,o),
(590,1174,cs),
(826,1174,o),
(974,1036,o),
(974,814,cs),
(974,-214,l),
(970,-214,l),
(864,-108,o),
(714,-46,o),
(568,-46,cs),
(412,-46,o),
(294,-110,o),
(206,-244,c),
(242,-270,l)
);
}
);
width = 1230;
},
{
anchors = (
{
name = bottom;
pos = (1128,-410);
},
{
name = top;
pos = (1112,1202);
}
);
layerId = "C698F293-3EC0-4A5A-A3A0-0FDB1F5CF265";
shapes = (
{
closed = 1;
nodes = (
(358,-288,o),
(462,-216,o),
(600,-216,cs),
(736,-216,o),
(852,-286,o),
(922,-410,c),
(1128,-410,l),
(1128,798,ls),
(1128,1060,o),
(936,1226,o),
(634,1226,cs),
(328,1226,o),
(134,1050,o),
(134,774,cs),
(134,718,l),
(344,688,l),
(344,676,l),
(246,648,o),
(194,556,o),
(194,420,cs),
(194,290,ls),
(194,200,o),
(152,154,o),
(70,154,cs),
(38,154,l),
(38,0,l),
(72,0,ls),
(270,0,o),
(366,88,o),
(366,272,cs),
(366,440,ls),
(366,594,o),
(418,670,o),
(510,656,cs),
(568,648,l),
(568,786,l),
(260,832,l),
(306,718,l),
(306,760,ls),
(306,952,o),
(434,1072,o),
(634,1072,cs),
(828,1072,o),
(952,960,o),
(952,784,cs),
(952,-256,l),
(940,-256,l),
(862,-136,o),
(734,-70,o),
(574,-70,cs),
(372,-70,o),
(218,-176,o),
(146,-366,c),
(310,-416,l)
);
}
);
width = 1292;
},
{
anchors = (
{
name = bottom;
pos = (1254,-412);
},
{
name = top;
pos = (1240,1202);
}
);
layerId = "5C20EF92-B63D-42A8-8878-93C2863E0093";
shapes = (
{
closed = 1;
nodes = (
(544,-348,o),
(596,-312,o),
(670,-312,cs),
(744,-312,o),
(808,-348,o),
(852,-412,c),
(1254,-412,l),
(1254,744,ls),
(1254,1056,o),
(1046,1226,o),
(674,1226,cs),
(296,1226,o),
(86,1050,o),
(86,734,cs),
(86,654,l),
(328,654,l),
(328,642,l),
(218,604,o),
(166,530,o),
(166,410,cs),
(166,396,ls),
(166,348,o),
(142,326,o),
(90,326,cs),
(40,326,l),
(40,30,l),
(210,30,ls),
(440,30,o),
(550,124,o),
(550,322,cs),
(550,434,ls),
(550,496,o),
(580,528,o),
(642,528,cs),
(664,528,l),
(664,746,l),
(386,746,l),
(478,676,l),
(478,734,ls),
(478,862,o),
(542,928,o),
(668,928,cs),
(786,928,o),
(850,870,o),
(850,764,cs),
(850,-122,l),
(842,-122,l),
(768,-50,o),
(664,-14,o),
(546,-14,cs),
(314,-14,o),
(168,-160,o),
(150,-412,c),
(524,-412,l)
);
}
);
width = 1358;
}
);
metricLeft = "phoSamphao-thai";
metricRight = "koKai-thai";
}
{
glyphname = "loChula-thai.short";
layers = (
{
anchors = (
{
name = bottom;
pos = (1086,0);
},
{
name = top;
pos = (1012,1202);
}
);
layerId = "B1F27B51-9973-4381-9301-4FE46FE1CA59";
shapes = (
{
closed = 1;
nodes = (
(348,0,l),
(690,804,l),
(700,804,l),
(1042,0,l),
(1086,0,l),
(1208,830,ls),
(1228,962,o),
(1170,1064,o),
(1058,1094,c),
(1058,1098,l),
(1146,1116,o),
(1204,1178,o),
(1228,1280,cs),
(1262,1422,l),
(1216,1422,l),
(1182,1280,ls),
(1158,1180,o),
(1078,1118,o),
(970,1118,cs),
(668,1118,l),
(668,1074,l),
(970,1074,ls),
(1108,1074,o),
(1186,976,o),
(1164,830,cs),
(1056,98,l),
(1046,98,l),
(722,862,l),
(668,862,l),
(346,98,l),
(334,98,l),
(178,1202,l),
(130,1202,l),
(306,0,l)
);
}
);
width = 1382;
},
{
anchors = (
{
name = bottom;
pos = (1214,0);
},
{
name = top;
pos = (1132,1202);
}
);
layerId = "C698F293-3EC0-4A5A-A3A0-0FDB1F5CF265";
shapes = (
{
closed = 1;
nodes = (
(452,0,l),
(722,640,l),
(740,640,l),
(1040,0,l),
(1214,0,l),
(1322,932,ls),
(1334,1030,o),
(1308,1098,o),
(1250,1132,c),
(1250,1138,l),
(1340,1168,o),
(1406,1242,o),
(1426,1336,cs),
(1450,1456,l),
(1278,1456,l),
(1254,1334,ls),
(1238,1246,o),
(1176,1202,o),
(1074,1202,cs),
(626,1202,l),
(626,1064,l),
(1022,1064,ls),
(1120,1064,o),
(1164,1022,o),
(1154,932,cs),
(1086,270,l),
(1074,270,l),
(828,830,l),
(638,830,l),
(414,274,l),
(402,274,l),
(270,1202,l),
(94,1202,l),
(278,0,l)
);
}
);
width = 1490;
},
{
anchors = (
{
name = bottom;
pos = (1456,0);
},
{
name = top;
pos = (1196,1202);
}
);
layerId = "5C20EF92-B63D-42A8-8878-93C2863E0093";
shapes = (
{
closed = 1;
nodes = (
(710,0,l),
(864,428,l),
(880,428,l),
(1036,0,l),
(1456,0,l),
(1592,816,ls),
(1614,950,o),
(1586,1028,o),
(1492,1078,c),
(1492,1088,l),
(1614,1126,o),
(1674,1196,o),
(1708,1344,cs),
(1742,1490,l),
(1354,1490,l),
(1322,1342,ls),
(1302,1248,o),
(1242,1202,o),
(1138,1202,cs),
(762,1202,l),
(762,914,l),
(1088,914,ls),
(1196,914,o),
(1244,868,o),
(1230,772,cs),
(1174,356,l),
(1164,356,l),
(1014,762,l),
(732,762,l),
(576,356,l),
(566,356,l),
(466,1202,l),
(70,1202,l),
(290,0,l)
);
}
);
width = 1744;
}
);
}
{
glyphname = "lu_lakkhangyao-thai";
layers = (
{
layerId = "B1F27B51-9973-4381-9301-4FE46FE1CA59";
shapes = (
{
closed = 1;
nodes = (
(1020,-338,l),
(1020,814,ls),
(1020,1060,o),
(850,1218,o),
(590,1218,cs),
(328,1218,o),
(154,1058,o),
(154,816,cs),
(154,784,l),
(372,760,l),
(372,754,l),
(286,720,o),
(248,644,o),
(248,512,cs),
(248,180,ls),
(248,92,o),
(210,44,o),
(142,44,cs),
(70,44,l),
(70,0,l),
(142,0,ls),
(240,0,o),
(296,68,o),
(296,184,cs),
(296,516,ls),
(296,684,o),
(370,760,o),
(520,744,cs),
(540,742,l),
(540,784,l),
(180,824,l),
(202,788,l),
(202,816,ls),
(202,1034,o),
(354,1174,o),
(590,1174,cs),
(826,1174,o),
(974,1036,o),
(974,814,cs),
(974,-338,l)
);
},
{
closed = 1;
nodes = (
(1720,-338,l),
(1720,824,ls),
(1720,1060,o),
(1578,1218,o),
(1362,1218,cs),
(1188,1218,o),
(1046,1114,o),
(1004,956,c),
(984,958,l),
(984,814,l),
(1020,814,l),
(1020,1030,o),
(1164,1174,o),
(1360,1174,cs),
(1550,1174,o),
(1674,1036,o),
(1674,824,cs),
(1674,-338,l)
);
}
);
width = 1930;
},
{
layerId = "C698F293-3EC0-4A5A-A3A0-0FDB1F5CF265";
shapes = (
{
closed = 1;
nodes = (
(1128,-482,l),
(1128,798,ls),
(1128,1060,o),
(936,1226,o),
(634,1226,cs),
(328,1226,o),
(134,1050,o),
(134,774,cs),
(134,718,l),
(344,688,l),
(344,676,l),
(246,648,o),
(194,556,o),
(194,420,cs),
(194,290,ls),
(194,200,o),
(152,154,o),
(70,154,cs),
(38,154,l),
(38,0,l),
(72,0,ls),
(270,0,o),
(366,88,o),
(366,272,cs),
(366,440,ls),
(366,594,o),
(418,670,o),
(510,656,cs),
(568,648,l),
(568,786,l),
(260,832,l),
(306,718,l),
(306,760,ls),
(306,952,o),
(434,1072,o),
(634,1072,cs),
(828,1072,o),
(952,960,o),
(952,784,cs),
(952,-482,l)
);
},
{
closed = 1;
nodes = (
(1886,-482,l),
(1886,784,ls),
(1886,1050,o),
(1714,1226,o),
(1454,1226,cs),
(1282,1226,o),
(1150,1148,o),
(1088,1010,c),
(1002,1010,l),
(1002,738,l),
(1128,738,l),
(1128,940,o),
(1248,1072,o),
(1434,1072,cs),
(1608,1072,o),
(1710,958,o),
(1710,766,cs),
(1710,-482,l)
);
}
);
width = 2050;
},
{
layerId = "5C20EF92-B63D-42A8-8878-93C2863E0093";
shapes = (
{
closed = 1;
nodes = (
(1250,-482,l),
(1250,744,ls),
(1250,1056,o),
(1046,1226,o),
(674,1226,cs),
(296,1226,o),
(86,1050,o),
(86,734,cs),
(86,654,l),
(328,654,l),
(328,642,l),
(218,604,o),
(166,530,o),
(166,410,cs),
(166,366,ls),
(166,318,o),
(142,296,o),
(90,296,cs),
(40,296,l),
(40,0,l),
(210,0,ls),
(440,0,o),
(550,94,o),
(550,292,cs),
(550,434,ls),
(550,496,o),
(580,528,o),
(642,528,cs),
(664,528,l),
(664,746,l),
(386,746,l),
(478,676,l),
(478,734,ls),
(478,862,o),
(542,928,o),
(668,928,cs),
(786,928,o),
(850,870,o),
(850,764,cs),
(850,-482,l)
);
},
{
closed = 1;
nodes = (
(2004,-482,l),
(2004,820,ls),
(2004,1068,o),
(1842,1226,o),
(1586,1226,cs),
(1410,1226,o),
(1272,1152,o),
(1192,1014,c),
(1118,1014,l),
(1118,722,l),
(1250,722,l),
(1250,842,o),
(1314,914,o),
(1426,914,cs),
(1536,914,o),
(1602,844,o),
(1602,722,cs),
(1602,-482,l)
);
}
);
width = 2108;
}
);
metricLeft = "phoSamphao-thai";
metricRight = "phoSamphao-thai";
}
{
glyphname = "maiChattawa-thai.narrow";
layers = (
{
anchors = (
{
name = _top;
pos = (804,1202);
},
{
name = top;
pos = (660,1704);
}
);
layerId = "B1F27B51-9973-4381-9301-4FE46FE1CA59";
shapes = (
{
closed = 1;
nodes = (
(660,1394,l),
(660,1704,l),
(616,1704,l),
(616,1394,l)
);
},
{
closed = 1;
nodes = (
(814,1528,l),
(814,1570,l),
(462,1570,l),
(462,1528,l)
);
}
);
width = 1214;
},
{
anchors = (
{
name = _top;
pos = (680,1202);
},
{
name = top;
pos = (552,1778);
}
);
layerId = "C698F293-3EC0-4A5A-A3A0-0FDB1F5CF265";
shapes = (
{
closed = 1;
nodes = (
(552,1362,l),
(552,1778,l),
(392,1778,l),
(392,1362,l)
);
},
{
closed = 1;
nodes = (
(716,1512,l),
(716,1630,l),
(228,1630,l),
(228,1512,l)
);
}
);
width = 1164;
},
{
anchors = (
{
name = _top;
pos = (750,1202);
},
{
name = top;
pos = (584,1832);
}
);
layerId = "5C20EF92-B63D-42A8-8878-93C2863E0093";
shapes = (
{
closed = 1;
nodes = (
(584,1336,l),
(584,1832,l),
(288,1832,l),
(288,1336,l)
);
},
{
closed = 1;
nodes = (
(750,1474,l),
(750,1700,l),
(120,1700,l),
(120,1474,l)
);
}
);
width = 1352;
}
);
}
{
glyphname = "maiChattawa-thai.small";
layers = (
{
anchors = (
{
name = _top;
pos = (1002,1640);
},
{
name = top;
pos = (1002,2068);
}
);
layerId = "B1F27B51-9973-4381-9301-4FE46FE1CA59";
shapes = (
{
closed = 1;
nodes = (
(1002,1754,l),
(1002,2068,l),
(958,2068,l),
(958,1754,l)
);
},
{
closed = 1;
nodes = (
(1162,1890,l),
(1162,1932,l),
(798,1932,l),
(798,1890,l)
);
}
);
width = 1214;
},
{
anchors = (
{
name = _top;
pos = (1000,1682);
},
{
name = top;
pos = (994,2142);
}
);
layerId = "C698F293-3EC0-4A5A-A3A0-0FDB1F5CF265";
shapes = (
{
closed = 1;
nodes = (
(994,1796,l),
(994,2142,l),
(844,2142,l),
(844,1796,l)
);
},
{
closed = 1;
nodes = (
(1138,1914,l),
(1138,2024,l),
(698,2024,l),
(698,1914,l)
);
}
);
width = 1164;
},
{
anchors = (
{
name = _top;
pos = (1248,1744);
},
{
name = top;
pos = (1218,2250);
}
);
layerId = "5C20EF92-B63D-42A8-8878-93C2863E0093";
shapes = (
{
closed = 1;
nodes = (
(1218,1856,l),
(1218,2250,l),
(920,2250,l),
(920,1856,l)
);
},
{
closed = 1;
nodes = (
(1388,1966,l),
(1388,2140,l),
(752,2140,l),
(752,1966,l)
);
}
);
width = 1352;
}
);
}
{
glyphname = "maiEk-thai.narrow";
layers = (
{
anchors = (
{
name = _top;
pos = (804,1202);
},
{
name = top;
pos = (696,1676);
}
);
layerId = "B1F27B51-9973-4381-9301-4FE46FE1CA59";
shapes = (
{
closed = 1;
nodes = (
(696,1394,l),
(696,1676,l),
(650,1676,l),
(650,1394,l)
);
}
);
width = 1214;
},
{
anchors = (
{
name = _top;
pos = (680,1202);
},
{
name = top;
pos = (590,1736);
}
);
layerId = "C698F293-3EC0-4A5A-A3A0-0FDB1F5CF265";
shapes = (
{
closed = 1;
nodes = (
(590,1362,l),
(590,1736,l),
(422,1736,l),
(422,1362,l)
);
}
);
width = 1164;
},
{
anchors = (
{
name = _top;
pos = (750,1202);
},
{
name = top;
pos = (704,1780);
}
);
layerId = "5C20EF92-B63D-42A8-8878-93C2863E0093";
shapes = (
{
closed = 1;
nodes = (
(704,1336,l),
(704,1780,l),
(322,1780,l),
(322,1336,l)
);
}
);
width = 1352;
}
);
}
{
glyphname = "maiEk-thai.small";
layers = (
{
anchors = (
{
name = _top;
pos = (1002,1640);
},
{
name = top;
pos = (1002,2014);
}
);
layerId = "B1F27B51-9973-4381-9301-4FE46FE1CA59";
shapes = (
{
closed = 1;
nodes = (
(1002,1772,l),
(1002,2014,l),
(958,2014,l),
(958,1772,l)
);
}
);
width = 1214;
},
{
anchors = (
{
name = _top;
pos = (1000,1682);
},
{
name = top;
pos = (998,2110);
}
);
layerId = "C698F293-3EC0-4A5A-A3A0-0FDB1F5CF265";
shapes = (
{
closed = 1;
nodes = (
(998,1796,l),
(998,2110,l),
(840,2110,l),
(840,1796,l)
);
}
);
width = 1164;
},
{
anchors = (
{
name = _top;
pos = (1248,1744);
},
{
name = top;
pos = (1236,2226);
}
);
layerId = "5C20EF92-B63D-42A8-8878-93C2863E0093";
shapes = (
{
closed = 1;
nodes = (
(1236,1856,l),
(1236,2226,l),
(900,2226,l),
(900,1856,l)
);
}
);
width = 1352;
}
);
}
{
glyphname = "maiHanaKat-thai.narrow";
layers = (
{
anchors = (
{
name = _top;
pos = (804,1202);
},
{
name = top;
pos = (684,1570);
}
);
layerId = "B1F27B51-9973-4381-9301-4FE46FE1CA59";
shapes = (
{
closed = 1;
nodes = (
(804,1394,l),
(804,1438,l),
(444,1438,ls),
(378,1438,o),
(338,1472,o),
(338,1534,cs),
(338,1590,l),
(294,1590,l),
(294,1534,ls),
(294,1446,o),
(348,1394,o),
(444,1394,cs)
);
}
);
width = 1214;
},
{
anchors = (
{
name = _top;
pos = (680,1202);
},
{
name = top;
pos = (592,1598);
}
);
layerId = "C698F293-3EC0-4A5A-A3A0-0FDB1F5CF265";
shapes = (
{
closed = 1;
nodes = (
(694,1362,l),
(694,1506,l),
(338,1506,ls),
(276,1506,o),
(246,1532,o),
(246,1586,cs),
(246,1634,l),
(82,1634,l),
(82,1580,ls),
(82,1436,o),
(156,1362,o),
(308,1362,cs)
);
}
);
width = 1164;
},
{
anchors = (
{
name = _top;
pos = (750,1202);
},
{
name = top;
pos = (664,1716);
}
);
layerId = "5C20EF92-B63D-42A8-8878-93C2863E0093";
shapes = (
{
closed = 1;
nodes = (
(750,1336,l),
(750,1600,l),
(416,1600,ls),
(350,1600,o),
(318,1630,o),
(318,1692,cs),
(318,1742,l),
(-34,1742,l),
(-34,1614,ls),
(-34,1430,o),
(66,1336,o),
(270,1336,cs)
);
}
);
width = 1352;
}
);
}
{
glyphname = "maiTho-thai.narrow";
layers = (
{
anchors = (
{
name = _top;
pos = (804,1202);
},
{
name = top;
pos = (718,1626);
}
);
layerId = "B1F27B51-9973-4381-9301-4FE46FE1CA59";
shapes = (
{
closed = 1;
nodes = (
(804,1394,l),
(804,1438,l),
(440,1438,l),
(440,1496,ls),
(440,1588,o),
(400,1626,o),
(306,1626,cs),
(238,1626,l),
(238,1584,l),
(306,1584,ls),
(368,1584,o),
(394,1558,o),
(394,1496,cs),
(394,1394,l)
);
}
);
width = 1214;
},
{
anchors = (
{
name = _top;
pos = (680,1202);
},
{
name = top;
pos = (680,1726);
}
);
layerId = "C698F293-3EC0-4A5A-A3A0-0FDB1F5CF265";
shapes = (
{
closed = 1;
nodes = (
(696,1362,l),
(696,1506,l),
(386,1506,l),
(386,1566,ls),
(386,1678,o),
(322,1726,o),
(208,1726,cs),
(72,1726,l),
(72,1588,l),
(144,1588,ls),
(196,1588,o),
(218,1566,o),
(218,1514,cs),
(218,1362,l)
);
}
);
width = 1164;
},
{
anchors = (
{
name = _top;
pos = (750,1202);
},
{
name = top;
pos = (752,1766);
}
);
layerId = "5C20EF92-B63D-42A8-8878-93C2863E0093";
shapes = (
{
closed = 1;
nodes = (
(750,1336,l),
(750,1592,l),
(480,1592,l),
(480,1630,ls),
(480,1718,o),
(432,1766,o),
(344,1766,cs),
(54,1766,l),
(54,1554,l),
(140,1554,ls),
(182,1554,o),
(206,1530,o),
(206,1488,cs),
(206,1336,l)
);
}
);
width = 1352;
}
);
}
{
glyphname = "maiTho-thai.small";
layers = (
{
anchors = (
{
name = _top;
pos = (1002,1640);
},
{
name = top;
pos = (1002,2002);
}
);
layerId = "B1F27B51-9973-4381-9301-4FE46FE1CA59";
shapes = (
{
closed = 1;
nodes = (
(1150,1772,l),
(1150,1814,l),
(858,1814,l),
(858,1880,ls),
(858,1966,o),
(822,2002,o),
(738,2002,cs),
(670,2002,l),
(670,1960,l),
(738,1960,ls),
(790,1960,o),
(814,1938,o),
(814,1880,cs),
(814,1772,l)
);
}
);
width = 1214;
},
{
anchors = (
{
name = _top;
pos = (1000,1682);
},
{
name = top;
pos = (1000,2098);
}
);
layerId = "C698F293-3EC0-4A5A-A3A0-0FDB1F5CF265";
shapes = (
{
closed = 1;
nodes = (
(1138,1796,l),
(1138,1928,l),
(852,1928,l),
(852,1962,ls),
(852,2058,o),
(804,2098,o),
(698,2098,cs),
(558,2098,l),
(558,1974,l),
(632,1974,ls),
(680,1974,o),
(700,1958,o),
(700,1920,cs),
(700,1796,l)
);
}
);
width = 1164;
},
{
anchors = (
{
name = _top;
pos = (1248,1744);
},
{
name = top;
pos = (1248,2240);
}
);
layerId = "5C20EF92-B63D-42A8-8878-93C2863E0093";
shapes = (
{
closed = 1;
nodes = (
(1362,1856,l),
(1362,2062,l),
(1004,2062,l),
(1004,2106,ls),
(1004,2192,o),
(954,2240,o),
(866,2240,cs),
(600,2240,l),
(600,2028,l),
(686,2028,ls),
(728,2028,o),
(750,2002,o),
(750,1962,cs),
(750,1856,l)
);
}
);
width = 1352;
}
);
}
{
glyphname = "maiTri-thai.narrow";
layers = (
{
anchors = (
{
name = _top;
pos = (804,1202);
},
{
name = top;
pos = (694,1690);
}
);
layerId = "B1F27B51-9973-4381-9301-4FE46FE1CA59";
shapes = (
{
closed = 1;
nodes = (
(232,1394,l),
(232,1534,ls),
(232,1604,o),
(258,1638,o),
(322,1650,c),
(284,1674,l),
(434,1522,l),
(446,1522,l),
(596,1674,l),
(558,1650,l),
(620,1638,o),
(648,1604,o),
(648,1534,cs),
(648,1394,l),
(878,1394,l),
(878,1438,l),
(674,1438,l),
(694,1418,l),
(694,1534,ls),
(694,1628,o),
(648,1680,o),
(558,1690,c),
(442,1570,l),
(438,1570,l),
(322,1690,l),
(232,1680,o),
(186,1628,o),
(186,1534,cs),
(186,1394,l)
);
}
);
width = 1214;
},
{
anchors = (
{
name = _top;
pos = (680,1202);
},
{
name = top;
pos = (680,1756);
}
);
layerId = "C698F293-3EC0-4A5A-A3A0-0FDB1F5CF265";
shapes = (
{
closed = 1;
nodes = (
(170,1362,l),
(170,1544,ls),
(170,1568,o),
(182,1590,o),
(200,1600,c),
(184,1600,l),
(288,1512,l),
(334,1512,l),
(438,1600,l),
(424,1600,l),
(442,1590,o),
(454,1568,o),
(454,1544,cs),
(454,1362,l),
(730,1362,l),
(730,1506,l),
(522,1506,l),
(594,1424,l),
(594,1566,ls),
(594,1684,o),
(538,1746,o),
(426,1756,c),
(312,1658,l),
(308,1658,l),
(196,1756,l),
(86,1746,o),
(20,1678,o),
(20,1560,cs),
(20,1362,l)
);
}
);
width = 1164;
},
{
anchors = (
{
name = _top;
pos = (750,1202);
},
{
name = top;
pos = (654,1776);
}
);
layerId = "5C20EF92-B63D-42A8-8878-93C2863E0093";
shapes = (
{
closed = 1;
nodes = (
(230,1336,l),
(230,1462,ls),
(230,1488,o),
(242,1510,o),
(260,1524,c),
(190,1568,l),
(298,1482,l),
(318,1482,l),
(426,1568,l),
(358,1524,l),
(376,1512,o),
(388,1488,o),
(388,1462,cs),
(388,1336,l),
(772,1336,l),
(772,1560,l),
(622,1560,l),
(654,1482,l),
(654,1532,ls),
(654,1678,o),
(574,1770,o),
(442,1776,c),
(312,1676,l),
(304,1676,l),
(174,1776,l),
(36,1770,o),
(-50,1674,o),
(-50,1522,cs),
(-50,1336,l)
);
}
);
width = 1352;
}
);
}
{
glyphname = "maiTri-thai.small";
layers = (
{
anchors = (
{
name = _top;
pos = (1002,1640);
},
{
name = top;
pos = (1002,2020);
}
);
layerId = "B1F27B51-9973-4381-9301-4FE46FE1CA59";
shapes = (
{
closed = 1;
nodes = (
(658,1772,l),
(658,1868,ls),
(658,1938,o),
(704,1972,o),
(760,1984,c),
(714,1992,l),
(836,1854,l),
(848,1854,l),
(970,1992,l),
(924,1984,l),
(980,1972,o),
(1026,1938,o),
(1026,1868,cs),
(1026,1772,l),
(1204,1772,l),
(1204,1814,l),
(1052,1814,l),
(1070,1794,l),
(1070,1868,ls),
(1070,1962,o),
(1008,2012,o),
(942,2020,c),
(844,1908,l),
(840,1908,l),
(744,2020,l),
(676,2012,o),
(614,1962,o),
(614,1868,cs),
(614,1772,l)
);
}
);
width = 1214;
},
{
anchors = (
{
name = _top;
pos = (1000,1682);
},
{
name = top;
pos = (1000,2146);
}
);
layerId = "C698F293-3EC0-4A5A-A3A0-0FDB1F5CF265";
shapes = (
{
closed = 1;
nodes = (
(662,1796,l),
(662,1960,ls),
(662,1982,o),
(680,2006,o),
(720,2012,c),
(700,2012,l),
(782,1940,l),
(824,1940,l),
(904,2012,l),
(888,2012,l),
(926,2006,o),
(946,1982,o),
(946,1960,cs),
(946,1796,l),
(1190,1796,l),
(1190,1928,l),
(1000,1928,l),
(1082,1846,l),
(1082,1964,ls),
(1082,2070,o),
(994,2136,o),
(890,2146,c),
(744,1996,l),
(860,1996,l),
(714,2146,l),
(612,2136,o),
(514,2070,o),
(514,1966,cs),
(514,1796,l)
);
}
);
width = 1164;
},
{
anchors = (
{
name = _top;
pos = (1248,1744);
},
{
name = top;
pos = (1248,2248);
}
);
layerId = "5C20EF92-B63D-42A8-8878-93C2863E0093";
shapes = (
{
closed = 1;
nodes = (
(854,1856,l),
(854,1976,ls),
(854,2000,o),
(864,2020,o),
(882,2030,c),
(830,2062,l),
(928,1970,l),
(946,1970,l),
(1048,2062,l),
(996,2030,l),
(1014,2018,o),
(1026,1998,o),
(1026,1976,cs),
(1026,1856,l),
(1400,1856,l),
(1400,2056,l),
(1262,2056,l),
(1294,1986,l),
(1294,2030,ls),
(1294,2160,o),
(1200,2244,o),
(1048,2248,c),
(902,2108,l),
(976,2108,l),
(828,2248,l),
(670,2242,o),
(568,2158,o),
(568,2022,cs),
(568,1856,l)
);
}
);
width = 1352;
}
);
}
{
glyphname = "maitaikhu-thai.narrow";
layers = (
{
anchors = (
{
name = _top;
pos = (804,1202);
},
{
name = top;
pos = (804,1724);
}
);
layerId = "B1F27B51-9973-4381-9301-4FE46FE1CA59";
shapes = (
{
closed = 1;
nodes = (
(742,1390,o),
(772,1398,o),
(802,1412,c),
(790,1450,l),
(764,1440,o),
(736,1434,o),
(712,1434,cs),
(648,1434,o),
(606,1470,o),
(592,1536,c),
(544,1536,l),
(468,1436,l),
(438,1436,ls),
(352,1436,o),
(304,1482,o),
(304,1560,cs),
(304,1638,o),
(352,1682,o),
(438,1682,cs),
(804,1682,l),
(804,1724,l),
(438,1724,ls),
(330,1724,o),
(258,1658,o),
(258,1560,cs),
(258,1462,o),
(330,1394,o),
(438,1394,cs),
(486,1394,l),
(564,1498,l),
(570,1498,l),
(588,1430,o),
(640,1390,o),
(712,1390,cs)
);
}
);
width = 1214;
},
{
anchors = (
{
name = _top;
pos = (680,1202);
},
{
name = top;
pos = (680,1788);
}
);
layerId = "C698F293-3EC0-4A5A-A3A0-0FDB1F5CF265";
shapes = (
{
closed = 1;
nodes = (
(614,1356,o),
(648,1364,o),
(680,1378,c),
(656,1504,l),
(628,1494,o),
(600,1490,o),
(574,1490,cs),
(510,1490,o),
(470,1518,o),
(460,1570,c),
(380,1570,l),
(304,1492,l),
(290,1492,ls),
(240,1492,o),
(208,1526,o),
(208,1576,cs),
(208,1626,o),
(240,1660,o),
(290,1660,cs),
(680,1660,l),
(680,1788,l),
(270,1788,ls),
(134,1788,o),
(44,1702,o),
(44,1574,cs),
(44,1446,o),
(132,1362,o),
(270,1362,cs),
(350,1362,l),
(422,1444,l),
(434,1444,l),
(462,1386,o),
(510,1356,o),
(580,1356,cs)
);
}
);
width = 1164;
},
{
anchors = (
{
name = _top;
pos = (750,1202);
},
{
name = top;
pos = (750,1896);
}
);
layerId = "5C20EF92-B63D-42A8-8878-93C2863E0093";
shapes = (
{
closed = 1;
nodes = (
(674,1326,o),
(712,1336,o),
(750,1356,c),
(726,1558,l),
(692,1544,o),
(662,1536,o),
(632,1536,cs),
(572,1536,o),
(526,1564,o),
(514,1610,c),
(428,1610,l),
(368,1542,l),
(326,1542,ls),
(278,1542,o),
(248,1574,o),
(248,1620,cs),
(248,1666,o),
(278,1696,o),
(326,1696,cs),
(750,1696,l),
(750,1896,l),
(256,1894,ls),
(94,1894,o),
(-10,1786,o),
(-10,1614,cs),
(-10,1444,o),
(92,1336,o),
(256,1336,cs),
(426,1336,l),
(474,1404,l),
(486,1404,l),
(512,1356,o),
(570,1326,o),
(636,1326,cs)
);
}
);
width = 1352;
}
);
}
{
glyphname = "maitaikhu-thai.small";
layers = (
{
anchors = (
{
name = _top;
pos = (1002,1640);
},
{
name = top;
pos = (1002,2028);
}
);
layerId = "B1F27B51-9973-4381-9301-4FE46FE1CA59";
shapes = (
{
closed = 1;
nodes = (
(984,1768,o),
(1012,1772,o),
(1042,1788,c),
(1030,1826,l),
(1008,1816,o),
(984,1810,o),
(960,1810,cs),
(902,1810,o),
(862,1846,o),
(848,1912,c),
(800,1912,l),
(730,1814,l),
(698,1814,ls),
(636,1814,o),
(602,1844,o),
(602,1900,cs),
(602,1954,o),
(636,1986,o),
(698,1986,cs),
(1044,1986,l),
(1044,2028,l),
(698,2028,ls),
(612,2028,o),
(556,1978,o),
(556,1900,cs),
(556,1822,o),
(612,1772,o),
(698,1772,cs),
(748,1772,l),
(818,1874,l),
(824,1874,l),
(840,1808,o),
(890,1768,o),
(960,1768,cs)
);
}
);
width = 1214;
},
{
anchors = (
{
name = _top;
pos = (1000,1682);
},
{
name = top;
pos = (958,2158);
}
);
layerId = "C698F293-3EC0-4A5A-A3A0-0FDB1F5CF265";
shapes = (
{
closed = 1;
nodes = (
(902,1790,o),
(930,1794,o),
(958,1808,c),
(936,1924,l),
(912,1916,o),
(888,1912,o),
(866,1912,cs),
(810,1912,o),
(774,1938,o),
(764,1984,c),
(690,1984,l),
(628,1914,l),
(610,1914,ls),
(572,1914,o),
(546,1938,o),
(546,1976,cs),
(546,2014,o),
(572,2040,o),
(610,2040,cs),
(958,2040,l),
(958,2158,l),
(590,2158,ls),
(474,2158,o),
(398,2084,o),
(398,1976,cs),
(398,1866,o),
(472,1796,o),
(590,1796,cs),
(670,1796,l),
(730,1870,l),
(740,1870,l),
(766,1818,o),
(812,1790,o),
(872,1790,cs)
);
}
);
width = 1164;
},
{
anchors = (
{
name = _top;
pos = (1248,1744);
},
{
name = top;
pos = (1160,2250);
}
);
layerId = "5C20EF92-B63D-42A8-8878-93C2863E0093";
shapes = (
{
closed = 1;
nodes = (
(1094,1846,o),
(1126,1854,o),
(1160,1868,c),
(1138,2002,l),
(1108,1992,o),
(1080,1986,o),
(1054,1986,cs),
(1000,1986,o),
(960,2010,o),
(950,2048,c),
(874,2048,l),
(820,1992,l),
(776,1992,ls),
(736,1992,o),
(712,2012,o),
(712,2046,cs),
(712,2080,o),
(736,2098,o),
(776,2098,cs),
(1160,2098,l),
(1160,2250,l),
(720,2250,ls),
(576,2250,o),
(482,2176,o),
(482,2050,cs),
(482,1924,o),
(576,1854,o),
(720,1854,cs),
(870,1854,l),
(914,1910,l),
(926,1910,l),
(950,1870,o),
(998,1846,o),
(1060,1846,cs)
);
}
);
width = 1352;
}
);
}
{
glyphname = "moMa_underscore-thai";
layers = (
{
anchors = (
{
name = bottom;
pos = (1008,-270);
}
);
layerId = "B1F27B51-9973-4381-9301-4FE46FE1CA59";
shapes = (
{
closed = 1;
nodes = (
(1008,-270,l),
(1008,-226,l),
(216,-226,l),
(216,-270,l)
);
},
{
ref = "moMa-thai";
}
);
width = 1218;
},
{
anchors = (
{
name = bottom;
pos = (1100,-344);
}
);
layerId = "C698F293-3EC0-4A5A-A3A0-0FDB1F5CF265";
shapes = (
{
closed = 1;
nodes = (
(1100,-344,l),
(1100,-184,l),
(170,-184,l),
(170,-344,l)
);
},
{
ref = "moMa-thai";
}
);
width = 1278;
},
{
anchors = (
{
name = bottom;
pos = (1248,-372);
}
);
layerId = "5C20EF92-B63D-42A8-8878-93C2863E0093";
shapes = (
{
closed = 1;
nodes = (
(1248,-372,l),
(1248,-162,l),
(104,-162,l),
(104,-372,l)
);
},
{
ref = "moMa-thai";
}
);
width = 1360;
}
);
subCategory = Other;
}
{
glyphname = "ngoNgu_underscore-thai";
layers = (
{
anchors = (
{
name = bottom;
pos = (888,-270);
}
);
layerId = "B1F27B51-9973-4381-9301-4FE46FE1CA59";
shapes = (
{
closed = 1;
nodes = (
(888,-270,l),
(888,-226,l),
(126,-226,l),
(126,-270,l)
);
},
{
ref = "ngoNgu-thai";
}
);
width = 1054;
},
{
anchors = (
{
name = bottom;
pos = (1042,-344);
}
);
layerId = "C698F293-3EC0-4A5A-A3A0-0FDB1F5CF265";
shapes = (
{
closed = 1;
nodes = (
(1042,-344,l),
(1042,-184,l),
(124,-184,l),
(124,-344,l)
);
},
{
ref = "ngoNgu-thai";
}
);
width = 1186;
},
{
anchors = (
{
name = bottom;
pos = (1176,-372);
}
);
layerId = "5C20EF92-B63D-42A8-8878-93C2863E0093";
shapes = (
{
closed = 1;
nodes = (
(1176,-372,l),
(1176,-162,l),
(134,-162,l),
(134,-372,l)
);
},
{
ref = "ngoNgu-thai";
}
);
width = 1290;
}
);
subCategory = Other;
}
{
glyphname = "noNu_underscore-thai";
layers = (
{
anchors = (
{
name = bottom;
pos = (1002,-270);
}
);
layerId = "B1F27B51-9973-4381-9301-4FE46FE1CA59";
shapes = (
{
closed = 1;
nodes = (
(1002,-270,l),
(1002,-226,l),
(210,-226,l),
(210,-270,l)
);
},
{
ref = "noNu-thai";
}
);
width = 1218;
},
{
anchors = (
{
name = bottom;
pos = (1106,-344);
}
);
layerId = "C698F293-3EC0-4A5A-A3A0-0FDB1F5CF265";
shapes = (
{
closed = 1;
nodes = (
(1106,-344,l),
(1106,-184,l),
(178,-184,l),
(178,-344,l)
);
},
{
ref = "noNu-thai";
}
);
width = 1278;
},
{
anchors = (
{
name = bottom;
pos = (1242,-372);
}
);
layerId = "5C20EF92-B63D-42A8-8878-93C2863E0093";
shapes = (
{
closed = 1;
nodes = (
(1242,-372,l),
(1242,-162,l),
(98,-162,l),
(98,-372,l)
);
},
{
ref = "noNu-thai";
}
);
width = 1360;
}
);
subCategory = Other;
}
{
glyphname = "phinthu-thai.small";
layers = (
{
anchors = (
{
name = _bottom;
pos = (1002,-264);
},
{
name = bottom;
pos = (1020,-494);
}
);
layerId = "B1F27B51-9973-4381-9301-4FE46FE1CA59";
shapes = (
{
closed = 1;
nodes = (
(1006,-494,o),
(1028,-470,o),
(1028,-440,cs),
(1028,-410,o),
(1006,-388,o),
(976,-388,cs),
(946,-388,o),
(922,-410,o),
(922,-440,cs),
(922,-470,o),
(946,-494,o),
(976,-494,cs)
);
}
);
width = 1214;
},
{
anchors = (
{
name = _bottom;
pos = (1000,-410);
},
{
name = bottom;
pos = (1016,-744);
}
);
layerId = "C698F293-3EC0-4A5A-A3A0-0FDB1F5CF265";
shapes = (
{
closed = 1;
nodes = (
(980,-744,o),
(1030,-698,o),
(1030,-634,cs),
(1030,-570,o),
(980,-526,o),
(912,-526,cs),
(844,-526,o),
(796,-570,o),
(796,-634,cs),
(796,-698,o),
(844,-744,o),
(912,-744,cs)
);
}
);
width = 1164;
},
{
anchors = (
{
name = _bottom;
pos = (1248,-412);
},
{
name = bottom;
pos = (1248,-872);
}
);
layerId = "5C20EF92-B63D-42A8-8878-93C2863E0093";
shapes = (
{
closed = 1;
nodes = (
(1164,-872,o),
(1250,-790,o),
(1250,-678,cs),
(1250,-566,o),
(1164,-482,o),
(1046,-482,cs),
(928,-482,o),
(842,-566,o),
(842,-678,cs),
(842,-790,o),
(928,-872,o),
(1046,-872,cs)
);
}
);
width = 1352;
}
);
}
{
glyphname = "saraI-thai.narrow";
layers = (
{
anchors = (
{
name = _top;
pos = (804,1202);
},
{
name = top;
pos = (804,1474);
}
);
layerId = "B1F27B51-9973-4381-9301-4FE46FE1CA59";
shapes = (
{
closed = 1;
nodes = (
(804,1394,l),
(804,1438,l),
(114,1438,l),
(114,1394,l)
);
}
);
width = 1214;
},
{
anchors = (
{
name = _top;
pos = (680,1202);
},
{
name = top;
pos = (680,1538);
}
);
layerId = "C698F293-3EC0-4A5A-A3A0-0FDB1F5CF265";
shapes = (
{
closed = 1;
nodes = (
(680,1362,l),
(680,1510,l),
(-48,1510,l),
(-48,1362,l)
);
}
);
width = 1164;
},
{
anchors = (
{
name = _top;
pos = (750,1202);
},
{
name = top;
pos = (750,1620);
}
);
layerId = "5C20EF92-B63D-42A8-8878-93C2863E0093";
shapes = (
{
closed = 1;
nodes = (
(750,1336,l),
(750,1600,l),
(-42,1600,l),
(-42,1336,l)
);
}
);
width = 1352;
}
);
}
{
glyphname = "saraIi-thai.narrow";
layers = (
{
anchors = (
{
name = _top;
pos = (804,1202);
},
{
name = top;
pos = (804,1640);
}
);
layerId = "B1F27B51-9973-4381-9301-4FE46FE1CA59";
shapes = (
{
closed = 1;
nodes = (
(804,1394,l),
(804,1640,l),
(760,1640,l),
(760,1438,l),
(114,1438,l),
(114,1394,l)
);
}
);
width = 1214;
},
{
anchors = (
{
name = _top;
pos = (680,1202);
},
{
name = top;
pos = (680,1682);
}
);
layerId = "C698F293-3EC0-4A5A-A3A0-0FDB1F5CF265";
shapes = (
{
closed = 1;
nodes = (
(680,1362,l),
(680,1682,l),
(514,1682,l),
(514,1510,l),
(-48,1510,l),
(-48,1362,l)
);
}
);
width = 1164;
},
{
anchors = (
{
name = _top;
pos = (750,1202);
},
{
name = top;
pos = (750,1744);
}
);
layerId = "5C20EF92-B63D-42A8-8878-93C2863E0093";
shapes = (
{
closed = 1;
nodes = (
(750,1336,l),
(750,1744,l),
(398,1744,l),
(398,1600,l),
(-42,1600,l),
(-42,1336,l)
);
}
);
width = 1352;
}
);
}
{
glyphname = "saraU-thai.small";
layers = (
{
anchors = (
{
name = _bottom;
pos = (1002,-264);
},
{
name = bottom;
pos = (1002,-622);
}
);
layerId = "B1F27B51-9973-4381-9301-4FE46FE1CA59";
shapes = (
{
closed = 1;
nodes = (
(1002,-622,l),
(1002,-396,l),
(860,-396,l),
(860,-438,l),
(958,-438,l),
(958,-622,l)
);
}
);
width = 1214;
},
{
anchors = (
{
name = _bottom;
pos = (1000,-410);
},
{
name = bottom;
pos = (1000,-856);
}
);
layerId = "C698F293-3EC0-4A5A-A3A0-0FDB1F5CF265";
shapes = (
{
closed = 1;
nodes = (
(1000,-856,l),
(1000,-542,l),
(706,-542,l),
(706,-666,l),
(836,-666,l),
(836,-856,l)
);
}
);
width = 1164;
},
{
anchors = (
{
name = _bottom;
pos = (1248,-412);
},
{
name = bottom;
pos = (1248,-872);
}
);
layerId = "5C20EF92-B63D-42A8-8878-93C2863E0093";
shapes = (
{
closed = 1;
nodes = (
(1248,-872,l),
(1248,-492,l),
(762,-492,l),
(762,-714,l),
(908,-714,l),
(908,-872,l)
);
}
);
width = 1352;
}
);
}
{
glyphname = "saraUe-thai.narrow";
layers = (
{
anchors = (
{
name = _top;
pos = (804,1202);
},
{
name = top;
pos = (754,1640);
}
);
layerId = "B1F27B51-9973-4381-9301-4FE46FE1CA59";
shapes = (
{
closed = 1;
nodes = (
(728,1394,ls),
(810,1394,o),
(870,1456,o),
(870,1536,cs),
(870,1616,o),
(808,1676,o),
(728,1676,cs),
(648,1676,o),
(588,1616,o),
(588,1538,cs),
(588,1490,o),
(612,1446,o),
(648,1428,c),
(648,1438,l),
(114,1438,l),
(114,1394,l)
);
},
{
closed = 1;
nodes = (
(670,1436,o),
(632,1476,o),
(632,1536,cs),
(632,1596,o),
(670,1634,o),
(728,1634,cs),
(786,1634,o),
(824,1596,o),
(824,1536,cs),
(824,1476,o),
(786,1436,o),
(728,1436,cs)
);
}
);
width = 1214;
},
{
anchors = (
{
name = _top;
pos = (680,1202);
},
{
name = top;
pos = (600,1682);
}
);
layerId = "C698F293-3EC0-4A5A-A3A0-0FDB1F5CF265";
shapes = (
{
closed = 1;
nodes = (
(524,1362,ls),
(630,1362,o),
(708,1436,o),
(708,1534,cs),
(708,1632,o),
(630,1704,o),
(524,1704,cs),
(420,1704,o),
(342,1632,o),
(342,1538,cs),
(342,1502,o),
(352,1474,o),
(376,1448,c),
(424,1510,l),
(-48,1510,l),
(-48,1362,l)
);
},
{
closed = 1;
nodes = (
(488,1462,o),
(464,1490,o),
(464,1534,cs),
(464,1576,o),
(488,1606,o),
(524,1606,cs),
(560,1606,o),
(584,1576,o),
(584,1534,cs),
(584,1490,o),
(560,1462,o),
(524,1462,cs)
);
}
);
width = 1164;
},
{
anchors = (
{
name = _top;
pos = (750,1202);
},
{
name = top;
pos = (716,1744);
}
);
layerId = "5C20EF92-B63D-42A8-8878-93C2863E0093";
shapes = (
{
closed = 1;
nodes = (
(540,1336,ls),
(694,1336,o),
(794,1432,o),
(794,1582,cs),
(794,1712,o),
(698,1796,o),
(550,1796,cs),
(396,1796,o),
(298,1712,o),
(298,1578,cs),
(298,1548,o),
(306,1512,o),
(318,1480,c),
(446,1600,l),
(-42,1600,l),
(-42,1336,l)
);
},
{
closed = 1;
nodes = (
(498,1502,o),
(472,1532,o),
(472,1580,cs),
(472,1628,o),
(498,1658,o),
(540,1658,cs),
(582,1658,o),
(608,1628,o),
(608,1580,cs),
(608,1532,o),
(582,1502,o),
(540,1502,cs)
);
}
);
width = 1352;
}
);
}
{
glyphname = "saraUee-thai.narrow";
layers = (
{
anchors = (
{
name = _top;
pos = (804,1202);
},
{
name = top;
pos = (804,1640);
}
);
layerId = "B1F27B51-9973-4381-9301-4FE46FE1CA59";
shapes = (
{
closed = 1;
nodes = (
(804,1394,l),
(804,1640,l),
(760,1640,l),
(760,1438,l),
(566,1438,l),
(552,1438,l),
(114,1438,l),
(114,1394,l)
);
},
{
closed = 1;
nodes = (
(578,1416,l),
(578,1640,l),
(534,1640,l),
(534,1416,l)
);
}
);
width = 1214;
},
{
anchors = (
{
name = _top;
pos = (680,1202);
},
{
name = top;
pos = (680,1682);
}
);
layerId = "C698F293-3EC0-4A5A-A3A0-0FDB1F5CF265";
shapes = (
{
closed = 1;
nodes = (
(680,1362,l),
(680,1682,l),
(520,1682,l),
(520,1506,l),
(386,1506,l),
(366,1510,l),
(-48,1510,l),
(-48,1362,l)
);
},
{
closed = 1;
nodes = (
(410,1438,l),
(410,1682,l),
(258,1682,l),
(258,1438,l)
);
}
);
width = 1164;
},
{
anchors = (
{
name = _top;
pos = (750,1202);
},
{
name = top;
pos = (750,1744);
}
);
layerId = "5C20EF92-B63D-42A8-8878-93C2863E0093";
shapes = (
{
closed = 1;
nodes = (
(750,1336,l),
(750,1744,l),
(504,1744,l),
(502,1574,l),
(328,1574,l),
(328,1600,l),
(-42,1600,l),
(-42,1336,l)
);
},
{
closed = 1;
nodes = (
(416,1504,l),
(418,1744,l),
(184,1744,l),
(182,1504,l)
);
}
);
width = 1352;
}
);
}
{
glyphname = "saraUu-thai.small";
layers = (
{
anchors = (
{
name = _bottom;
pos = (1002,-264);
},
{
name = bottom;
pos = (994,-626);
}
);
layerId = "B1F27B51-9973-4381-9301-4FE46FE1CA59";
shapes = (
{
closed = 1;
nodes = (
(934,-634,o),
(1002,-564,o),
(1002,-452,cs),
(1002,-396,l),
(958,-396,l),
(958,-452,ls),
(958,-542,o),
(910,-592,o),
(816,-592,cs),
(722,-592,o),
(674,-542,o),
(674,-452,cs),
(674,-396,l),
(546,-396,l),
(546,-438,l),
(630,-438,l),
(630,-452,ls),
(630,-564,o),
(698,-634,o),
(816,-634,cs)
);
}
);
width = 1214;
},
{
anchors = (
{
name = _bottom;
pos = (1000,-410);
},
{
name = bottom;
pos = (984,-872);
}
);
layerId = "C698F293-3EC0-4A5A-A3A0-0FDB1F5CF265";
shapes = (
{
closed = 1;
nodes = (
(900,-872,o),
(1000,-806,o),
(1000,-688,cs),
(1000,-542,l),
(840,-542,l),
(840,-666,ls),
(840,-714,o),
(798,-748,o),
(724,-748,cs),
(650,-748,o),
(608,-714,o),
(608,-666,cs),
(608,-542,l),
(360,-542,l),
(360,-660,l),
(456,-660,l),
(456,-688,ls),
(456,-804,o),
(554,-872,o),
(724,-872,cs)
);
}
);
width = 1164;
},
{
anchors = (
{
name = _bottom;
pos = (1248,-412);
},
{
name = bottom;
pos = (1234,-872);
}
);
layerId = "5C20EF92-B63D-42A8-8878-93C2863E0093";
shapes = (
{
closed = 1;
nodes = (
(1112,-872,o),
(1248,-792,o),
(1248,-650,cs),
(1248,-492,l),
(942,-492,l),
(942,-604,ls),
(942,-658,o),
(910,-686,o),
(860,-686,cs),
(810,-686,o),
(778,-658,o),
(778,-604,cs),
(778,-492,l),
(386,-492,l),
(386,-658,l),
(494,-658,l),
(494,-684,ls),
(494,-800,o),
(618,-872,o),
(862,-872,cs)
);
}
);
width = 1352;
}
);
}
{
glyphname = "thanthakhat-thai.narrow";
layers = (
{
anchors = (
{
name = _top;
pos = (804,1202);
},
{
name = top;
pos = (804,1626);
}
);
layerId = "B1F27B51-9973-4381-9301-4FE46FE1CA59";
shapes = (
{
closed = 1;
nodes = (
(466,1394,l),
(466,1452,ls),
(466,1540,o),
(510,1584,o),
(600,1584,cs),
(838,1584,l),
(838,1626,l),
(600,1626,ls),
(480,1626,o),
(422,1570,o),
(422,1452,cs),
(422,1394,l)
);
}
);
width = 1214;
},
{
anchors = (
{
name = _top;
pos = (680,1202);
},
{
name = top;
pos = (680,1632);
}
);
layerId = "C698F293-3EC0-4A5A-A3A0-0FDB1F5CF265";
shapes = (
{
closed = 1;
nodes = (
(432,1362,l),
(432,1394,ls),
(432,1456,o),
(466,1490,o),
(530,1490,cs),
(708,1490,l),
(708,1632,l),
(492,1632,ls),
(350,1632,o),
(272,1552,o),
(272,1410,cs),
(272,1362,l)
);
}
);
width = 1164;
},
{
anchors = (
{
name = _top;
pos = (750,1202);
},
{
name = top;
pos = (762,1742);
}
);
layerId = "5C20EF92-B63D-42A8-8878-93C2863E0093";
shapes = (
{
closed = 1;
nodes = (
(530,1336,l),
(530,1396,ls),
(530,1458,o),
(562,1486,o),
(628,1486,cs),
(762,1486,l),
(762,1742,l),
(512,1742,ls),
(308,1742,o),
(192,1634,o),
(192,1450,cs),
(192,1336,l)
);
}
);
width = 1352;
}
);
}
{
glyphname = "thanthakhat-thai.small";
layers = (
{
anchors = (
{
name = _top;
pos = (1002,1640);
},
{
name = top;
pos = (1002,1982);
}
);
layerId = "B1F27B51-9973-4381-9301-4FE46FE1CA59";
shapes = (
{
closed = 1;
nodes = (
(786,1758,l),
(786,1822,ls),
(786,1900,o),
(824,1938,o),
(904,1938,cs),
(1092,1938,l),
(1092,1982,l),
(904,1982,ls),
(792,1982,o),
(740,1930,o),
(740,1822,cs),
(740,1758,l)
);
}
);
width = 1214;
},
{
anchors = (
{
name = _top;
pos = (1000,1682);
},
{
name = top;
pos = (1000,2050);
}
);
layerId = "C698F293-3EC0-4A5A-A3A0-0FDB1F5CF265";
shapes = (
{
closed = 1;
nodes = (
(800,1796,l),
(800,1822,ls),
(800,1876,o),
(834,1908,o),
(890,1908,cs),
(1048,1908,l),
(1048,2050,l),
(852,2050,ls),
(718,2050,o),
(640,1972,o),
(640,1838,cs),
(640,1796,l)
);
}
);
width = 1164;
},
{
anchors = (
{
name = _top;
pos = (1248,1744);
},
{
name = top;
pos = (1248,2226);
}
);
layerId = "5C20EF92-B63D-42A8-8878-93C2863E0093";
shapes = (
{
closed = 1;
nodes = (
(1026,1856,l),
(1026,1912,ls),
(1026,1968,o),
(1060,1992,o),
(1126,1992,cs),
(1304,1992,l),
(1304,2226,l),
(1024,2226,ls),
(820,2226,o),
(704,2128,o),
(704,1960,cs),
(704,1856,l)
);
}
);
width = 1352;
}
);
}
{
glyphname = "toPatak-thai.short";
layers = (
{
anchors = (
{
name = bottom;
pos = (1020,-264);
},
{
name = top;
pos = (1006,1202);
}
);
layerId = "B1F27B51-9973-4381-9301-4FE46FE1CA59";
shapes = (
{
closed = 1;
nodes = (
(554,-280,o),
(640,-192,o),
(656,-60,c),
(646,-88,l),
(968,-264,l),
(1020,-264,l),
(1020,814,ls),
(1020,1060,o),
(850,1218,o),
(590,1218,cs),
(328,1218,o),
(154,1058,o),
(154,816,cs),
(154,784,l),
(372,760,l),
(372,754,l),
(286,720,o),
(248,644,o),
(248,512,cs),
(248,180,ls),
(248,92,o),
(210,44,o),
(142,44,cs),
(70,44,l),
(70,0,l),
(142,0,ls),
(240,0,o),
(296,68,o),
(296,184,cs),
(296,516,ls),
(296,684,o),
(370,760,o),
(520,744,cs),
(540,742,l),
(540,784,l),
(180,824,l),
(202,788,l),
(202,816,ls),
(202,1034,o),
(354,1174,o),
(590,1174,cs),
(826,1174,o),
(974,1036,o),
(974,814,cs),
(974,-220,l),
(970,-220,l),
(648,-42,l),
(610,-42,l),
(610,-152,o),
(536,-236,o),
(438,-236,cs),
(356,-236,o),
(294,-178,o),
(272,-82,c),
(226,-98,l),
(254,-210,o),
(336,-280,o),
(438,-280,cs)
);
}
);
width = 1230;
},
{
anchors = (
{
name = bottom;
pos = (1128,-410);
},
{
name = top;
pos = (1112,1202);
}
);
layerId = "C698F293-3EC0-4A5A-A3A0-0FDB1F5CF265";
shapes = (
{
closed = 1;
nodes = (
(544,-424,o),
(622,-370,o),
(670,-270,c),
(678,-270,l),
(922,-410,l),
(1128,-410,l),
(1128,798,ls),
(1128,1060,o),
(936,1226,o),
(634,1226,cs),
(328,1226,o),
(134,1050,o),
(134,774,cs),
(134,718,l),
(344,688,l),
(344,676,l),
(246,648,o),
(190,556,o),
(190,420,cs),
(190,290,ls),
(190,200,o),
(152,154,o),
(70,154,cs),
(38,154,l),
(38,0,l),
(72,0,ls),
(270,0,o),
(366,88,o),
(366,272,cs),
(366,440,ls),
(366,594,o),
(418,670,o),
(510,656,cs),
(568,648,l),
(568,786,l),
(260,832,l),
(306,718,l),
(306,760,ls),
(306,952,o),
(434,1072,o),
(634,1072,cs),
(828,1072,o),
(952,960,o),
(952,784,cs),
(952,-244,l),
(938,-244,l),
(686,-96,l),
(602,-96,l),
(554,-238,o),
(520,-282,o),
(454,-282,cs),
(384,-282,o),
(344,-230,o),
(312,-90,c),
(170,-134,l),
(212,-320,o),
(310,-424,o),
(446,-424,cs)
);
}
);
width = 1292;
},
{
anchors = (
{
name = bottom;
pos = (1254,-412);
},
{
name = top;
pos = (1240,1202);
}
);
layerId = "5C20EF92-B63D-42A8-8878-93C2863E0093";
shapes = (
{
closed = 1;
nodes = (
(522,-426,o),
(600,-386,o),
(664,-296,c),
(674,-296,l),
(808,-412,l),
(1254,-412,l),
(1254,744,ls),
(1254,1056,o),
(1046,1226,o),
(674,1226,cs),
(296,1226,o),
(86,1050,o),
(86,734,cs),
(86,654,l),
(328,654,l),
(328,642,l),
(218,604,o),
(166,530,o),
(166,410,cs),
(166,396,ls),
(166,348,o),
(142,326,o),
(90,326,cs),
(40,326,l),
(40,30,l),
(210,30,ls),
(440,30,o),
(550,124,o),
(550,322,cs),
(550,434,ls),
(550,496,o),
(580,528,o),
(642,528,cs),
(664,528,l),
(664,746,l),
(386,746,l),
(478,676,l),
(478,734,ls),
(478,862,o),
(542,928,o),
(668,928,cs),
(786,928,o),
(850,870,o),
(850,764,cs),
(850,-152,l),
(838,-152,l),
(724,-54,l),
(598,-54,l),
(598,-112,o),
(574,-144,o),
(530,-144,cs),
(486,-144,o),
(460,-112,o),
(460,-54,c),
(98,-54,l),
(98,-294,o),
(210,-426,o),
(410,-426,cs)
);
}
);
width = 1358;
}
);
metricLeft = "phoSamphao-thai";
metricRight = "phoSamphao-thai";
}
